<svg xmlns="http://www.w3.org/2000/svg" xmlns:xlink="http://www.w3.org/1999/xlink" x="0px" y="0px"
	 viewBox="0 0 43 30" style="enable-background:new 0 0 43 30;" xml:space="preserve">
<path fill="#38C3B4" d="M22,27.9c-0.3-0.3-0.3-0.9-0.8-1.1c-0.2-0.2-0.2-0.3,0-0.5c0.4-0.3,1.1,0.2,1.4-0.5c0,0,0.1,0.3,0.1,0.5
	c0.2,0.1,0.3,0.1,0.5,0.2c0,0,0,0,0,0c0,0,0,0,0,0c0.5-0.9,1.4-0.3,2.1-0.7c-0.3,0.8-1.1,0.7-1.7,1.1c0,0.1,0,0.1,0,0.2c0,0,0,0,0,0
	c0.1,0.3-0.2,0.3-0.3,0.5C23,28.3,22.5,28.3,22,27.9z M18,26.2c-0.8,0.4-1.2,1.1-1.2,2c0,0,0,0,0,0c-0.3,0.2-0.6,0.5-0.4,1
	c0.6-0.1,0.8-0.5,1-1c0,0,0,0,0,0c0.5-0.2,0.7-0.9,1.3-1c0.4-0.1,0.7-0.4,0.5-0.7C18.9,26.1,18.4,26,18,26.2z M5.4,23.7
	c0.3,0.3-0.2,1.1,0.6,1.1C6.5,24.4,7.2,24,7.5,23C6.7,23.5,5.8,22.6,5.4,23.7z M0.9,18.1c0,0.1,0.3,0.5,0.4,0.3
	c0.6-0.3,0.9-0.9,0.8-1.7C1.5,17.1,1,17.4,0.9,18.1z M42.1,5.2c0,0.1,0,0.2,0,0.2c0,0,0,0,0,0c0,0,0,0,0,0c0,0,0,0,0,0c0,0,0,0,0,0
	C42,6,41.4,5.7,41.3,6c0,0,0,0,0,0c0,0,0,0,0,0c-0.1,0.1-0.2,0.1-0.4,0.1c-0.5,0.1-1.1,0.2-1.2,1c0,0,0,0,0,0
	C38.9,7,39,8.4,38.1,8.1c0,0,0,0,0,0c0,0,0,0,0,0c-0.2,0.1-0.4,0.2-0.5,0.3c0,0,0,0,0,0c-1,0.4-2,0.6-3.1,0.6
	c-0.1-0.1-0.1-0.2-0.1-0.3c0,0,0,0-0.1,0.1c0,0,0,0.1,0,0.1c0,0,0.1,0.1,0.1,0.1c0.1,1.1-0.9,0.7-1.4,1c-0.2,0.5-0.8,0.1-1.1,0.5
	c-1,0.7-2.3,0.6-3.4,1.2c-0.1,0.1-0.2,0.1-0.3,0.2c-0.5,0.4-1.2,0.5-1.8,0.8c-0.4,0.4-0.8,0.3-1.3,0.2c0,0,0,0,0,0c0,0,0,0,0,0
	c-0.2,0.1-0.4,0.2-0.5,0.3c-0.4-0.1-1,0.3-1.3-0.3c0,0,0,0,0,0c-0.6,0.2-1.2,0.3-1.8,0.3c-0.9,0.1-1.6,0.6-2.4,1c0,0,0,0,0,0
	c0,0,0,0,0,0c-0.3,0.1-0.5,0.2-0.8,0.3c0,0,0,0,0,0c0,0,0,0,0,0c-0.4,0.4-0.7,0.9-1.1,1.3c-0.1,0.1-0.2,0.2-0.4,0.2
	c-0.1,0-0.3,0-0.4-0.1c0.2,0.1,0.4,0.1,0.6,0.3c0.1,0,0.2,0.1,0.2,0.2c0.1,0,0.2,0,0.3,0c0,0,0,0,0-0.1c0,0,0-0.1,0-0.1l0.1,0
	c0.6,0,0.9-0.7,1.5-0.6c0.4-0.1,0.6,0.2,0.9,0.3c0.3-0.4,0.8-0.3,1.2-0.3c0.5,0,0.5,0.2,0.3,0.6c-0.1,0.1-0.2,0.2-0.3,0.3
	c0,0,0,0,0,0c0.1,0.8-0.7,0.7-1,1.1c0,0,0,0,0,0c0,0,0,0,0,0c-0.4,0.3,0.5,1.2-0.5,1.3c0,0,0,0,0,0c-0.1,0.4,0.2,0.5,0.5,0.5
	c0.1,0.1,0.1,0.2,0.1,0.3c0,0.1-0.1,0.2-0.2,0.2c0.1,0,0.2-0.1,0.3-0.2c0.2-0.1,0.3-0.1,0.5-0.1c0.2,0,0.5,0.1,0.7,0.1
	c0,0,0,0,0.1,0c0-0.1,0-0.1,0.1-0.2c0.3-0.2,0.6-0.3,0.8-0.5c0,0,0,0,0,0c0,0,0,0,0,0c0.5-0.6,1.2-0.9,2-1.1c0,0.4,0.4,0.9-0.2,1.2
	c-0.2,0.4-0.6,0.3-0.8,0.5c-0.1,0-0.2,0-0.3,0c0,0,0,0,0,0c-0.5,0.1-1.1,0.2-1.6,0.3l0,0c0,0,0,0,0,0c-0.1,0.4-0.7,0.1-0.8,0.5
	c0,0,0,0,0,0c0.1,0.2,0.2,0.3,0.3,0.5c0,0,0,0,0,0c0.1,0.2,0.4,0.3,0.3,0.5c-0.1,0.1-0.4,0-0.6,0c0,0,0,0,0,0c-0.1,0-0.2,0-0.2,0
	c0,0,0,0,0,0c-0.2,0.5-0.7,0.3-1.1,0.4c0,0,0,0,0,0c-1.1,0.3-2.2,0.6-3.1,1.1c0,0,0,0,0,0c-0.7,0.6-1.4,1.2-2.2,1.8c0,0,0,0,0,0
	c0,0,0,0,0,0c-0.3,0.5-0.7,0.7-1.3,0.3c0,0,0,0,0,0c0,0,0,0,0,0c-0.7-0.4,0.1-0.7,0-1.1c0,0,0,0,0,0c0,0,0,0,0,0
	c0-0.5,0.4-0.5,0.7-0.6c0,0,0,0,0,0c0.5-0.5,1-1,1.5-1.5l0,0c0.1-0.1,0.2-0.2,0.3-0.4c0,0,0,0,0,0.1c0,0,0-0.1,0-0.1
	c0.1-0.4,0.4-0.6,0.8-0.7c0,0,0,0,0,0c0,0,0,0,0,0c0.2-0.2,0.4-0.3,0.5-0.5c0.1-0.2,0.3-0.3,0.5-0.4c-0.1-0.1-0.1-0.2-0.2-0.2
	c-0.3,0.1-0.6,0.2-0.8,0.3c-0.1,0-0.1,0-0.2,0c0,0,0,0,0,0c0,0,0,0,0,0c-0.2,0.3-0.4,0.4-0.8,0.4c0,0,0,0,0,0c0,0,0,0,0,0
	c-0.2,0.3-0.4,0.4-0.8,0.3c0,0,0,0,0,0c0,0,0,0,0,0c-0.4,0.2-0.8,0.4-1.1-0.1c-0.1-0.3-0.3-0.6-0.5-0.8c-0.2-0.2-0.4-0.4-0.5-0.5
	c-0.1-0.5,0.1-0.8,0.4-1c-0.3,0-0.5-0.2-0.5-0.5c0.2-0.2,0.3-0.4,0.5-0.5c0.1,0,0.2,0,0.3,0.1c0,0,0,0,0,0c0.1,0,0.1,0,0.2,0
	c0,0,0,0,0-0.1c0.2-0.3,0.4-0.4,0.8-0.4c0.1,0,0.2,0,0.4,0c0.3-0.2,0.6-0.3,0.9-0.4c0,0,0.1-0.1,0.1-0.1c0.1-0.2,0.3-0.3,0.5-0.3
	c-0.4-0.1-0.7-0.2-0.8-0.8c0.1-0.4,0.5-0.5,0.9-0.6c0,0-0.1,0-0.1-0.1c0,0-0.1-0.1-0.1-0.1c-0.2,0.1-0.3,0.2-0.5,0.3c0,0,0,0,0,0
	c-0.1,0-0.2,0.1-0.2,0.1c0,0,0,0,0,0c0,0.1,0,0.2,0,0.2c-0.1,0-0.1,0.1-0.2,0.1c0,0,0,0,0,0l0,0c0,0,0,0-0.1-0.1
	c-0.2,1.2-1.1,1.6-2.1,2c-0.2,0-0.4,0-0.5-0.1c0,0.3-0.2,0.5-0.5,0.5c-1.3-0.7-0.8-1.1,0.2-1.4c0,0,0,0,0,0c0.1-0.5,0.7-0.1,0.8-0.5
	c0.5-0.5,0.7-1.4,1.7-1c0,0,0.1,0.1,0.1,0.1c0-0.1,0-0.1,0-0.2c0.1,0,0.2,0,0.2,0c0,0,0,0,0,0l0,0c0,0,0,0,0,0c0-0.2,0-0.4,0.3-0.5
	c0,0,0,0,0,0c0,0,0.1,0,0.2-0.1c0,0,0,0,0,0c0-0.1-0.1-0.2,0-0.3c-0.4,0.1-0.8,0.3-1.2,0.5c-0.3,0.1-0.7,0.4-1.1,0
	c-0.4-0.5-0.7-0.9,0.2-1.3c0.7-0.3,1.5-0.8,0.7-1.8c0,0,0,0,0,0c-0.2,0-0.4,0-0.7,0c0,0,0,0,0,0c-0.4,0.2-0.7,0.3-1.1,0.5
	c0,0,0,0,0,0c-0.8,0.3-1.6,0.6-2.4,0.9c0,0,0-0.1,0-0.1c-0.1,0-0.2,0-0.3,0c0,0,0,0,0,0c0,0-0.1,0.1-0.1,0.1
	c0.1,0.2,0.1,0.4-0.1,0.6c-0.5,0.1-1,0.4-1.5,0.3c0,0.5-0.7,0.4-0.9,0.8c0,0,0,0,0,0c-0.1,0.6-0.5,0.8-1,1c0,0,0,0,0,0c0,0,0,0,0,0
	c-0.2,0.2-0.4,0.4-0.3,0.7c0,0,0,0,0,0c0,0,0,0,0,0c0.3-0.1,0.8,0.1,1.1-0.3c0,0,0,0,0,0c0,0,0,0,0,0c0.1-0.3,0.4-0.3,0.6-0.4
	c0.4-0.2,1-0.7,1.2-0.3c0.3,0.5-0.5,0.7-0.9,1c0,0,0,0,0,0c0,0,0,0,0,0c-0.2,0.2-0.4,0.5-0.6,0.7c0.6,0.8,0.1,1-0.6,1.3c0,0,0,0,0,0
	c-0.3,0.5-0.6,0.9,0.3,1.1C7,19,7.1,19.1,7,19.1C7,19.2,7,19.2,7,19.2c-0.5,0.3-0.9,0.5-1.5,0.6c0,0,0,0,0,0c0,0.5-0.6,0.7-0.9,1.1
	c0,0,0,0,0,0c-0.2,0.3-0.5,0.6-0.7,0.9c-0.3,0.2-0.5,0.9-1,0.4c-0.4-0.4-0.1-0.8,0.2-1.1c0.1-0.1,0.2-0.3,0.3-0.4c0,0,0,0,0,0
	c0,0,0,0,0,0c-0.5-0.9,0-1.7,0.2-2.6c0.1-0.4,0.5-0.7,0.2-1.1c0,0,0,0,0,0c-1.2-0.6-0.7-1.4-0.1-1.9C5.3,13.5,7,12.3,8.8,11
	c0,0,0,0,0,0c0.5-0.7,1.2-1.1,1.9-1.6c0,0,0,0,0,0c0.2-0.2,0.3-0.3,0.5,0c0,0,0,0,0,0c0,0,0,0,0,0c0.2,0.1,0.4,0.2,0.5,0.1
	c0.1-0.1,0.1-0.1,0.2-0.2c0,0,0,0,0,0c0,0,0,0,0,0c0,0,0,0,0,0C12.3,9.2,12.7,9,13,8.9c0.1,0,0.1,0,0.2,0c0.1,0,0.1,0,0.2,0
	c0.2,0,0.3,0,0.4-0.2c-0.1,0-0.1-0.1-0.2-0.1c-0.1-0.1-0.1-0.1-0.2-0.2c-0.3,0-0.6,0-0.9,0c0,0,0,0,0,0c-0.2,0-0.4-0.1-0.5-0.1
	c0,0,0,0,0,0c0,0,0,0,0,0c0,0.1,0,0.1,0,0.2c-0.3-0.3-0.3-0.7-0.3-1c0,0,0,0,0,0c-0.7-0.1-0.8,1-1.6,0.7C9.7,8.3,9.4,7.8,9.1,7.8
	c0,0,0,0,0,0c0,0,0,0,0,0C8.8,7.9,8.7,8.3,8.3,8.2C8,8.7,7.9,9.5,7,9.5c-0.4,0.4-1,0.4-1.2,0c-0.3-0.7,0.4-1,0.9-1.4c0,0,0,0,0,0
	c0.3-0.2,0.5-0.3,0.8-0.5c0,0,0,0,0,0C7.6,7.2,7.9,7,8.3,7.1c0,0,0,0,0,0c0,0,0,0,0,0c0.2-0.3,0.5-0.4,0.8-0.2c0,0,0,0,0,0
	c0,0,0,0,0,0c0.6-1.2-0.3-2.3-0.2-3.4c0-0.3,0.3-0.7,0-1.1c0,0,0,0,0,0c0,0,0,0,0,0C8.5,2.1,8.2,1.7,8.7,1.5
	c0.9-0.4,1.6-1.1,2.7-1.5c-0.2,0.5,0.3,0.9-0.2,1.2c0,0,0,0,0,0c-0.4,0.2,0,0.9-0.6,1.1c-0.1,0-0.1,0-0.2-0.1c0,0.1-0.1,0.2-0.2,0.3
	c-0.1,0.1-0.1,0.1-0.2,0.1c0.1,0,0.2,0,0.3,0c0.2,0.1,0.4,0.1,0.5,0.1c0.2,0,0.4,0,0.6,0c0.1,0.2,0.2,0.4,0.3,0.5c0,0,0,0,0,0
	C12.1,2.9,12.6,3,13,2.9c0.2,0,0.4,0,0.6,0.2c0.3-0.4,0.6-0.5,1-0.2c-0.2-0.6,0.5-0.6,0.6-1c0.2,0,0.5-0.1,0.6,0
	c0.3,0.2-0.1,0.3-0.1,0.5c-0.1,0.4-0.5,0.5-0.8,0.6c-0.1,0.1-0.2,0-0.3,0c-0.1,0.3-0.7,0.2-0.8,0.5c0,0,0,0.1,0,0.1c0,0,0,0,0,0
	c0.3,0,0.8-0.2,1,0.2c0,0,0,0,0,0.1c0.4-0.1,0.7-0.2,1.1-0.2c0.3,0.3,0.8,0.3,1.2,0.3c0.2-0.1,0.4-0.2,0.6-0.3h0
	c0.5-0.4,1.1-0.2,1.6-0.2c0,0,0,0,0,0c0.2,0,0.5,0,0.7-0.1c0,0,0,0,0,0c0,0,0,0,0,0c0.2-0.3,0.5-0.5,0.9-0.4c0,0,0,0,0,0
	c0,0,0,0,0,0c0.1-0.1,0.1-0.1,0.2-0.1c0,0,0,0,0,0c0,0,0,0,0,0c0.1-0.1,0.2-0.2,0.4-0.4c0-0.2,0.2-0.2,0.4-0.3c0.1,0,0.1,0,0.2,0
	c0.1-0.1,0.2-0.3,0.1-0.5c-0.5,0.7-0.9,0.5-1.3,0c0.4-0.9,1.4-0.7,2.1-1.1c0,0,0,0,0,0c0.4-0.8,1.2,0.1,1.7-0.3
	c-0.1,0.2-0.3,0.5-0.4,0.7c0,0,0,0,0,0c0.2,0.4,0.3-0.1,0.5-0.1c0,0,0,0,0,0c0.8-0.6,2-0.8,2.6-0.4c0,0,0,0,0,0
	c0.5,0.1,1,0.1,1.5,0.2c-0.4,0.4-0.8,0.3-1.2,0.2c0,0,0,0,0,0c-0.2,0.3-0.2,0.7-0.6,0.8c0,0,0,0,0,0c0,0,0,0,0,0
	c-0.1,0.1-0.1,0.3-0.2,0.4c0.3,0.2,0.6,0.4,0.9,0.3c0,0,0,0,0,0c0,0,0,0,0,0C28.8,1.2,29.8,2,30.7,2c0,0,0,0,0,0
	c0.1-0.4,0.3-0.5,0.7-0.5c0,0,0,0,0,0c0.2-0.1,0.4-0.2,0.6-0.3c0.3,0.1,0.7-0.2,0.8,0.3c-0.2,0.3-0.6,0.1-0.8,0.2
	c-0.2,0-0.4,0-0.5-0.2c0.1,0.2,0.2,0.5,0.3,0.7c0.1-0.2,0.3-0.3,0.6-0.4c0.2-0.1,0.4-0.1,0.5-0.1c0.3,0,0.5,0.1,0.8,0.3
	c0.1-0.2,0.3-0.2,0.5-0.3c0.2,0,0.4,0.1,0.5,0.3c0,0.1,0.1,0.1,0.1,0.2c1.5-0.3,2.7,0.6,4.1,0.8c0.1,0,0.3,0.1,0.3,0.2
	c-0.1,2.2,1.7,1.2,2.6,1.6C41.9,5,42.1,5,42.1,5.2C42.1,5.2,42.1,5.2,42.1,5.2C42.1,5.2,42.1,5.2,42.1,5.2z M15.9,21.7
	C15.9,21.8,15.9,21.8,15.9,21.7C15.9,21.8,15.9,21.8,15.9,21.7C15.9,21.8,15.9,21.8,15.9,21.7z M17.5,19.5
	C17.5,19.5,17.5,19.5,17.5,19.5C17.5,19.5,17.5,19.5,17.5,19.5C17.5,19.5,17.5,19.5,17.5,19.5C17.5,19.5,17.5,19.4,17.5,19.5
	C17.5,19.4,17.5,19.4,17.5,19.5z M40.4,5.6C40.5,5.6,40.5,5.6,40.4,5.6C40.5,5.6,40.5,5.6,40.4,5.6C40.5,5.6,40.5,5.6,40.4,5.6z
	 M15.4,10.2C15.4,10.2,15.4,10.2,15.4,10.2C15.4,10.2,15.4,10.2,15.4,10.2C15.4,10.2,15.4,10.2,15.4,10.2z M11.1,11.3
	C11.1,11.3,11.2,11.3,11.1,11.3C11.2,11.3,11.2,11.3,11.1,11.3C11.1,11.3,11.1,11.3,11.1,11.3z M13,10.5C13,10.5,13,10.5,13,10.5
	C13,10.5,13.1,10.5,13,10.5C13.1,10.5,13,10.5,13,10.5C13,10.5,13,10.5,13,10.5z M22.3,1.6C22.3,1.6,22.2,1.6,22.3,1.6
	C22.2,1.5,22.2,1.6,22.3,1.6C22.2,1.6,22.2,1.6,22.3,1.6C22.2,1.6,22.3,1.6,22.3,1.6z M18.6,4.1C18.6,4.1,18.6,4,18.6,4.1
	c-0.1,0.3-0.3,0.5-0.7,0.6c-0.2,0.6-0.5,1-0.9,1.2c0,0,0,0,0,0.1C17,6,17,6,17,6c-0.1,0.7-0.4,0.9-1.1,0.7c0,0-0.1,0.1-0.2,0.1
	c0,0,0,0,0,0c0.1,0.3,0,0.6-0.2,0.8c0,0-0.1,0.1-0.1,0.1c0.1,0.1,0.3,0.1,0.4,0.2c0.9-0.5,1.8-1.2,2.9-1.1c0-0.1,0-0.1,0-0.2
	c0-0.2,0.2-0.3,0.4-0.4c0.2-0.1,0.5-0.1,0.7,0c0-0.2,0.3-0.2,0.4-0.4c0.1,0,0.1,0,0.2-0.1c0.1,0,0.1,0,0.2,0c0,0,0-0.1,0-0.1
	c0,0,0,0,0,0c0,0,0-0.1-0.1-0.1c-0.1-0.3,0-0.5,0.3-0.6c0,0,0-0.1,0-0.1c-0.3,0-0.5-0.1-0.7-0.3c-0.3-0.3-0.5,0.1-0.8,0.1
	c0.1-0.1,0.1-0.3,0.2-0.4C19.2,4.4,18.9,4.3,18.6,4.1z M19.4,3.4c0,0-0.1,0.1-0.1,0.1C19.3,3.5,19.3,3.4,19.4,3.4z M15.6,6.1
	c-0.1,0-0.2,0-0.3-0.1c0,0,0,0,0,0c0,0.1,0,0.1,0,0.2C15.4,6.2,15.5,6.2,15.6,6.1C15.6,6.1,15.6,6.1,15.6,6.1z M18.6,13.1
	C18.6,13.1,18.6,13.1,18.6,13.1C18.6,13.1,18.6,13.1,18.6,13.1C18.6,13.1,18.6,13.1,18.6,13.1C18.6,13.1,18.6,13.1,18.6,13.1
	C18.6,13.1,18.6,13.1,18.6,13.1z M39.7,6C39.7,6,39.7,6,39.7,6C39.7,6,39.7,6,39.7,6C39.7,6,39.7,6,39.7,6C39.7,6,39.7,6,39.7,6
	L39.7,6L39.7,6C39.7,6,39.7,6,39.7,6C39.7,6,39.7,6,39.7,6C39.7,6,39.7,6,39.7,6C39.7,6,39.7,6,39.7,6L39.7,6C39.7,6,39.7,6,39.7,6
	C39.7,6,39.7,6,39.7,6C39.7,6,39.7,6,39.7,6z M24.1,25c-0.5-0.1-0.9,0.1-1.2,0.5C23.3,25.3,23.8,25.7,24.1,25z M4.3,12.9L4.3,12.9
	c0.2-0.2,0.3-0.4,0.5-0.6c0,0,0,0,0,0c0,0,0,0,0,0c0.2-0.1,0.5-0.3,0.5-0.8C5,11.7,4.8,11.9,4.5,12c0,0,0,0,0,0c0,0,0,0,0,0
	c-0.2,0.2-0.3,0.3-0.5,0.5h0c-0.4,0.3-0.6,0.6-0.4,1.1C4,13.6,4.2,13.2,4.3,12.9z M32,12.2c0,0.1,0,0.1,0.1,0.2
	c-0.3,0.4-0.7,0.2-1,0.3c0,0.1,0,0.2-0.1,0.3c0,0.7-1.5,1.6-2.4,1.3c-0.5-0.2-1.2-0.2-1.6-0.7c0.2-0.2,0.1-0.7,0.6-0.7
	c0.1,0,0.2,0,0.3,0c0.3-0.1,0.5-0.2,0.8-0.4c0.1,0,0.2,0,0.2,0c0,0,0,0,0,0c0,0,0,0,0,0l0-0.1c0.5-0.5,1.1,0.2,1.6,0c0,0,0,0,0,0
	l0,0c0,0,0,0,0,0c0,0,0,0,0,0c0,0,0,0,0,0c0,0,0,0,0,0c0.4-0.8,0.5-0.8,0.8-0.4c0,0,0,0,0,0c0,0,0,0,0,0C31.5,12,31.7,12.1,32,12.2z
	 M31,12.5C31,12.5,31,12.5,31,12.5L31,12.5C31,12.5,31,12.5,31,12.5C31,12.5,31,12.5,31,12.5C31,12.5,31,12.5,31,12.5z M25.3,27.7
	c-0.5,0.1-1.1-0.2-1.6,0.2c0,0,0,0,0,0c-0.1,0-0.1,0-0.1,0c0,0,0,0,0,0c-0.1,0-0.2,0-0.3,0c-0.2,0.1-0.3,0.2-0.4,0.3
	c-0.1,0.1-0.2,0.3-0.3,0.4c-0.1,0.5,0.4,0.7,0.7,0.9c0.7,0.1,0.6-0.4,0.6-0.8c0,0,0,0,0,0c0.5-0.2,1.1-0.3,1.4-0.8c0,0,0,0,0,0
	C25.3,27.9,25.3,27.8,25.3,27.7C25.3,27.7,25.3,27.7,25.3,27.7z"/>
</svg>
