<svg  xmlns="http://www.w3.org/2000/svg" xmlns:xlink="http://www.w3.org/1999/xlink" x="0px" y="0px"
	 viewBox="0 0 36 43" style="enable-background:new 0 0 36 43;" xml:space="preserve">
<path class="st0" fill="#50535A" d="M16.8,38.6c0.4,0.2,0.8,0.5,1.1,0.8c0,0.1,0,0.2-0.1,0.2c-0.5,0.3-0.9,1.5-1.7,0.4c0,0,0,0,0,0
	c-0.1,0.1-0.1,0.2-0.2,0.2c0,0,0,0,0,0c-0.3,0.2,0.8,1-0.3,0.7l0,0c-0.2,0.1-0.2,0.7-0.6,0.5c-0.4-0.1,0-0.3,0-0.5c0,0,0,0,0,0
	c-0.4-1.1-0.4-1.1-1-0.4c-0.3-0.6,0.2-1.4-0.3-2c0,0,0,0,0,0c0,0,0,0,0,0c-0.2-0.4-0.3-0.8,0.1-1.1c0.2-0.2,0.4-0.1,0.5,0.2
	c0,0,0,0,0,0c0,0,0,0,0,0c0.4-0.4,0.7-0.4,1.1,0.1c0,0,0,0,0,0c0.2,0,0.3,0,0.5,0c0.3,0.3,0.8-0.1,1.1,0.2
	C17,38.3,17,38.5,16.8,38.6z M9.2,34.5c-0.8-0.1-0.8,0.8-1.5,1.2c1.1,0.2,1.5-0.2,1.8-0.7C9.6,34.8,9.5,34.5,9.2,34.5z M35.9,16.7
	C35.9,16.8,35.8,16.8,35.9,16.7c-0.8-0.1-0.4,1.1-1.1,0.9c0,0,0,0,0,0c-0.3,0.1-0.6,0.2-0.8,0.3c-0.8,0.5-1.5,1-0.8,2c0,0,0,0,0,0
	c0,0,0,0,0,0c0,0,0,0,0,0c0,0,0,0,0,0c0,0.5-0.5,0.5-0.8,0.8c0,0,0,0,0,0c0,0.3,0,0.5,0,0.8c0,0,0,0,0,0c-0.1,0.6-0.6,0.1-0.8,0.3
	c0,0,0,0,0,0c0,0,0,0,0,0c-0.2,0.4-0.5,0.2-0.8,0.2c-1,0.2-1.5,0.6-0.8,1.6c-0.8,0.2-1.5-0.5-2.3-0.3c-0.7-0.1-1.3-0.5-1.5-1.2
	c0,0,0-0.1,0-0.1c-0.1,0-0.2,0-0.2,0c0,0.1-0.1,0.1-0.1,0.2c-0.6,0.4-0.8,1-0.9,1.7c-0.2,0.4-0.4,0.7-0.6,1.1
	c-0.9,1.2,0.2,1,0.8,1.1c0.3,0.3,0.2,0.6,0.2,1c0,0,0.1,0,0.1,0c0,0,0,0,0,0c0.1-0.1,0.3-0.1,0.4-0.2c0,0,0-0.1,0-0.1
	c0-0.2,0-0.4,0.1-0.6c0.2-0.3,0.5-0.4,0.9-0.4c0.2,0,0.4,0.1,0.5,0.3c0.3,0.2,0.5,0.3,0.8,0.5c0,0,0,0,0,0c0.2,0,0.5,0,0.7,0
	c0.1,0.1,0.2,0.2,0.3,0.3c0,0,0,0,0,0c0.2,0,0.3,0,0.5,0c0.1,0.3,0.2,0.7,0.3,1c0,0,0,0,0,0c0.4,0.2,1,0.3,0.5,0.9
	c-0.3-0.1-0.5-0.3-0.8-0.4c0,0,0,0,0,0c0,0,0,0,0,0c0,0.1-0.1,0.1-0.2,0.1c0,0,0,0,0,0c-0.3,0.3-0.5,0.6-0.3,1c0,0,0,0,0,0
	c0,0,0,0,0,0c0.1,0.1,0.2,0.2,0.3,0.3c0.1,0.4,0.8,0.5,0.7,1.1c0,0,0,0,0,0c-0.1,0.3-0.1,0.7-0.2,1c0,0,0,0,0,0
	c0.8,0.2,0.6,0.8,0.5,1.4c-0.4-0.1-0.2-1-0.8-0.8c0,0,0,0,0,0c0,0,0,0,0,0c-0.3,0.3,0.1,0.6,0.1,0.9c0,0,0,0,0.1,0
	c0.2,0,0.5,0,0.7,0.1c0.5,1.3-0.7,1.9-1.2,2.7c-0.2,0.5-0.3,1.3-1.2,0.8c-0.1,0.4-0.6,0.6-0.5,1.1c0-0.2-0.1-0.4-0.1-0.7
	c0,0,0,0,0,0c0,0,0,0,0,0c-1,0.2-1.7-0.4-2.6-0.6c0,0,0,0,0,0c-0.2,0-0.3,0-0.5,0.1c0,0,0,0,0,0c-0.2,0.6-0.7,0.9-1.2,1.3
	c-0.3,0.3-0.6,0.6,0,0.8c0.2,0.4-0.3,0.4-0.4,0.6c-0.4,0.5-0.6,0.1-0.9-0.1c0,0,0,0,0,0c-0.3-0.1-0.7-0.2-1-0.1c0,0,0,0,0,0
	c0,0,0,0,0,0c-0.4,0.1-0.6,0.3-0.8,0.6c0.1,0.2,0.5,0.6-0.2,0.5c-0.5,0-1-0.2-1.5-0.3c-0.1-0.1-0.1-0.2-0.1-0.3
	c-0.2-0.1,0-0.4-0.1-0.6c0,0,0,0,0,0c-0.1,0-0.1-0.1-0.2-0.1c-0.5-0.1-0.8-0.4-0.8-1c0-0.1,0-0.1,0.1-0.2c-0.1,0-0.1-0.1-0.2-0.1
	c-0.1-0.3,0.1-0.7-0.1-1c0,0,0,0-0.1,0c0,0,0,0,0,0c0,0.2-0.1,0.5-0.2,0.7c-0.3,0.2-0.5,0-0.6-0.3c-0.1-0.7,0.6-1.6-0.5-2.2
	c-0.2-0.1-0.4-1,0.2-1.5l0,0c0-0.1,0-0.2,0-0.2c0,0,0,0,0,0h0c-0.1-0.9,0.7-0.4,1-0.6l0-0.1l0.1-0.1c0,0,0,0,0,0c0,0,0,0,0,0
	c0-0.4,0.1-0.6,0.5-0.8h0c-0.6-0.2-1.4,0-1.8-0.8c0,0,0,0,0,0c-0.1-0.1-0.2-0.1-0.3-0.2c-0.4,0.1-0.7-0.1-0.9-0.4
	c-0.3,0.3,0,0.6,0,0.9c-0.2,0.9-0.6,1.4-1.6,1.3c0,0,0,0,0,0c-0.1,0.4-0.2,0.8-0.4,1.2c0,0,0,0,0,0c0.2,0.1,0.8,0.1,0.6,0.3
	c-0.9,0.5,1.2,1-0.1,1.4c0,0,0,0,0,0c-0.2,0.3-0.5,0.2-0.7,0.3c0,0,0,0,0,0c0,0,0,0,0,0c0,0.8-1,1.2-0.9,2c-0.7-0.3-0.2-0.9-0.3-1.3
	c0-0.1,0-0.2,0.1-0.2c0,0,0,0,0,0c-0.2-0.5-0.5-1.1,0-1.6c0,0,0,0,0,0c0,0,0,0,0,0c0-0.2,0-0.3,0.1-0.5c0,0,0,0,0,0c0,0,0,0,0,0
	c0.2-0.3,0.4-0.6,0.7-0.8c0,0,0,0,0,0c0-0.1,0-0.2,0-0.3c-0.4-0.4-0.6-1-0.7-1.6c0,0,0,0,0,0c0,0,0,0,0,0C11.2,31,11,30.5,10.8,30
	c0,0,0,0,0,0c0,0,0,0,0,0l-0.1,0l0-0.1c0,0,0,0,0,0c-0.2-0.1-0.5-0.3-0.7,0c-0.4,0.5-0.4,0-0.5-0.2c0,0,0,0,0,0
	c-0.1,0-0.2,0-0.3,0.1c0,0,0,0,0,0c-0.1,0.4-0.5,0.4-0.8,0.5c0,0,0,0,0,0c0,1.7-1.4,1.6-2.7,1.9c0.7-1,0.8-2.2,1.5-3c0,0,0,0,0,0
	c1.1-0.9,0.3-2,0.4-3c-0.4-0.1-0.5,0.3-0.8,0.3C6.6,26.7,6.4,27,6,27c0,0,0,0,0,0c0,0.1-0.1,0.1-0.2,0.1c0,0,0,0,0,0c0,0,0,0,0,0
	c-0.1,0.3-0.1,0.7-0.6,0.7c0,0,0,0,0,0c-0.4,0.1-0.8,0.4-1.1-0.2h0c0,0,0,0,0,0C3.3,28.2,2.6,28,2,27.3c-0.4-0.6-0.9-1.2-1.3-1.8
	c0,0,0,0,0,0c-0.5-0.4-0.4-0.9-0.2-1.3c0,0,0,0,0,0c0.3-1,0.2-2.1,1-2.9l0,0c0-0.2,0.1-0.3,0.1-0.5c0.4-0.6-0.1-1.2,0-1.7
	c0-0.1,0-0.1,0.1-0.1c-0.2,0-0.3-0.1-0.4-0.3c0.1-0.3,0.2-0.7,0.6-0.7c0,0,0,0,0,0c0.3-0.2,0.5-0.4,0.4-0.8c-0.3-1,0.1-1.7,1.2-2.1
	c0,0,0,0,0,0c0.1,0,0.1-0.1,0.2-0.1c0,0,0,0,0,0c-0.6-0.8,0-1.1,0.6-1.3c0.1,0.1,0.1,0.1,0.2,0.2c0,0,0,0,0.1-0.1
	c0.4-0.2,0.8-0.3,1.3-0.3c0.1,0.1,0.2,0.1,0.3,0.1c0.3-0.1,0.6-0.3,0.8,0c0.4-0.3,0.1-0.7,0.3-1.1c0,0,0,0,0,0
	c-0.1-0.2,0-0.3,0.2-0.3c0,0,0,0,0,0l0,0c0-0.1,0-0.1,0.1-0.2c0,0,0,0,0,0c0,0,0,0,0,0c-0.3-0.2-0.1-0.7-0.5-0.9l0,0
	c-0.3-0.2-0.5-0.3-0.8-0.5c0,0,0,0,0,0c-0.3,0-0.7-0.1-1-0.1c0.1-0.3,0.3-0.4,0.5-0.5c0.2,0.1,0.3,0.2,0.5,0.3c0,0,0,0,0,0
	c0.4,0.1,0.9-0.1,1,0.5c0.2,0.1,0.4,0.2,0.5,0.3c0,0,0,0,0,0c0,0,0,0,0,0c0.3,0,0.5,0,0.8-0.1c0.1,0.1,0.3,0.2,0.4,0.4
	C8.9,11.5,9,11.4,9,11.2c0-0.2,0-0.3,0.2-0.5c0.1,0,0.1,0,0.2,0c0.1,0.2,0.2,0.3,0.3,0.5c0.1-0.2,0.2-0.4,0.3-0.5c0-0.4,0-0.9,0-1.3
	c0,0,0,0,0,0c0-0.4,0-0.7,0-1.1c0,0,0,0,0,0c0-0.1,0-0.2-0.1-0.3c0,0,0,0,0,0C9.8,8.3,9.7,8.4,9.5,8.5c0,0.1-0.1,0.2-0.1,0.4
	C8,9.5,8.4,8.5,8.4,7.8c0,0,0,0,0,0c0,0,0,0,0,0c0.3-0.6,0.7-1.2,1.3-1.6c0,0,0,0,0,0h0C9.7,5.9,9.8,5.7,10,5.5c0,0,0,0,0,0
	c0.3-1.3,0.9-2.1,2.4-1.6c0,0,0,0,0,0c0.3,0,0.5,0,0.8,0l0,0c-0.3-0.8,0.3-1,0.8-1.4c0,0,0,0,0,0c0,0,0,0,0,0c0.3-0.2,0.7-0.3,1-0.5
	c0,0,0,0,0,0c0,0,0,0,0,0c0.2-0.2,0.3-0.4,0.5-0.6c0,0,0,0,0,0c0,0,0,0,0,0c-0.2-0.3-0.7-0.3-0.7-0.7c0-0.4,0.5,0,0.6-0.3
	c0-0.5,0.2-0.6,0.5-0.3c0.3,0.3,0.3,0.7,0.3,1.1c0,0,0,0,0,0c0.1,0.2,0.2,0.5,0.3,0.7c0.5,0.5,0.9,0.9-0.3,1c-0.3,0-0.3,0.4-0.2,0.6
	c0.1,0.3-0.2,0.5-0.4,0.5c-0.1,0-0.3,0-0.4,0c-0.1,0-0.2-0.1-0.3-0.2c0,0,0,0.1,0,0.1c0,0.1-0.1,0.2-0.2,0.2c0.1,0,0.2,0.1,0.3,0.2
	c0,0,0.1,0,0.1,0c0.2-0.2,0.5-0.1,0.7,0c0.1,0,0.1,0,0.2,0c0-0.4,0.4-0.4,0.7-0.5C16.7,3.9,16.9,4,17.1,4c0.5,0,0.5,0.4,0.5,0.7
	c0,0.1-0.1,0.2-0.2,0.3c0.3-0.1,0.5-0.1,0.8-0.2c0.1,0.2,0.1,0.3,0.2,0.5c0,0,0,0,0,0c0,0,0,0,0,0c0,0,0,0,0,0c0,0,0,0,0,0
	c0,0.4,0,0.7,0,1.1c0,0,0,0,0,0c0,0,0,0,0,0C19.1,7,20,6.5,20.8,6.8c0,0,0,0,0,0c0.2,0,0.4,0,0.5,0c0,0,0,0,0,0c0,0,0,0,0,0
	c0.4,0.1,0.9-1.1,1.3,0.2c0.1,0.4,0.9-0.5,1.3,0c0-1.1,0.7,0,1-0.3c0,0,0,0,0,0c0,0,0,0,0,0c-0.3-0.4-0.1-0.8,0.2-1.1
	c0.6,0.1,1.1-0.7,1.7-0.2l0,0c0,0,0,0,0,0c0.3,0,0.5,0.2,0.9,0.1c0.5-0.1,1-0.1,0.5,0.7c-0.4,0.6-0.4,1.3,0,2c0.2,0,0.4,0,0.5-0.2
	c0.5-0.4,0.8,0.2,1.2,0.3c0.2,0.1,0.3,0.4,0.6,0.4C31,9,31.4,8.5,31.9,8.5c0.2,0.2,0.3,0.5,0.4,0.7c0.1,0.3,0.3,0.5,0.6,0.7
	c0.3,1,1.4,0.7,2,1.2c0,0.3-0.5,0.4-0.7,0.7c1.5,0.6,0.2,2,0.9,2.8c0,0,0,0,0,0c0.3,0,0.4,0.2,0.5,0.5c-0.2,0-0.5,0-0.7,0
	c0,0.1,0,0.1,0,0.2c0,0.1,0,0.1,0,0.2c0.1,0.2,0.3,0.4,0.4,0.6c0.1,0,0.1,0,0.2,0c0.1,0,0.2,0.1,0.2,0.2c0.1,0.1,0.2,0.1,0.3,0.2
	C35.9,16.6,35.9,16.7,35.9,16.7z M19.5,24.2C19.5,24.2,19.5,24.2,19.5,24.2C19.5,24.2,19.5,24.2,19.5,24.2
	C19.5,24.2,19.5,24.2,19.5,24.2z M19.5,25c0,0,0.1,0,0.2-0.1c0,0,0,0,0,0C19.6,25,19.6,25,19.5,25z M15,21.5L15,21.5
	C15,21.5,15,21.5,15,21.5C15,21.5,15,21.5,15,21.5C15,21.5,15,21.5,15,21.5C15,21.5,15,21.5,15,21.5C15,21.5,15,21.5,15,21.5z
	 M10.1,15.2C10.1,15.2,10.1,15.2,10.1,15.2C10.1,15.2,10.1,15.2,10.1,15.2C10.1,15.2,10.1,15.2,10.1,15.2z M22.1,32.6
	c-0.1,0-0.1,0-0.1,0C22,32.6,22,32.6,22.1,32.6C22.1,32.6,22.1,32.6,22.1,32.6C22.1,32.6,22.1,32.6,22.1,32.6z M8.9,13.2
	c0,0-0.1,0-0.1,0c0,0,0,0,0,0.1c0,0.3,0,0.7-0.2,1c0.1,0,0.2,0.1,0.2,0.1c0-0.1,0-0.1,0.1-0.2c0,0,0.1,0,0.1,0
	C9,13.8,9.4,13.3,8.9,13.2z M12.9,25.4C12.9,25.5,12.9,25.5,12.9,25.4L12.9,25.4C12.9,25.5,12.9,25.5,12.9,25.4
	C12.9,25.5,12.9,25.5,12.9,25.4z M12.9,25.5C12.9,25.5,12.9,25.5,12.9,25.5C12.9,25.5,12.9,25.5,12.9,25.5
	C12.9,25.5,12.9,25.5,12.9,25.5z M18.4,35.8L18.4,35.8C18.4,35.8,18.4,35.8,18.4,35.8C18.4,35.8,18.4,35.8,18.4,35.8
	C18.4,35.8,18.4,35.8,18.4,35.8C18.4,35.8,18.4,35.8,18.4,35.8C18.4,35.8,18.4,35.8,18.4,35.8z M7.8,17.7c0.6,0.3,0.5,1,0.6,1.5
	C8.5,19.5,8.6,19.9,9,20c0.4,0.1,0.6-0.3,0.8-0.6c0-0.1,0.1-0.1,0.1-0.1c-0.1-0.3-0.1-0.6-0.2-0.9c-0.3-0.3,0-0.7,0-1c0,0,0,0,0,0
	c-0.1,0-0.2,0.1-0.3,0.1C8.8,17.3,8.3,17.1,7.8,17.7z M25.3,27.9L25.3,27.9c-0.4,0-0.9,0-1.3,0.1c0,0,0,0,0,0
	c-0.3,0.6,0.3,0.8,0.6,1.1c0.1,0.1,0.1,0.2,0.1,0.3c-0.2,0.4-0.1,0.9-0.5,1.2c0,0-0.1,0-0.1,0c0,0.3,0.1,0.7-0.5,0.6c0,0,0,0,0,0
	c0,0,0,0,0,0c-0.2,0.2-0.4,0.4-0.6,0.6c0.1,0.3,0.2,0.5,0.3,0.8c0,0,0,0,0,0c1,0,0.6,1,1,1.3c0,0.1,0,0.2,0,0.3
	c-0.1,0.4-0.4,0.7-0.7,0.9c0,0,0.1,0,0.1,0.1c0,0,0,0,0,0c0.2-0.1,0.3-0.1,0.5-0.1c0,0,0,0,0,0c0.2-0.4,0.3-0.9,0.5-1.2
	c0,0,0.1,0,0.1,0c-0.1,0-0.1-0.1-0.1-0.1c0-0.1,0-0.1,0.1-0.1c0-0.8,0-1.6,0.1-2.3c0,0,0,0,0,0c0-0.5-0.1-0.9,0.3-1.3
	c0.1,0,0.2,0,0.3,0c0-0.1,0-0.1,0-0.2c0.1-0.1,0.1-0.2,0.2-0.3c0,0,0-0.1,0.1-0.1c0-0.4,0.1-0.7-0.1-1.1l0,0
	C25.4,28.2,25.3,28.1,25.3,27.9z M12.7,5.7c0.3,0.2,0.6,0.4,0.5,0.8c0,0,0,0,0,0c0,0,0.1,0,0.1,0c0-0.1,0-0.1,0-0.2
	c0-0.2,0.1-0.3,0.3-0.4c0.4-0.1,0.7,1,1.2,0.1c0,0,0.1,0,0.1,0c-0.2-0.1-0.3-0.2-0.3-0.4c-0.2,0.1-0.4,0.1-0.5,0
	c-0.5-0.1-0.9-0.3-1-0.8c-0.4,0.1-0.6-0.1-0.8-0.4C12.1,4.8,12.2,5.3,12.7,5.7z M7.9,29.6c0-0.2,0-0.3,0-0.5
	c-0.1,0.1-0.2,0.2-0.3,0.2C7.8,29.3,7.9,29.4,7.9,29.6z M9.2,25.9c0.1,0,0.2,0,0.2,0c0.4-0.3,0.9-0.6,1.3-1c0,0,0,0,0,0c0,0,0,0,0,0
	c0.1-0.4,0.6-0.5,0.6-1l0,0c0,0,0,0,0,0c-0.4-0.8-1.3-0.9-1.8-1.5c0,0-0.1,0-0.1,0c-0.1-0.2-0.2-0.4-0.2-0.6
	c-0.5,0.5-1.2,0.8-1.6,1.4c-0.4,0.5-0.9,0.4-1.4,0.3c0,0,0,0,0,0c0,0.2,0.2,0.4-0.1,0.6c0,0,0,0.1-0.1,0.1c-0.1,0.1-0.3,0.2-0.5,0.3
	c0,0,0,0,0,0c0,0.2,0,0.3,0.1,0.5c-0.3,0.4-1.2,0-1.2,0.8c0,0,0,0,0,0c0,0.1,0,0.3,0,0.4c0,0,0,0,0.1,0c0.3-0.1,0.6-0.1,0.8,0.3
	c0,0.1,0,0.1,0,0.2c0,0,0,0,0,0c0.1-0.3,0.3-0.4,0.6-0.4c0,0,0-0.1,0-0.1c0.1-0.3,0.3-0.5,0.6-0.6c0.1,0,0.1,0,0.2,0
	c0.2-0.5,0.6-0.7,1.1-0.7c0.3,0,0.7,0,1,0.1c0.5,0.4,0.1,0.9,0,1.3C8.9,26,9,25.9,9.2,25.9z M17.1,32.8c0,0.1,0,0.1-0.1,0.2
	C17,32.9,17.1,32.9,17.1,32.8L17.1,32.8z M28.2,36.9C28.2,36.9,28.2,36.9,28.2,36.9C28.2,36.9,28.2,36.9,28.2,36.9
	C28.2,36.9,28.2,36.9,28.2,36.9z M30,27.9L30,27.9C29.9,27.9,29.9,27.9,30,27.9C29.9,27.9,29.9,27.9,30,27.9
	C30,27.9,30,27.9,30,27.9z M29.3,26.8L29.3,26.8C29.2,26.8,29.2,26.8,29.3,26.8C29.2,26.9,29.2,26.8,29.3,26.8z M20.6,4.3
	c-0.7,0-1.1,0.4-1.5,0.8C19.8,5.3,20.2,5,20.6,4.3z M25.2,24c-0.1,0.2-0.1,0.3,0,0.5c0.3-0.4,0.8,0.6,1.1-0.1c0-0.1,0-0.1-0.1-0.2
	C25.9,24.2,25.6,24.2,25.2,24z M10.8,33.4c-0.1,0.1-0.2,0.3-0.2,0.4c0,0.2,0,0.4,0.3,0.3c0.3,0,0.3-0.3,0.3-0.5
	C11,33.5,11,33.3,10.8,33.4z M0.7,20c0.4,0.4,0.5,0,0.6-0.3c0-0.1-0.1-0.2-0.1-0.3c0,0,0,0,0,0C1.1,19.3,1,19.2,1,19.1
	c-0.2,0.5-0.7,0.2-1,0.4C0.1,19.9,0.4,20,0.7,20L0.7,20z M19.6,42.2c0.4,0.2,0.7,0.3,1,0C20.4,42.1,20.1,41.9,19.6,42.2z M6.5,33.4
	C6.5,33.4,6.5,33.4,6.5,33.4c-0.5-0.7-0.7,0-1,0.3c0,0,0,0,0,0c-0.3,0.1-0.3,0.3-0.3,0.5l0,0c0,0,0,0,0,0c-0.4,0.4-0.8,0.7-0.5,1.3
	c0,0,0,0,0,0C4.8,35.8,4.9,36,5,36.3c0.3,0.2,0.4-0.1,0.5-0.2c0-0.1,0-0.2,0-0.2c0,0,0,0,0,0c0.4-0.2,0.6-0.6,0.8-0.9c0,0,0,0,0,0
	C6.7,34.4,6.6,33.9,6.5,33.4z"/>
</svg>
