<svg width="96" height="43" viewBox="0 0 96 43" fill="none" xmlns="http://www.w3.org/2000/svg">
<g clip-path="url(#clip0_208_12317)">
<path d="M62.586 31.281C60.7926 31.7553 58.4565 31.9905 56.4252 31.9905C51.2117 31.9905 47.7598 29.2159 47.7598 24.138C47.7598 19.3322 50.9752 16.2189 55.6812 16.2189C56.7304 16.2189 57.8465 16.3523 58.5241 16.6923V9.71582H62.586V31.281ZM58.5241 20.2795C57.881 19.9747 57.0348 19.8055 56.0179 19.8055C53.5485 19.8055 51.8893 21.3293 51.8893 24.0031C51.8893 26.8808 53.6831 28.5061 56.5605 28.5061C57.0684 28.5061 57.8468 28.4712 58.5245 28.3366V20.2795H58.5241ZM95.918 31.281C94.1229 31.7553 91.7875 31.9905 89.7562 31.9905C84.5437 31.9905 81.0898 29.2159 81.0898 24.138C81.0898 19.3322 84.3065 16.2189 89.0125 16.2189C90.0617 16.2189 91.1788 16.3523 91.8561 16.6923V9.71582H95.918V31.281ZM91.8561 20.2795C91.212 19.9747 90.3655 19.8055 89.3505 19.8055C86.8798 19.8055 85.2213 21.3293 85.2213 24.0031C85.2213 26.8808 87.0148 28.5061 89.8925 28.5061C90.3997 28.5061 91.1788 28.4712 91.8564 28.3366V20.2795H91.8561ZM68.9738 20.2463C69.6505 19.975 70.5968 19.8742 71.4094 19.8742C73.915 19.8742 75.6414 21.3293 75.6414 23.9347C75.6414 27.0082 73.7291 28.3987 71.1723 28.4345V31.9879C71.2396 31.9879 71.3076 31.9905 71.3766 31.9905C76.6226 31.9905 79.7716 29.0464 79.7716 23.8001C79.7716 19.027 76.4209 16.2186 71.4781 16.2186C68.9738 16.2186 66.5017 16.7941 64.8771 17.4704V37.7476H68.9738V20.2463Z" fill="#414042"/>
<path d="M25.7133 19.2506C25.5452 19.3488 25.282 19.3409 25.1178 19.2394L24.1521 18.6653C24.0736 18.6166 24.0013 18.5385 23.9468 18.4449C23.9439 18.4393 23.9402 18.434 23.9373 18.4284C23.8755 18.3279 23.8404 18.2215 23.8368 18.1243L23.8121 16.9983C23.8049 16.8084 23.9301 16.5772 24.0986 16.479L35.7077 9.71568L19.4172 0.837104C19.2378 0.737248 19.001 0.689623 18.7645 0.688966C18.5277 0.688638 18.2905 0.737905 18.1109 0.837104L1.81995 9.71601L20.0699 20.3401C20.239 20.4328 20.3675 20.6525 20.3675 20.8503V36.3492C20.3675 36.544 20.2285 36.7673 20.058 36.8583L19.0759 37.4036C18.9941 37.4469 18.8906 37.4699 18.7819 37.4699C18.7757 37.4699 18.7691 37.4699 18.7632 37.4699C18.6453 37.4726 18.5356 37.4492 18.4498 37.4036L17.4644 36.858C17.2969 36.769 17.1603 36.5443 17.1603 36.3492V22.5327C17.1514 22.4315 17.0775 22.308 16.9964 22.2617L0.917969 12.9019V31.2345C0.917641 31.6448 1.20702 32.1507 1.56144 32.3583L18.121 42.1244C18.2981 42.2278 18.5313 42.2797 18.7642 42.2791C18.9974 42.2784 19.2303 42.2295 19.4073 42.1244L35.9689 32.3583C36.322 32.1484 36.6107 31.6455 36.61 31.2345V12.9019L25.7133 19.2506Z" fill="url(#paint0_linear_208_12317)"/>
</g>
<defs>
<linearGradient id="paint0_linear_208_12317" x1="1.09159" y1="35.9854" x2="19.1645" y2="20.8204" gradientUnits="userSpaceOnUse">
<stop stop-color="#A90034"/>
<stop offset="0.2717" stop-color="#BB0033"/>
<stop offset="0.7226" stop-color="#D30032"/>
<stop offset="1" stop-color="#DC0032"/>
</linearGradient>
<clipPath id="clip0_208_12317">
<rect width="95" height="42" fill="white" transform="translate(0.917969 0.688965)"/>
</clipPath>
</defs>
</svg>
