<svg width="17" height="25" viewBox="0 0 17 25" fill="none" xmlns="http://www.w3.org/2000/svg">
<path d="M16.5687 7.20572C15.8629 3.80274 12.9605 1.21768 9.49735 0.919513C4.79226 0.514657 0.847656 4.21307 0.847656 8.83335C0.847656 9.46799 0.924261 10.0807 1.06377 10.6716H1.03641L1.08564 10.7619C1.33731 11.7686 5.97949 20.1803 7.93538 23.6981C8.31014 24.3711 9.27577 24.3711 9.65053 23.6981C11.6064 20.1803 16.2486 11.7713 16.5003 10.7619L16.5495 10.6716H16.5221C16.7793 9.58562 16.8203 8.41755 16.5687 7.20572ZM8.7916 12.0366C6.92324 12.0366 5.40777 10.5212 5.40777 8.65281C5.40777 6.78445 6.92324 5.26898 8.7916 5.26898C10.66 5.26898 12.1754 6.78445 12.1754 8.65281C12.1754 10.5212 10.66 12.0366 8.7916 12.0366Z" fill="#2CA99B"/>
</svg>
