<svg xmlns="http://www.w3.org/2000/svg" width="10.2" height="10.2" viewBox="0 0 10.2 10.2" xml:space="preserve">
  <path d="M10.2 4.8C10 2.3 7.9.1 5.4 0 1-.3-1.8 5.3 1.3 8.5c3.1 3.6 9.2.9 8.9-3.7zM4.7 1v1.5c-.4 0-.7-.1-1-.2.3-.4.6-.9 1-1.3zM3.6 7.6c.4 0 .8-.1 1.1-.1v1.7c-.4-.5-.8-1-1.1-1.6zm1.2-2.2v1.4c-.5 0-.9.1-1.4.2-.2-.5-.3-1-.4-1.6h1.8zm-.1-2.2v1.6H3c0-.6.2-1.2.4-1.8.5.1.9.2 1.3.2zM2.2 1.8c.6-.5 1.2-.8 1.9-1-.4.4-.7.9-1 1.4-.3-.1-.7-.3-.9-.4zm-1.5 3c0-.7.5-2 1-2.5.4.2.8.4 1.1.6-.2.6-.4 1.3-.4 2-.6-.1-1.2-.1-1.7-.1zm2.3 3c.3.6.6 1.1 1.1 1.5-.8-.2-1.4-.5-2-1.1.3-.1.6-.2.9-.4zm-.2-.5c-.4.1-.8.3-1.2.5C1 7.1.7 6.3.7 5.4h1.7c0 .7.2 1.3.4 1.9zm2.6 1.9V7.5c.3 0 .8.1 1.1.2-.3.5-.6 1-1.1 1.5zm1.7-7c-.3-.5-.6-1-1-1.4.7.2 1.3.5 1.9 1-.3.1-.6.3-.9.4zm.7 2.6c0-.7-.2-1.3-.4-2 .4-.2.7-.4 1.1-.6.6.7.9 1.6 1 2.5-.6.1-1.2.1-1.7.1zm-.7.6c0 .6-.1 1.1-.3 1.7-.5-.2-.9-.2-1.4-.3V5.4h1.7zm-1.7-.6V3.2c.4 0 .9-.1 1.3-.2.3.6.4 1.2.4 1.8H5.4zm2.7 3.5c-.6.5-1.2.9-2 1.1.4-.5.8-1 1.1-1.6.3.2.6.3.9.5zm1.4-2.9c-.1.9-.4 1.7-1 2.4-.3-.2-.7-.4-1.1-.5.2-.6.3-1.2.4-1.8.5-.1 1.1-.1 1.7-.1zm-3.1-3c-.3.1-.7.1-1 .2V1.1c.4.3.8.8 1 1.3z" fill="#fff"/>
</svg>
