<svg width="288" height="29" fill="none" xmlns="http://www.w3.org/2000/svg"><path d="M22.2 8.5h-6L7 25.7V8.5H.5v20.2h12.3l9.4-17.6v17.6h6.5V8.5h-6.5ZM249.9 8.5h-6l-9.2 17.2V8.5h-6.5v20.2h12.2l9.5-17.6v17.6h6.5V8.5h-6.5ZM56.2 18.6H41v-10h-6.5v20.1H41v-5.5h15.2v5.5h6.5V8.5h-6.5v10.1ZM91 8.5H78.1l-7.7 14.6h-5.2v5.6h36.3l3-5.6h-5.9L91 8.5Zm-8.4 5.7h4l4.7 8.9H78l4.7-9ZM142.8 8.5h-7.4l-10.9 20.2h28.2l-3-5.6H135l4.7-9h13l-3-5.6h-7ZM177.3 8.5h-18.8v20.2h6.5V14.2h5.8v14.5h6.5V14.2h5.8v14.5h6.5V14.2l-3-5.7h-9.3ZM185.6 6.3l-3-5.6h-24v5.6h27ZM217.1 8.5h-20.8v20.2h6.5V14.2h11.3l-2.4 4.4H207l-3 5.7h12.1l8.4-15.8h-7.4ZM121.2 8.5l-5.4 10.1h-2.6l-5.4-10h-7.4l7.8 14.6h5.1l-3 5.5h7.5l10.8-20.2h-7.4ZM281.3 8.5H259.6l8.4 15.8-2.3 4.4h7.4l2.3-4.4h4.7l-3-5.7h-4.7l-2.4-4.4h11.3v14.5h6.5V8.5h-6.5Z" fill="#000"/></svg>