<svg width="22" height="19" viewBox="0 0 22 19" fill="none" xmlns="http://www.w3.org/2000/svg">
<path d="M8.35881 17.2638C8.42319 16.3487 8.48513 15.4473 8.55113 14.546C8.59595 13.9267 8.65545 13.3082 8.6913 12.688C8.7076 12.4085 8.7679 12.1885 8.99608 11.9839C11.2803 9.93437 13.5532 7.87342 15.8268 5.81247C16.5179 5.18579 17.2032 4.55259 17.8886 3.92021C17.9749 3.84035 18.1127 3.75641 18.0401 3.62194C17.9668 3.48667 17.8177 3.51356 17.6799 3.5429C17.2839 3.62683 16.984 3.89169 16.658 4.09705C13.9068 5.82632 11.1638 7.567 8.41749 9.30443C7.66612 9.77953 6.91395 10.2546 6.16177 10.7297C6.02486 10.8161 5.90996 10.8666 5.72008 10.8047C4.18965 10.306 2.65188 9.82924 1.11656 9.34517C0.744137 9.22782 0.286148 9.13574 0.260886 8.67286C0.234808 8.20265 0.669164 7.99403 1.04077 7.84082C2.10832 7.40076 3.18647 6.98759 4.26381 6.57279C6.44373 5.73342 8.62692 4.90219 10.8069 4.06282C12.9998 3.21937 15.1903 2.37022 17.3825 1.52514C18.3343 1.15842 19.2886 0.799039 20.2404 0.430692C20.6593 0.268522 21.0863 0.172361 21.4669 0.477143C21.8678 0.798224 21.9233 1.24562 21.8198 1.72969C21.2762 4.28041 20.7392 6.83276 20.1956 9.38429C19.6464 11.9611 19.0938 14.5371 18.5405 17.1131C18.5071 17.2695 18.4696 17.4276 18.415 17.5784C18.1102 18.4267 17.4298 18.6345 16.6931 18.095C15.1472 16.9639 13.602 15.8304 12.0684 14.6821C11.8328 14.5061 11.7065 14.5167 11.4987 14.7221C10.7384 15.4726 9.94873 16.1938 9.18352 16.9403C8.95371 17.1652 8.69212 17.2434 8.35881 17.2638Z" fill="#FEFEFE"/>
</svg>
