<svg width="30" height="19" viewBox="0 0 30 19" fill="none" xmlns="http://www.w3.org/2000/svg">
<path d="M18.291 9.07975C18.0035 9.17922 17.7051 9.26386 17.3954 9.33143L17.3952 9.33148C17.2839 9.35574 17.0522 9.40359 16.7817 9.4042C16.5033 9.40483 15.9757 9.35701 15.4665 8.98051C14.9401 8.59126 14.7342 8.07565 14.6531 7.75403C14.5779 7.4561 14.5742 7.18928 14.5754 7.04828M18.291 9.07975L16.2052 2.28444L16.2068 2.28442C16.2161 2.28428 16.2141 2.28465 16.2028 2.28448M18.291 9.07975L17.761 9.40185L20.8661 11.0514C23.3034 12.3462 25.0879 14.0944 26.275 16.3645M18.291 9.07975L26.275 16.3645M14.5754 7.04828L16.5753 7.06441L14.5754 7.04972C14.5754 7.04924 14.5754 7.04876 14.5754 7.04828ZM14.5754 7.04828C14.5829 6.02582 14.5829 5.00239 14.583 3.97045L14.583 3.87465C14.5831 3.35099 14.5832 2.82519 14.5843 2.29813M14.5843 2.29813C15.1241 2.29675 15.6636 2.29213 16.2028 2.28448M14.5843 2.29813C14.3578 2.2987 14.1311 2.29871 13.9045 2.29813L16.2028 2.28448M14.5843 2.29813C14.5855 1.75598 14.5878 1.21249 14.5923 0.668609L16.1824 0.681809L16.1827 0.681811L16.5923 0.685211L16.1827 0.681941L16.1824 0.681939L14.5923 0.669242C14.5923 0.674438 14.5921 0.70474 14.5965 0.752492C14.6008 0.79952 14.6111 0.881504 14.6382 0.985191C14.6959 1.20521 14.8374 1.54616 15.166 1.84199C15.484 2.12822 15.8145 2.22492 15.9848 2.25885C16.0933 2.28047 16.1753 2.28406 16.2028 2.28448M26.275 16.3645C25.9941 16.3645 25.7138 16.3644 25.4337 16.3642C24.072 13.4642 21.8675 11.2174 18.4942 10.2419L18.4935 10.2417C18.2239 10.1638 17.9673 10.1137 17.7857 10.0791C17.7547 10.0732 17.7259 10.0678 17.6989 10.0626C17.5447 10.0334 17.4498 10.0154 17.3546 9.99212L17.3539 9.99196C17.3514 9.99136 17.3487 9.99069 17.3457 9.98995C17.1671 9.94603 16.0923 9.68182 15.2313 10.5314C14.8308 10.9266 14.69 11.3744 14.6353 11.6277C14.5815 11.8774 14.5781 12.0957 14.5787 12.2103C14.5824 13.0161 14.5825 13.8405 14.5825 14.6702C14.5826 15.2163 14.5826 15.7648 14.5837 16.3117C12.7683 16.1676 11.075 15.7551 9.49443 14.9632L9.49435 14.9632C7.03975 13.7336 5.29655 11.8069 4.09226 9.24249L26.275 16.3645ZM16.2127 16.3719C16.2107 16.372 16.2086 16.372 16.2066 16.372L16.2127 16.3719ZM16.2127 16.3719L16.2161 18.007V18.0073L16.2168 18.3719L16.216 18.0073L16.216 18.007L16.2122 16.3719C16.2124 16.3719 16.2126 16.3719 16.2127 16.3719ZM3.30158 2.29306C3.40114 3.42576 3.57489 4.57064 3.86117 5.71522C4.40944 7.90756 5.31484 10.1001 7.00149 11.9737C8.05834 13.1479 9.36132 14.0919 10.9729 14.6274L10.9755 14.6282C11.0841 14.6641 11.3256 14.7407 11.6197 14.7617C11.9295 14.7838 12.5382 14.7596 13.1039 14.3085C13.6464 13.8759 13.8068 13.3197 13.8596 13.0696C13.9135 12.8148 13.9147 12.5888 13.9145 12.4897C13.9145 12.4893 13.9145 12.489 13.9145 12.4887L11.9145 12.4938M3.30158 2.29306L16.1768 0.284644C14.8875 0.302975 13.5975 0.303654 12.3082 0.283965C11.9871 0.278534 11.8988 0.351858 11.9002 0.685211C11.9075 2.92316 11.9085 5.16134 11.9095 7.3996C11.91 8.50351 11.9104 9.60744 11.9117 10.7114C12.0173 10.755 12.1247 10.795 12.2341 10.8314L11.9132 11.7973C11.9136 12.0295 11.914 12.2616 11.9145 12.4938M3.30158 2.29306C2.98385 2.29369 2.6663 2.29379 2.34898 2.29345C2.56843 4.77002 3.08199 7.09048 4.09217 9.24229L3.30158 2.29306ZM11.9145 12.4938C11.9151 12.7626 11.8642 12.8156 11.6035 12.7294M11.9145 12.4938L11.6035 12.7294M9.91333 11.8927C9.3935 11.5391 8.92075 11.1165 8.48792 10.6356C7.09136 9.08422 6.30109 7.22803 5.8014 5.22995C5.4212 3.70983 5.25555 2.1612 5.20395 0.598988L9.91333 11.8927ZM9.91333 11.8927C9.91367 12.0921 9.91404 12.2915 9.91445 12.491M9.91333 11.8927L10.0281 11.9691M10.0281 11.9691C9.98187 12.0879 9.95822 12.185 9.94602 12.2427C9.92071 12.3625 9.91538 12.4566 9.91445 12.491M10.0281 11.9691C10.3347 12.169 10.6575 12.3453 10.9979 12.4957C10.9982 12.4958 10.9985 12.496 10.9988 12.4961C11.1945 12.5825 11.396 12.6604 11.6035 12.7294M10.0281 11.9691L11.6035 12.7294M9.91445 12.491C9.91405 12.5062 9.9145 12.5098 9.91447 12.4988M9.91445 12.491L9.91447 12.4988M16.4063 13.8781L16.407 13.8783C16.4255 13.8828 16.4878 13.898 16.5824 13.9077C16.5823 13.6583 16.5821 13.4088 16.5816 13.1593L16.4063 13.8781ZM16.4063 13.8781C16.4652 13.8925 16.5244 13.906 16.5824 13.9186L16.4063 13.8781ZM9.91447 12.4988L9.91447 12.4979L9.91447 12.4988ZM16.5461 5.42262C16.5451 5.42285 16.544 5.42309 16.543 5.42332L16.5461 5.42262ZM18.5752 7.08054L18.5752 7.0791C18.5752 7.07992 18.5752 7.0804 18.5752 7.08054ZM3.20493 0.661652L3.20501 0.664276C3.20424 0.651037 3.20453 0.649007 3.20493 0.661652L3.20493 0.661652ZM11.9132 11.7931C11.9126 11.4529 11.9121 11.1126 11.9117 10.7724C12.0273 10.7811 12.1132 10.7995 12.1555 10.8095C12.201 10.8204 12.229 10.8297 12.2315 10.8305L11.9132 11.7931ZM2.22993 0.382942C2.23017 0.385192 2.23126 0.395188 2.23232 0.411984L2.22993 0.382942ZM0.496643 2.28736C0.492551 2.28737 0.489763 2.28734 0.488371 2.28732L0.490862 2.28733C0.492789 2.28734 0.494716 2.28735 0.496643 2.28736ZM18.5787 12.1899C18.5787 12.1904 18.5787 12.1912 18.5787 12.192L18.5787 12.1899ZM16.5428 5.42336L16.5818 5.60229L16.5428 5.42336ZM23.7745 4.92738C23.1147 5.73137 22.3902 6.43482 21.576 7.03345C23.0398 5.6816 24.1214 4.08106 24.8615 2.2917C25.049 2.29222 25.2364 2.2925 25.4237 2.29263C25.0065 3.22366 24.4543 4.09834 23.7745 4.92738ZM25.265 1.19553C25.2648 1.19616 25.2627 1.20336 25.2583 1.21614C25.2604 1.20967 25.2625 1.2032 25.2646 1.19672L25.265 1.19553ZM23.7452 2.28529C23.7442 2.28528 23.7433 2.28527 23.7425 2.28526L23.7452 2.28529Z" fill="white" stroke="white" stroke-width="4"/>
</svg>
