<svg width="16" height="14" viewBox="0 0 16 14" fill="none" xmlns="http://www.w3.org/2000/svg">
<path d="M10.1696 10.2615L11.5417 8.90387C11.6973 8.73768 11.9571 8.7271 12.1248 8.88272L15.0891 11.6415C15.3022 11.841 14.1038 13.3058 13.8394 13.4297C12.6413 13.9963 9.39903 14.8106 4.85289 10.3914C-0.155567 5.52347 0.820441 2.94143 1.53658 1.976C1.68313 1.77808 3.13373 0.429212 3.31352 0.596916L6.2914 3.36781C6.45759 3.52343 6.46817 3.78329 6.31255 3.95099L4.86498 5.57937C4.75317 5.69872 4.72296 5.87247 4.78792 6.02204C5.08707 6.7125 6.20056 8.67056 9.69062 10.3552C9.85379 10.4322 10.0472 10.3929 10.1696 10.2615Z" fill="#2CA99B"/>
</svg>
