<svg width="151" height="15" viewBox="0 0 151 15" fill="none" xmlns="http://www.w3.org/2000/svg">
<path d="M11.6418 4.12416H8.50054L3.67313 13.1471V4.12416H0.263672V14.7257H2.82873H3.67313H6.70819L11.6418 5.49943V14.7257H15.0513V4.12416H12.3773H11.6418Z" fill="black"/>
<path d="M130.999 4.12415H127.855L123.03 13.1471V4.12415H119.621V14.7257H122.183H123.03H126.062L130.999 5.49942V14.7257H134.408V4.12415H131.734H130.999Z" fill="black"/>
<path d="M29.4509 9.42491H21.4822V4.12415H18.0728V14.7257H21.4822V11.8107H29.4509V14.7257H32.863V4.12415H29.4509V9.42491Z" fill="black"/>
<path d="M47.6821 4.12416H41.0304L36.9465 11.7569H34.2195V14.7257H53.2583L54.8382 11.7719H51.7766L47.6821 4.12416ZM43.3193 7.09295H45.4038L47.8971 11.7569H40.826L43.3193 7.09295Z" fill="black"/>
<path d="M74.8504 4.12415H71.8445H70.9709L65.3018 14.7257H68.5227H80.0894V14.7137L78.5068 11.7569H70.7665L73.2625 7.09294H80.0894V7.08098L78.5068 4.12415H74.8504Z" fill="black"/>
<path d="M92.9616 4.12416H89.5521H86.5091H83.0996V7.09295V14.7257H86.5091V7.09295H89.5521V14.7257H92.9616V7.09295H96.0046V14.7257H99.4167V7.09295V7.08099L97.8341 4.12416H92.9616Z" fill="black"/>
<path d="M97.2898 2.97006L95.7072 0.0132294H83.1448V2.98202H97.2898V2.97006Z" fill="black"/>
<path d="M113.832 4.12415H106.334H102.924V7.09294V14.7257H106.334V7.09294H112.244L110.996 9.42491H108.545L106.963 12.3817V12.3937H112.937H113.288L117.712 4.12415H114.358H113.832Z" fill="black"/>
<path d="M63.5397 4.12415L60.7065 9.42491H59.3443L56.5084 4.12415H52.6289L56.742 11.8107H57.0155H59.4319L57.8732 14.7257H61.75L67.4192 4.12415H63.5397Z" fill="black"/>
<path d="M147.487 4.12416H139.988H139.462H136.108L140.532 12.3937L139.284 14.7257H143.164L144.412 12.3937H146.857V12.3818L145.275 9.42493H142.824L141.576 7.09295H147.487V14.7257H150.899V7.09295V4.12416H147.487Z" fill="black"/>
</svg>
