<svg width="10" height="15" viewBox="0 0 10 15" fill="none" xmlns="http://www.w3.org/2000/svg">
<path d="M9.46024 4.66403C9.04523 2.66298 7.33854 1.14289 5.3021 0.967555C2.53537 0.729488 0.21582 2.90427 0.21582 5.62113C0.21582 5.99432 0.260866 6.35463 0.342903 6.70208H0.326812L0.355765 6.75517C0.503752 7.34712 3.23349 12.2935 4.38361 14.3621C4.60399 14.7578 5.1718 14.7578 5.39218 14.3621C6.5423 12.2935 9.27204 7.34873 9.42002 6.75517L9.44898 6.70208H9.43289C9.58409 6.06348 9.60823 5.37663 9.46024 4.66403ZM4.88709 7.50476C3.78845 7.50476 2.8973 6.61361 2.8973 5.51496C2.8973 4.41632 3.78845 3.52517 4.88709 3.52517C5.98574 3.52517 6.87689 4.41632 6.87689 5.51496C6.87689 6.61361 5.98574 7.50476 4.88709 7.50476Z" fill="#2CA99B"/>
</svg>
