<svg width="500" height="63" fill="none" xmlns="http://www.w3.org/2000/svg">
  <path d="M396 53h-12c2 0 3-1 3-2h2l8-1-2-1h6l3-1 5-1h1l1-1h-3l-2-1 2-1h-1v-1l7-1h1-7l-1-1h1l4-1h-2l-5-1h-1l1-1h5l1-1h-3l2-1h1v-1l-4-1h-1l-5 1h-1l1-1h1l-2-1h-3 2l1-1c1 0 0 0 0 0l3-1v-1h-2v-1c2 0 4-1 5 1h2l6-1h2l-2-1 1-1h2l2 1v1h-1l-1 1c0 2-1 3-5 3h4l-1 2c3 0 4-1 5-2-1-1 1-1 1-2l4-1h-2l-3-1h-1v-1h10l-1-1h-1l-5-1h-14v-1h12l-1-1h-3l2-1 2 1h1l1 1v-1h-2l3-1h10a236 236 0 0 1 4-1h1l1-1h4c1 1 0 1-1 1l-1 1h3l3-1-1 1h15-7l-1-1c1-1 0-1-1-2l2-1 2-1 2 1h4l3 1 2-1c1 0 1 0 0 0l-3-1h-1v-1h3a18 18 0 0 0 5 0l3-1v-1h2a35 35 0 0 0 4 0l1-1 1 1c1 0 2 1 0 1h2l-2 2s0-1 0 0h1c0-1 0 0 0 0 1 0 1 0 0 0l-1 1h-5 1l1 1a12 12 0 0 1 2 0h2l-2 1h-12 5l-2 1-2 1h-6 3a7 7 0 0 1 2 0h3v1h1c-2 2-4 1-5 1a10 10 0 0 0 6 1c1 0 2 0 1-1h-1l1-1h2l9-1 2 1-1 1h-6l1 1h16l2 1-2 1h-14l-1-1h-1l-3 1h-17l-1 1h-8v-1h4-10 5l-1 1h-2l-2 1h-1l-3 1h-1a6 6 0 0 1-2 0h-1v-1h-7l1-1h-3l-2 1-2 3h-1c0 1 0 2 2 2l8-1 6 1c1 0 1 2-1 3h-3v-1l-3 1-2 1h6l2 1-2 1h-15l-3-1 3 1h16l1 1-1 1h-12s-1 0 0 0l-2 1-2 1h3l2 1v-1h2l1 2-1 1-2-1-6 1h-2 2l-1 1-6 1h-10c1 0 3 0 2 1h-5c-1 2-4 2-6 2Zm-251-4a467217 467217 0 0 1 7-2l-8-1 2-1h-7l-3-1-4-1h-1l-1-1h2l2-1-1-1 1-1h-1l-7-1h-1 7l2-1h-2l-3-1h1l5-1h1l-1-1h-4l-1-1h3l-2-1h-2l1-1 4-1h1l5 1h1l-1-1h-1l1-1h3-2l-1-1h1l-3-1-1-1h2l1-1h-1c-2 0-4-1-5 1h-1l-7-1h-1c-1-1 1-1 1-1v-1h-3l-1 1v1h1l1 1c-1 2 0 3 4 3h-4l1 2c-3 0-4-1-5-2 1-1 0-1-1-2l-3-1h-1 2l3-1h1v-1h-9l1-1h1l4-1h14v-1h-11v-1h3l-1-1-3 1h-1l-1 1 1-1h1l-2-1h-11a232 232 0 0 0-4 0l-1-1-3-1h-2c-1 1 0 1 1 1l1 1h-5c-1 0 0 0 0 0h-7l-2 1-5-1s-1 0 0 0h2l4 1 1-1h-1l1-1c-1-1 0-1 1-1 0-1 0-2-2-2h-4l-1 1h-5l-3-1h4v-2h-3a18 18 0 0 1-5 0h-3v-2h-2a35 35 0 0 1-4 0h-2v1c0 1 0 0 0 0l-1 1 1 1h-1v1h6l-2 1a12 12 0 0 0-2 0l-1 1h13-3s-2 0-1 1l2 1h7l-3 1a7 7 0 0 0-2 0h-3v1h4a10 10 0 0 1-6 1s-1 0 0 0l1-1-1-1H53v1h6l-1 1H42l-2 2h39l1 1h2l4 1 1-1v-1h-3 9-5l1 1h3l1 1h1l3 1 1 1a5 5 0 0 0 2 0l1-1v-1h7v-1h2l2 1 2 3h1c1 1 1 2-1 2H99c-1 1 0 2 1 3h3l1-1 3 1 1 1c1 1 0 1-1 1l-4-1-3 1 2 1h15l4-1-3 1h-2l-14 1h-2l1 1h12l1 1h1l2 1h-2l-3 1-2-1-1 2 2 1h9-1l1 1 6 1h9c-1 0-2 0-1 1h5c1 2 4 2 6 2Z" fill="#EAB90D"/>
  <path d="m182 4-1-1V2l2-1h3v1l-1 1c1 0 0 0 0 0l-1 1h-2Z" fill="#ECC809"/>
  <path d="M178 3h2l-1 1h3l1 1h-3l-2 1V3Z" fill="#F0D802"/>
  <path d="M258 3h-2l1-1h1l1 1h-1Z" fill="#ECC809"/>
  <path d="M461 5h-1V4h3l-2 1Z" fill="#EAB90D"/>
  <path d="m124 61-1 1h-3l-1-1h-6l1-1h7l3 1Zm1 0-1-1h5l1 1h-5Z" fill="#F0E400"/>
  <path d="M84 10h2v1h-2v-1Zm-1 1h-1l1-1v1Z" fill="#EAB90D"/>
  <path d="M264 7c1 1 2 1 1 2h-2V7h1Z" fill="#ECC809"/>
  <path d="M36 24v1h-2v-1h2Z" fill="#EAB90D"/>
  <path d="M136 10c-2 0-1-1-1-1 2 0 2 1 1 1Z" fill="#ECC809"/>
  <path d="M83 14h1c2-1 2 0 3 1h-1v1l-1 1h1l-1 1h-5l-1-1 1-1 2 1-1-1-1-1c1 0 3 1 3-1Zm0 0h-4l2-1c-1 1 1 1 2 1Zm1-2 1 1h-1l-2-1h2Zm4 0-1 1h-1l-2-1h4Z" fill="#EAB90D"/>
  <path d="M257 7h-3l-2 1-1 1-1-1v1h-3l-3-2h13Zm4 1v1l-4-1V7h1l3 1Z" fill="#ECC809"/>
  <path d="M262 8c-1 0 0 0 0 0Z" fill="#EAB90D"/>
  <path d="M65 58v1h-7v-1h7Z" fill="#ECC809"/>
  <path d="m141 12-3 1 3 1h-4l2-2h2ZM33 31l1 1-4 1h-3l-1-1h2l2-1h3Z" fill="#EAB90D"/>
  <path d="M357 8v1h-5c0-1-2-1-1-2h1l2 1h3Zm92 9-3 1h-1v-1l1-1h1l2 1Zm-12 8-2-1v-1h2l1 1-1 1Z" fill="#ECC809"/>
  <path d="M431 23s-2 1 0 0l1 1h-2c-2-1 0-1 0-1h1Zm1 1Z" fill="#EAB90D"/>
  <path d="m104 33 1-1 1 1h-2Z" fill="#F0D802"/>
  <path d="M48 30h-2v-2h-1l5-1-2 1v2ZM38 48h6v1H34v-1h4Zm16-3h5v1h-6l-1-1h2Z" fill="#EAB90D"/>
  <path d="M51 46h2-2Z" fill="#ECC809"/>
  <path d="M482 13h1l-2 1h-1v-1h2Z" fill="#EAB90D"/>
  <path d="M472 23h-5l-2-1v-1h8l-1 2ZM46 49v-1h5l-1 1h-4Z" fill="#ECC809"/>
  <path d="M113 61h-3c-1 1-2 0-3-1h1l3-1h1l1 1h1l-1 1Z" fill="#F0E400"/>
  <path d="M416 5h1l1 1h-3V5h1Zm9 1c-1 0-1 0 0 0V5h1l-1 1Z" fill="#EAB90D"/>
  <path d="M399 5h-3 3Z" fill="#F0D802"/>
  <path d="M336 4h-2 2Zm-9 1 4-1v1h-4Zm7-1v1l-1-1h1Z" fill="#ECC809"/>
  <path d="M115 59h5l1 1h-7l1-1Z" fill="#F0E400"/>
  <path d="M1 38c0 1 0 1 0 0H0h1Zm432-27c1 1 0 1-1 1h1l-2 1h-1c-2-1-1-1 0-2h3Zm27-2c2-1 2 0 3 1h-2l-1-1Zm3-1h1v1c-1 0-2 0-1-1ZM132 20h1l-1-1 3 1 1 1h-4v-1Zm-5 0 3 1-3-1Zm-4 1 2-1-2 1Z" fill="#EAB90D"/>
  <path d="M78 18h8v1a16 16 0 0 1-7 0h-1v-1Z" fill="#ECC809"/>
  <path d="M423 29h5l2 1h5c1 0 1 0 0 0l-6 2-1-1-1-1-1-1-2 1-1-1Z" fill="#FCD60F"/>
  <path d="M439 21h6l-2-1 1-1h3l3 1-2 1h-1l-3 1h-5l-2-1h2Z" fill="#ECC809"/>
  <path d="M53 38h-1l-2-1 3-1h3v1l-3 1Z" fill="#EAB90D"/>
  <path d="M92 24h-3l-1-1v-1h-3v-1l-2 1-1 1h-2v-1l1-1h-1l1-1h9c1 1 1 2 3 2h3l1 1v1h-5Z" fill="#ECC809"/>
  <path d="M370 17s-1-1 1-1v1h-1Zm8-2 1-1 1 1h-2ZM43 24c1 0 0 0 0 0 0 1 0 0 0 0ZM24 44c1 1-1 0-1 1l-2-1h3Z" fill="#EAB90D"/>
  <path d="M407 42v-1h6-1l-3 1h-2Z" fill="#ECC809"/>
  <path d="m436 29-1 1 1-1Z" fill="#EAB90D"/>
  <path d="M80 25c0-1-2 0-1-1h2v1h-1Zm303-10h-2v-1l1-1h1l1 1-1 1Z" fill="#ECC809"/>
  <path d="m65 45-4 1 4-1Z" fill="#EAB90D"/>
  <path d="M418 14h-3l-1 1-3-1 1-1h6v1Z" fill="#F0D802"/>
  <path d="m420 40-3 1s0 1 0 0h-2 2l3-1Z" fill="#ECC809"/>
  <path d="M419 33h2l2 1h-4v-1Z" fill="#FCD60F"/>
  <path d="M419 32v1h-2l2-1Z" fill="#EAB90D"/>
  <path d="M447 21h3-3Zm6-1h-3l3-1v1ZM73 24l3-1 1 1h1-5Z" fill="#ECC809"/>
  <path d="M68 24h4v1l-4-1Zm-2 0 3 1-3-1Z" fill="#EAB90D"/>
  <path d="m78 24 1-1v1h-1Z" fill="#ECC809"/>
  <path d="M216 4h1v1h-1V4Z" fill="#F0D802"/>
  <path d="M449 6h2l-2 1V6Zm-47-1c-1-1 1-1 2-1v1c1 0 1 0 0 0h-2Zm4-1v1l-1-1h1Z" fill="#EAB90D"/>
  <path d="m168 9 1-1h3l3-1 2 1h-2l2 1h-4l-3 1h-2l-1-1h1Z" fill="#ECC809"/>
  <path d="M35 28h3v1h2l-1 1h-7c0-2 2-1 3-1l-2-1h2ZM454 9c2 0 0 1 0 1v1h-4v-1l3-1h1Zm-54 42h-1 3l-2 1h-5l-4 1h-8 1l5-1h3l4-1h4Z" fill="#EAB90D"/>
  <path d="M88 56h12-1l-2 1H84l1-1h3Z" fill="#F0D802"/>
  <path d="M441 9v1l-1-1h1Z" fill="#EAB90D"/>
  <path d="M396 10c-1-1-1-1 1-1h2l1-1c1 1 2 1 1 2h-5Z" fill="#F0D802"/>
  <path d="M449 24h-11v-1l2-1h9l1 1-1 1Z" fill="#ECC809"/>
  <path d="M450 26h-5v-1h6l-1 1Z" fill="#EAB90D"/>
  <path d="M390 20h-6l1-1h2l3-1 2 1-2 1Z" fill="#F0D802"/>
  <path d="M72 49v1l-2-1h2Zm3 0h-1 2-1Zm1 0h1-1ZM36 30h3v1l1 1h-1v1h-1l-4-1 1-1h2-2l1-1Z" fill="#EAB90D"/>
  <path d="M106 15v1h-1c-1 0 0 1 0 0h-3v1l-1-1h-4c-1 0 0 0 0 0l1-1 1-1a90 90 0 0 0 1 1h6Z" fill="#ECC809"/>
  <path d="M411 18v-2h2v1l-2 1Z" fill="#F0D802"/>
  <path d="M87 24h-5l2-1 3 1ZM68 49H49l2-1h17v1Z" fill="#ECC809"/>
  <path d="M74 49h-2 2ZM41 33l-1-1h2l1 1h1-3Z" fill="#EAB90D"/>
  <path d="M43 33v-1h1v1h-1Z" fill="#EAB90D"/>
  <path d="M411 14h1v1h-3v-1l1-1 1 1Z" fill="#F0D802"/>
  <path d="m417 38-4 1v-1h4Zm2 6-1-1 1-1h2l1 1 2-1 5 1h3l2 1-5 1-1-1-4 1h-5v-1Z" fill="#EAB90D"/>
  <path d="M425 42h-2l1-1 2 1 2-1h6c1 1 2 0 1 1l-7 1h-2l-1-1Z" fill="#EAB90D"/>
  <path d="M419 45h2l-3 1-2-1h3ZM184 5h-1l1-1v1c1 0 1 0 0 0Z" fill="#F0D802"/>
  <path d="M245 5h-1 3-2Zm-20 57h-12l1-1h40l1 1h-30Z" fill="#ECC809"/>
  <path d="M416 4h3c-1 1 0 1 1 1l-1 1h-1l-1-1h-1V4Z" fill="#EAB90D"/>
  <path d="M112 60v-1h18-2l1 1-3 1h-2l-3-1h-9Z" fill="#F0E400"/>
  <path d="m274 62-6-1h-13l6-1v-1h-10l8-1h32l3 1 10-1 5 1 4-1h1v2h-6 3l-5 1h-5l-1-1-7 1-3 1h-1l-6-1h-7l-2 1Z" fill="#ECC809"/>
  <path d="m437 8-4 1 1-1 2-1h3v1h-2Zm-5 1h-1V8l1 1Z" fill="#EAB90D"/>
  <path d="M144 14h7l-1 2-3 1 2 1-2 1s-1 0 0 0h1l2 1-1 1h-2l-2-1-4-1 1-1h3l1-1 2-2h-6l2-1Z" fill="#FCD60F"/>
  <path d="M142 19h-1l-1 1h-1 3l1 1h-7c-1-2-3-1-4-1h-5c-1-2 1-1 2-2h10l3 1Zm14 1h7-3l-4 1v-1Zm14 1h-5l-1-1h8-1l-1 1Zm-14-1h-6 6Zm-7-1 2-1-2 1Zm-17 40h-2 2ZM415 6v1h-2l-2-1h4Zm-13 2 1 2 1 1h-3a226 226 0 0 0-10 1l-4 1v-1l-1-1 5-1h10l-1-1V8h2Zm3 0v1l-1-1h1Zm-1 2h-1 2-1Zm-46 43 3-1 3-1h5l2-1h3l8 1v-1l5 1c1 1 0 1-2 1l-11 1h-16ZM149 13h-1s-1 0 0 0h1Zm-15 8h2-2Zm-97 8v-1h4c2 0 0-1 0-1 2 0 1-1 1-1v-1l3-1 1 1 3 1h4l6 1-3 1h-6a2 2 0 0 1-1 0h-3s1 0 0 0h-4l-5 1Z" fill="#EAB90D"/>
  <path d="M350 9h-4V8h-4l-1-1-2 1-2-2h4c-1 0-1 0 0 0h4l1 1h5l1 2h-2Zm11-1-1 1V8h1Zm18 1h1V8l1 1c-1 1 0 1 2 1l1 1-4-1-1-1Z" fill="#ECC809"/>
  <path d="M454 11v-1a173 173 0 0 0 2 1h-2Zm-68 0h-2 2Z" fill="#EAB90D"/>
  <path d="m404 20 2 1h-3l-2 1-1-1h2v-1h2Z" fill="#ECC809"/>
  <path d="M423 29h-1s-1 0 0 0h1Z" fill="#EAB90D"/>
  <path d="M352 9h6v1h-4l-2-1Z" fill="#ECC809"/>
  <path d="M72 45h4l2-1h1l2 1h7l1 1H69h1l2-1Zm320 6v-1h14l2-1 1 1c1 1 0 1-1 1h-16Zm-4 0h3-3ZM140 14h1l1 1-4 1-2-2 2 1 2-1Zm-5 1-1-1 2 1h-1Zm271-3h-1 1Z" fill="#EAB90D"/>
  <path d="M401 12h2-1l-2 1h-2l-2-1h-1 6Z" fill="#ECC809"/>
  <path d="m453 20 2-1 2 1h4l-1 1h-12l2-1h3Zm7-3 2 2h-3l-1-1 2-1Z" fill="#EAB90D"/>
  <path d="M44 44h9c2 0 2 0 1 1H44v-1Z" fill="#F0D802"/>
  <path d="M211 1h3l1 1h-1l-1 1-2 1h-1l-2-1h-1V2h3l1-1Z" fill="#ECC809"/>
  <path d="M211 4h6l-1 1h-5V4Z" fill="#F0D802"/>
  <path d="M432 4h2v1c1 0-1 0 0 0l-1 1-1-1h-3l1-1h2Z" fill="#EAB90D"/>
  <path d="M182 7h8l-2 1-2 1h-8l1-2h3Zm73-3h1c1 0 2 0 1 1l-2 1h-4V5h-3c-1-1 1-1 1-1h6Zm-12 0h-1l1-1v1Z" fill="#ECC809"/>
  <path d="m471 7-1-1h1v1Zm-19-1a647 647 0 0 1 1 0v1l-1-1Z" fill="#EAB90D"/>
  <path d="M388 4h9l1 1h-1l-3-1h-4v1h1l1 1v1l-1 1-1-1-2-1V4Z" fill="#F0D802"/>
  <path d="m223 8-1-1h8l6 1h1-8c-1 1-3 2-4 1l-1-1h-1Z" fill="#ECC809"/>
  <path d="M396 7h1l-4 1h-1V7h4Z" fill="#F0D802"/>
  <path d="m130 19-3-1h-5l2-1h-3l-2-1h4l2-1h2l-1 1h4l-4 1h4l3-1h1l-1-1h1l-2 2-1 1h-1v1Zm10 1h2v1l-4-1h2Zm89-12h1-1Z" fill="#EAB90D"/>
  <path d="m358 7 1-1v1h-1Zm-30 1h-3V7l3-1v2Zm-6-1V6h5l-3 1h-2Z" fill="#ECC809"/>
  <path d="M27 46h1-2 1ZM13 30l-1 1 1-1Zm443-19v-1h2v1h-2Zm-62 11 4 1 2-1c0 1 0 2-2 2h-2l-1-1h1-3l-1 1-1-1h1l2-1Zm-13 2 1-1 4-1h1v2h-6Zm19-3s2 0 1 1h-5c1-2 3-1 4-1ZM110 33h-1l-1-1 2 1Zm281-11h-4 4Z" fill="#EAB90D"/>
  <path d="M116 14h2v1l1 1h-4l-1-1h1l2-1h-1Zm-1 4h-4v-1c1-1 1-2 2-1l3 1-1 1Z" fill="#ECC809"/>
  <path d="m30 44-1 1h-3l2-1h2ZM15 32h2l-1 1h-1v-1Zm446-17h-3l-1-1 1-1h2v1h1v1Z" fill="#EAB90D"/>
  <path d="M91 33v-1h3v-1h2c0 1-2 2 0 2h1-2l-1 1c1 0 1 0 0 0l-2 1c1-2 1-2-1-2Zm303-16h-4l-2-1-1 1h-2 1v-1h7l1 1Z" fill="#F0D802"/>
  <path d="M116 17ZM70 28h-5l1-1h4v1Z" fill="#EAB90D"/>
  <path d="M420 36v-1h4l2 1h-6Z" fill="#ECC809"/>
  <path d="M410 48h-2 3-1Z" fill="#F0D802"/>
  <path d="M198 10h4-4Zm-6-1s-1 0 0 0h1l1-1 1 1h-3Zm-5 1c1-1 2-2 3-1l-3 1Zm8-1h2-2Zm2 0h1-1Z" fill="#EAB90D"/>
  <path d="M312 60h1c1-1 2-1 1-2h9l2 1h25l-1 1h-37Z" fill="#ECC809"/>
  <path d="M294 59h-3l-9-1h10l2 1Zm10-1-10 1 2-1h8Zm9 0-3 1-6-1h9Z" fill="#F0E400"/>
  <path d="m91 57 2 1 5 1h13l-3 1H98l-6-1h-8l-4-1h-3l-2-1h2l5-1h7l2 1Zm142-47 1-1h7c0-1-2-1-1-2h4l3 1h4c2-2 4 0 6-1l4 2V8h2c-1 1 1 1 2 1h15l2-1 6 1 6-1h5l2 1h2l6-1h3l4-1v1l4 1h-6l-3 1h-52l-5-1h-9l-9 1h-3Z" fill="#ECC809"/>
  <path d="M311 60h-5l5-1v1Z" fill="#F0E400"/>
  <path d="M102 52h1l4-1h1l1 1h1l-1-1-3-1h6l2 1 8-1 2 1h-2l-2 1h-18Z" fill="#EAB90D"/>
  <path d="m111 33 3 1c-2-1-2 0-3 1h-6v-2h-1 2l2-1 1 1h2Z" fill="#F0D802"/>
  <path d="m327 9 1-1h1l1-1h6v2h-9Z" fill="#ECC809"/>
  <path d="M322 9h4-4ZM92 57l5-1v1h-5Z" fill="#EAB90D"/>
  <path d="m414 27 7 1h-5v1h6l-3 1h-6l-3 1h-4l3-1c0-2 2-1 3-1l2-1h-1l1-1Z" fill="#FCD60F"/>
  <path d="M447 27v1h10v1h-4l-4 1-3-1c-1-1-1-1 1-2Z" fill="#EAB90D"/>
  <path d="M441 22h-1l-3 1h-2l-3-1 4-1h-3l2-1h3l1 1h1-3l4 1Z" fill="#ECC809"/>
  <path d="M446 27h-1 1Z" fill="#EAB90D"/>
  <path d="M74 35h10v1H65c1-1 1-2 3-1h6Z" fill="#ECC809"/>
  <path d="m104 33-1 2H92l1-1h1c-1-1 0-1 1-1h9ZM84 44v-1h-1l3-1v1s-1 0 0 0h3c1 0 3-1 3 1h-8Z" fill="#F0D802"/>
  <path d="M91 35c0-1 1-1-1-1h-1l1-1h1c2 0 3 0 1 2h-1Z" fill="#F0D802"/>
  <path d="M97 44h-4l1-1 3 1Zm-15-1h-1 1Z" fill="#EAB90D"/>
  <path d="M101 33h-5v-1h3l-2-1h7c2 0 0 1 1 1l-1 1-1-1-2 1ZM70 44h2l-3 1h-3l-4 1h-3l-2-1 2-1 6-1h3l2 1Z" fill="#F0D802"/>
  <path d="m65 45 2 1h-7 1l4-1Zm7 0h-3 3Zm34 5h-8l-1-1h6l2 1h1Zm19 1v1l-1-1h1Zm241 7s1 0 0 0h-1c-1 0 0 0 0 0h1Zm27-46h2-2Zm17 34 2-1c1-1 1 1 2 1l-2 1h-8l6 1h4l-1 1h-18l6-1h-4c1-1 2-2 4-1l2-1h1l-3-1 2-1 1 1h2l4 1Z" fill="#EAB90D"/>
  <path d="M55 35h1l5-1 4 1-2 1h-2c0 1 0 0 0 0h-6v-1ZM206 2l1 1-1-1Z" fill="#ECC809"/>
  <path d="M74 12s-1 1 0 0l1-1h9c1 1 0 0 0 0l2-1h1l2 2h-1l-3 1h-1l-1-1c0 1 2 1 1 2h-4v-1 1h3l-2 1 1 1h-4v-1l-1-1v-1l-3-1Z" fill="#EAB90D"/>
  <path d="M334 4h11c2 0 1 1 1 1v1h3l1 1h-4l-5-1c-1 0 0 0 0 0h-2v1c1-1 2 0 3 1l-2 1h-4V5h-2V4Z" fill="#ECC809"/>
  <path d="m328 6 4-1-1 1 2-1h1l2 1-3 1h-2l-2 1-1-1V6Z" fill="#ECC809"/>
  <path d="m115 59-1 1-1 1v-1l2-1Z" fill="#F0E400"/>
  <path d="M83 59h23l2 1a131 131 0 0 1-1 0h-3l-2 1h-5v-1h-2l-1-1H83Z" fill="#F0D802"/>
  <path d="m108 60 3-1v1h-3Z" fill="#EAB90D"/>
  <path d="M112 60h1-1c-1 0 0 0 0 0Z" fill="#F0E400"/>
  <path d="M282 9V7h21l1-1 4 1 1 1-1 1h-6l-6-1-5 1h-9Z" fill="#ECC809"/>
  <path d="M82 59h-4 4Zm-17-1h6l4 1h2-12v-1Z" fill="#F0D802"/>
  <path d="M63 58h-9v-1h11-1c-2 0-1 1-1 1Z" fill="#ECC809"/>
  <path d="M409 8h-2l4-1-1 1h-1ZM81 49h9l1 1h6v1l-2 1H83v-1l-2-2ZM21 30l-1 1v-1h1Zm1-1h1l-1 1v-1Z" fill="#EAB90D"/>
  <path d="M130 10h4v3h-2l-4 1c0-2 0-2 2-2l-2-1h-1c-1 0-2 0-1-1h4Zm182-3h1l1 1h2-2l-3 1-2-1 1-1h2Z" fill="#ECC809"/>
  <path d="M304 6h-1V5h1v1Z" fill="#EAB90D"/>
  <path d="m101 12-4-1h7-1l1 1h-3Z" fill="#ECC809"/>
  <path d="M71 57h3a1822 1822 0 0 0-3 0Zm0 0h-4 4Zm343-45h-1l-2-1h16l2 1-3 1h-9l-3-1Zm14-1h-2 2Zm-19 1h-1 1Zm52-2 1 1h-4v-1h3Zm-19 5c1-1 0-1-1-1l2-1h6l-1 1h-4l-1 1h-1Z" fill="#EAB90D"/>
  <path d="M417 23h4l2-1h2l-4 2h-4l-1-1h1Z" fill="#ECC809"/>
  <path d="M416 22h-2l-2-1h5l-1 1Z" fill="#F0D802"/>
  <path d="M111 33h-1 7-6Zm297 18 1-1h-8v-1h12l2 1-1 1h-7 1ZM81 52h1c1 0 0 0 0 0h-1Z" fill="#EAB90D"/>
  <path d="m331 7 1 1-1-1Z" fill="#ECC809"/>
  <path d="m405 14 2-1 3 1v1h-1 3l1 1h-1l-1 1h-2l-1-1h-3l1-1-1-1Z" fill="#F0D802"/>
  <path d="M400 15h-2 1l1-2h4l1 1h-2l-3 1Zm4-3h3l-1 1h-1l-1-1Zm-5 0h5l-1 1h-2l-2-1Z" fill="#EAB90D"/>
  <path d="M417 35h-10l2-1h4l4 1Z" fill="#FCD60F"/>
  <path d="M404 33h-1 1c1 0 1 0 0 0Z" fill="#EAB90D"/>
  <path d="m409 32 1 1h1l-2 1-3-1 3-1Z" fill="#FCD60F"/>
  <path d="M411 49h4-5 1Z" fill="#EAB90D"/>
  <path d="M463 22h2-2Z" fill="#ECC809"/>
  <path d="M15 37h12l1 1s-1 0 0 0l1 1c1 0 0 0 0 0H15l-2-1c-1 1 0 0 0 0l2-1Zm18 2h-1l3-1v1h-2Zm383 10 2-1s1 0 0 0c-1-1 1-2 2-2h1l3-1h2v1l1 1h-7 2l3 1v1h-1l-4 1-4-1Zm-1 2v-1h8l-1 1h-7Z" fill="#EAB90D"/>
  <path d="M191 4h-2V3l2 1Z" fill="#F0D802"/>
  <path d="m482 5 1-1 1 1h-2Z" fill="#EAB90D"/>
  <path d="M214 3h-1 1Zm-60 4 1 2h4l-1 1h-3l-6-1c0-2 0-2 3-2h2Zm-13 0v1c3-1 3 0 4 1l-5 1-1-1-1-1V7h3Z" fill="#ECC809"/>
  <path d="M83 11h1-1Zm349-2h1l4-1 2 1v1h-5c1 1 2 1 1 2l-2-1-2-1V9c-1 0-1 0 0 0h1Z" fill="#EAB90D"/>
  <path d="M148 9h-3l2-1 1 1Z" fill="#ECC809"/>
  <path d="m21 48-1-1-1-1h10l2 1v1H21Zm68-36-3-1 3-2h2l3 2 1 1h-1l-1 1h-3l-1-1Zm315-2-1 1v-1h1Z" fill="#EAB90D"/>
  <path d="M393 10h-2l-5 1h-3l1-1h3-7l1-1 1-1 2 1 2-1h6v1c-1 0-1 0 0 0l1 1Z" fill="#F0D802"/>
  <path d="M371 23h-2l4-1 1 2h-1l-2-1ZM146 12h-5 5Z" fill="#EAB90D"/>
  <path d="M108 24c-1-2 1-2 2-2l1 1h-2 3l-4 1Z" fill="#ECC809"/>
  <path d="m20 29 2-1v1h-2Z" fill="#EAB90D"/>
  <path d="m378 7 2 1v1c-1 0-1 0 0 0h-4V8l1-1h1Z" fill="#ECC809"/>
  <path d="M126 10h3l-1 1-4 1h-4l-1 1h3v1h-12 1v2l-1 1h-5l1-1v-1l-3-1v-1h5v-1h2l5-1 2-1 2 1h4l2-1h1Z" fill="#F0D802"/>
  <path d="M114 11h-1c1 0-1-1 1-1v1Z" fill="#ECC809"/>
  <path d="M409 12h2v1h-4l-2 1-1-1h2v-1s1 0 0 0a4 4 0 0 1-2 0v-1h4l1 1s-1 0 0 0Zm-8 0v-1h2v1h-2Zm46 15-1 2-1 1v-1l-4-1 1-1h5Z" fill="#EAB90D"/>
  <path d="M428 17h4v-1l2 1-6 1v-1Zm6 0h1l1-1h1l-3 1Z" fill="#ECC809"/>
  <path d="m441 27-2 1v-1h2Zm-338-6 2 1c1 1-1 1-1 2h-5l-1-1c1-1 0-1-1-1h-1l-1-1h2l2-1h2v1h2Zm276-11V9l1 1h-1ZM65 45h7v1h-5l-2-1Zm56-33 1 1h-1v-1Z" fill="#EAB90D"/>
  <path d="M100 18h2l2 1-2 1h-5l-1-1v-1h4Z" fill="#ECC809"/>
  <path d="M386 8h-1 2-1Z" fill="#F0D802"/>
  <path d="m94 17 1-1 1 1h-2Z" fill="#ECC809"/>
  <path d="M108 13h-3 3Zm364-2a74 74 0 0 1-1 0v-1l1 1Z" fill="#EAB90D"/>
  <path d="m466 25 3 1 1 1h-1l-1 1h-1l-1-1h-2l-1-1 1-1h2Zm-47 7-1-1h-1l-5-1 6-1h6c2 1 2 1 1 2-1 0-1 0 0 0l-2 1h-4Z" fill="#ECC809"/>
  <path d="M412 29h1l-1 1v-1Z" fill="#EAB90D"/>
  <path d="M47 40h-5 1l3 1 3-1 6 1-8 1h5l-1 1h-4l-2-1h-2l-2-1-1-1v-1h4l3 1Z" fill="#ECC809"/>
  <path d="M57 43v-1h1l-1 1Z" fill="#F0D802"/>
  <path d="M65 36v-1H55l2-1h16c1 0 2 0 1 1h-7l-2 1Zm-6-2-2-1-1-1h3l1 1h1l-2 1Z" fill="#ECC809"/>
  <path d="M95 18h-1 1Zm10-2v-1 1ZM13 44h2-2Zm-1-2h-1v-1h2l-1 1Z" fill="#EAB90D"/>
  <path d="m95 21 1-1 1 1h-2Zm336 17h-11s2-1 0-1h15v1h-4Zm-7 1h-1l1 1 5-1s-3 1 0 1h-7l-1-1 3-1v1Z" fill="#ECC809"/>
  <path d="M419 39h-1 1Zm3 1h-2 2Zm16-10-2 1h-1 1l2-1Z" fill="#EAB90D"/>
  <path d="M56 43h-1 2-1Zm-2-10h1v2h-4l-1-1-2 1v-1h5l1-1Z" fill="#F0D802"/>
  <path d="m431 39 1 1-2 1c-1-1 0-2 1-2ZM186 1h3l3 1h2l1-1h1l1-1v1h5l1 1 1 1 1 1h-7V3h-1l-1 1h-5l-2-1c1 0 0 0 0 0v1h-3l-1-1V2h1V1Z" fill="#ECC809"/>
  <path d="M194 0h1v1a2 2 0 0 1-1 0V0Zm4 10a126 126 0 0 1 0-1h1l1 1h-2Zm-6-1h-2l-3 1V9h-1c-1-1 0-2 2-1l2-1h8v2h-6Zm-25 0 2 1h1-8c1 1 0 1-1 1v-1h-1l7-1Zm12 51h1l-1 1h-6l1-1h5ZM363 8l3 1 1-1 2 1v1h-3l-7-1h-2V8h6Z" fill="#ECC809"/>
  <path d="M438 13c1-1-1-1-1-1h-1 2l1-1h6v1l-4 1h-3Zm8-1c1 0-2-1 1-1h3v1h-2l-2 1v-1Zm26-2h4l1 1h-5v-1Zm7 1-1-1h1v1Z" fill="#EAB90D"/>
  <path d="m437 25 2 1h-2l-1-1v1c0-1 0 0 0 0h-4l-1-1-2 1v-1h2l4-1 2 1Zm-7-1h-4v-1l3-1 1 1v1Z" fill="#ECC809"/>
  <path d="M404 23h2s1 0 0 0l-3 1 1-1Zm2 8v1l-1-1h1Z" fill="#EAB90D"/>
  <path d="m104 33-3 1h-1l-3-1 4-1h2l1 1h1-1Z" fill="#ECC809"/>
  <path d="m90 32 2-1 1-1h3v2l-2-1v2h-3l-1-1Z" fill="#F0D802"/>
  <path d="M96 32v1l-1-1 1-1v1Z" fill="#F0D802"/>
  <path d="M377 9h2v1h-6l2-1-6 1V9h8Zm52 4h3l-1 1h-1v-1h-1Z" fill="#ECC809"/>
  <path d="M399 33h-1 3-2Zm10 1c-1 0-1 0 0 0l1-1-1-1 1-1 2-1h5l2 1v2h-2 1a3 3 0 0 1 1 0c2 1 2 1 0 2h-2l-2-1-2 1h-1l-3-1Z" fill="#EAB90D"/>
  <path d="M406 33v1l-2-1h2Z" fill="#FCD60F"/>
  <path d="M69 32h-3l7-1v1h-4Z" fill="#EAB90D"/>
  <path d="M45 49h-1l-1-1h3v1h-1Z" fill="#ECC809"/>
  <path d="M414 46h1l1-1h5v1h-1c-1 1-2 1-1 2l-1 1h-7l2-1h-10l1-1 3-1h1l3 1 3-1Z" fill="#EAB90D"/>
  <path d="m40 40 1 1h2c1-1 1 1 2 1h-4l-2-1h-5v-1h6ZM229 4l2-1 1 1-1 1-2-1Z" fill="#ECC809"/>
  <path d="M217 5h2v1h-4V5h2Z" fill="#F0D802"/>
  <path d="m456 6 1 1h-1l-1-1h1Zm-12-1 2 1h3v2h-5l-4-1 1-1h3V5Z" fill="#EAB90D"/>
  <path d="m138 24-4-1-5 1h-6v-1l2-1h-10l-3 1-2-1-2-1 1-1h23v1l-3 1h14c1 0 2 0 1 1l-2 1h-4Zm95-14h-7l-4-1 1-1h1l1 1h3l1-1h3l-1 1h3l-1 1Z" fill="#ECC809"/>
  <path d="M222 9h-1l-4 1 3-1h2Z" fill="#EAB90D"/>
  <path d="M232 8h-3 4-1Z" fill="#ECC809"/>
  <path d="M415 9h-1 1ZM95 52c1-1 2-1 1-2h-5l6-1 3 1h6l4 1v1H95Z" fill="#EAB90D"/>
  <path d="M122 32v1h-4l3 1-5 1h-5l1-1-1-1h4-1l6-1h2Z" fill="#ECC809"/>
  <path d="M121 24h2-2Zm283-13v1c1 0 0 0 0 0v1h-2v-1l1-1 1-1h1l-1 1Z" fill="#EAB90D"/>
  <path d="M391 12c1-1-1 0-1-1h11l1 1h-6l-3 1 1-1h-1l-1 1h-1v-1Z" fill="#ECC809"/>
  <path d="M406 31h4c1 1 0 1-1 2h-5v-2h2Z" fill="#EAB90D"/>
  <path d="m411 22 1-1h2l2 1h2l-1 1h-5l-1-1Zm33-4h2c1 0 0 0 0 0l2-1h3l1 1v1h-5l-3-1Z" fill="#ECC809"/>
  <path d="M451 26h1-8v-2l1 1 5 1h1Zm-62 7h2-3 1Zm13-2-1-1h1v1Zm1 0v1-1Zm42-14v1h-1l1-1Z" fill="#EAB90D"/>
  <path d="M70 40v1c-4 0-8 1-12-1v1h8l2 1-3 1H52l-4-1h-1l1-1h6-11l-2-1h6l1-1h20l2 1Z" fill="#F0D802"/>
  <path d="M62 38v1h-5c-2 1-4 0-6-1l1-1 1 1 2 1 7-1Zm5 4 1-1-1 1Zm43-9v1h-1v-1h1Z" fill="#EAB90D"/>
  <path d="M381 15h-1l-1-1-1 1h-3c-1-1-2 0-2 1l-1-1h-11l1-1 2 1 1-1-1-1h-7c-1 0-1 0 0 0l8-1h3l1 1h1l-2 1 3-1 2 1v-1h1v-1h2-1v-1h6v1h-4l4 1h-1l1 1v1Z" fill="#ECC809"/>
  <path d="m52 46-3 1h-2 3l-1 1h-6c-1-2-1-2 1-2h8Z" fill="#EAB90D"/>
  <path d="M50 47h18l-2 1H51l-1-1Z" fill="#ECC809"/>
  <path d="m59 46-2 1-3-1h5Zm11 1h-1 1Z" fill="#EAB90D"/>
  <path d="M54 46h-2 2Z" fill="#ECC809"/>
  <path d="M90 49h-7 7c1 0 0 0 0 0Z" fill="#EAB90D"/>
  <path d="M383 13h10l1 1v1-1l1-1h5c1 1 1 1-1 2l-1-1 1 1h4l2 1h-24v-1h11-4l-5-1v-1Z" fill="#ECC809"/>
  <path d="m124 12 4-1h3v1h-1c-2-1-1 1-2 1h-1c-1 1-2 1-2-1 1 0 0 0 0 0h-1Z" fill="#F0D802"/>
  <path d="M485 13h2v1l-2-1Zm-75 26 8 1h2l-4 1h3v3l-5 1h-2l-2 1-2-1-2-1v-1h-1l1-1 2 1 2-1h-1l1-1h1c1 0 0 0 0 0-1 0-1 0 0 0l1-1h-1l-1-1Z" fill="#EAB90D"/>
  <path d="M407 42h-3l-1-1h7-1l-2 1Z" fill="#ECC809"/>
  <path d="M399 33h-5 5Z" fill="#EAB90D"/>
  <path d="m409 34-2 1h-2l1-1h1-1v-1h3v1Z" fill="#FCD60F"/>
  <path d="M401 32h-2v-1l2 1Zm5 2-2-1 2 1Z" fill="#EAB90D"/>
  <path d="m405 44-2 1v-1h2Z" fill="#F0D802"/>
  <path d="m392 31 1 1-1-1Zm9 2h-1 2-1Zm2 0h1-1Z" fill="#EAB90D"/>
  <path d="m413 16-1-1h5l2-1v1l-2 1h2-6Z" fill="#F0D802"/>
  <path d="M59 26h-1c1-1 1-2 2-1h3v-1h11a5 5 0 0 0 4 0h1l1 1-1 1 2-1h7c-1 1-1 2-3 2l-3 1h-2 10l-3 2-6-1h-3l-2-1h2-2v1h-3l1 1h-4v-2s3 0 1 1h2c-1-1 0-1 1-1-1-1-3 0-2-1l-1-1H59Z" fill="#ECC809"/>
  <path d="m79 30-2 1-1-2 3 1Zm2-5v-1h1l-1 1Z" fill="#EAB90D"/>
  <path d="m398 12-1 1h-1v-1h2Z" fill="#ECC809"/>
  <path d="m400 17 2-1 2 1-2 1-3-1h-1 2Zm-5 0h3c-1 2-2 0-3 0Z" fill="#F0D802"/>
  <path d="m46 43-1-1 2 1h-1Z" fill="#ECC809"/>
  <path d="m44 39 6-1v1h-6Z" fill="#EAB90D"/>
  <path d="m224 1 2 1 5-1 1 1v1h-3 1l-1 1h-3l-2 1h-2V4h-1l-1-1h2V2h2V1Z" fill="#ECC809"/>
  <path d="M206 8a105 105 0 0 1 2-1v1h-2Zm214-2h4l-1 1h-4l1-1Zm14-1c1 0 2 1 0 1h-1 5v1l-2 1h-2l-1 1h-2l-1-1h1l-1-1V5h4Z" fill="#EAB90D"/>
  <path d="m211 9-3-2 3 1v1Z" fill="#ECC809"/>
  <path d="M65 57h11l5-1 1 1h-6l3 1h4v1h-6l-7-1h-8l1-1h2Z" fill="#F0D802"/>
  <path d="m431 10 2 1h-15l-1-1h14Zm0-1h-2 2ZM123 24h-2l-6-1-4 1h-3l1-1h1v-1c2-1 2 1 4 1v-1h12l-3 2Z" fill="#EAB90D"/>
  <path d="M105 21h3l2 1-2 2h-3l1 1-2-1c0-1 1-1-1-2v-1h2Zm-63 7h4v2l-1 1h-1l-3 1h-2l-1-1v-1h1l1-1 2 1h1c1 0 0 0 0 0l-1-1v-1Zm390-16h-1 1Zm16 13 1-1h1c1 0 0 0 0 0l1-1 3 1h4v1-1h1l1-1h2l3 1h7l1 1h-2a26 26 0 0 1-5 1h-4 1l2 1h-2l-2-1h-10v-1h-3Zm-15-4h2-4 2Zm15 4h-2 2Z" fill="#EAB90D"/>
  <path d="M91 35H74l-1-1H59l2-1h22-4v-1h10v1h-2 2l2 1v1Z" fill="#F0D802"/>
  <path d="m66 41-4 1-3-1h-2 13-2l-1 1-1-1Z" fill="#ECC809"/>
  <path d="M393 22h-2c1-1 0-1-2-1l5-1c0 1-3 1-1 2Z" fill="#EAB90D"/>
  <path d="M387 17c1 1 0 1-1 1l-6-1-1-1h4v1h4Z" fill="#ECC809"/>
  <path d="M409 55h-6 6Zm-11 0v1h-5v-1h5Zm22-42 1 1h-3l-1-1h3Z" fill="#EAB90D"/>
  <path d="M59 34h-1l-2 1h-1v-2l-1-1h2l2 1 1 1Zm42-13h1l-1 1v-1Z" fill="#ECC809"/>
  <path d="m388 16 2 1c-2 1-2 0-2-1Z" fill="#F0D802"/>
  <path d="M68 33h-2l-2-1h1l3 1Zm-7 0v-1h3l-3 1Zm-18 0-1-1h1v1Zm18-1-2 1v-1h2Zm397-11v1h-2a216 216 0 0 0-2 0l-1-1h-1 6-1 1Zm8-4h1l-1 1h-1l-1 1h-3l-1-2h6ZM54 33v1h-1l-1-1h2Z" fill="#EAB90D"/>
  <path d="M175 2h6l1 1v1l-3-1-1 1h-6a5 5 0 0 1-2 0h-4V3h-1l1-1h2v1l1-1h6v1-1Zm39 0h6l2-1h1v1h-1v1h-5l-1 1-2-1V2Zm58 5h2l2 1 2-1h1c0 1 2 1 0 2h1-13l1-1 4-1Zm-17 54h17l2 1h-23l4-1Zm19 1c1-1 1-2 3-1h16v1h-19Z" fill="#ECC809"/>
  <path d="m427 7-1-1 2 1h-1Zm-50 52-4 1h-11v-1h7l1-1 6 1h1Z" fill="#EAB90D"/>
  <path d="m240 7 1 2h-4l2-1 1-1Zm72 53h36-12l-8 1-3-1-6 1h-26 3l3-1h2l6 1 4-1h1Z" fill="#ECC809"/>
  <path d="m393 8 4-1v1l-3 1-1-1Zm-258 5h-1l4-2 1 1 1 2-2 1h-1 6v1l3 1-1 1-1 1v-1l-2 1h-8l-2-1h-1l2-1h2l-1-2h1-5 4v2l-6 1-2-1h2v-1l-2 1v-2h-2v1h-5l-2-2h4l-2-1v-1h2v1-1h3l2 1h1l1 1h6l1-1Z" fill="#F0D802"/>
  <path d="m144 14-2 1-2-1h-1l-1-1 2-1h1c0 1 1 2 2 1l1 1Z" fill="#FCD60F"/>
  <path d="M139 11h1-1Zm9 10h-6l-1-1h-1l1-1 5 1 2 1Zm-18-2v-1h1l-1 1Zm252 37 11-1-1 1h-19l-4 1c-1-1-1 1-2 1h-12l3-1h2v-1h22Zm-5 3h2-2Z" fill="#EAB90D"/>
  <path d="M428 16v-1h9v1h-9Z" fill="#ECC809"/>
  <path d="M65 42h3l6 1h9l1 1H70h1l-5-1-1-1Z" fill="#F0D802"/>
  <path d="m72 37-10 1-1-1h1l2-1h-1l2-1v1h7-1l1 1Zm-13 0v-1h-1 3v1h-2Zm-1 0h-2 2Z" fill="#ECC809"/>
  <path d="m366 19 6-1 3 1h4l1 1h-15l-1-1h-2 4Zm4-2h-3l1-1 2 1Zm39 38h9-7l-7 1h-6v-1h11Zm-1-4h-1l-4 1 1-1h4ZM59 26v1h-6l-4-1h-3c1-1 0-1-1-1l1-1h2v1l2-1h3v1l1-1h9c1 1 1 1-1 1h-1l-2 1Zm-5 3 1-1h-4l3-1h9c2 0 1 1 1 2h-7 5v1H51l3-1s1 0 0 0Z" fill="#EAB90D"/>
  <path d="m113 16-2-1v-1h6l-2 1h-1l1 1h3l-2 1-3-1Z" fill="#ECC809"/>
  <path d="M35 45h-6l1-1 2-1h4l1 1h1l1-1v2h-4Z" fill="#EAB90D"/>
  <path d="M96 18v1l-3 1h2l2 1h-2l2 1h-6s-1 0 0 0l-1-1c1-1 1-1-1-1l-3-1v-1h2l2-1h4c1 0 1 0 0 0v1h2Z" fill="#ECC809"/>
  <path d="m410 46-4-1h-3l2-1h5c2 1-1 1 0 2Zm32-16v-1h1l1 1h-3 1Zm-45 26h-4 4ZM64 32l-4-1 4 1Zm4-3h1-1Zm350 15c3-1 1 0 1 1h-3l-2 1-2-1c-1-1 0-1 1-1h5Z" fill="#EAB90D"/>
  <path d="M204 7h1l2 1v1l-2 1h-5l-1-1 3-1h-1 2l1-1Z" fill="#ECC809"/>
  <path d="M178 5h-1V4h1l1 1h-1Z" fill="#F0D802"/>
  <path d="M216 10c-1-1-2-2-4-1h-1V8l3-1h8l1 1-1 1h-2l-3 1h-1Z" fill="#ECC809"/>
  <path d="M33 25h-4v-1l3 1h1Z" fill="#EAB90D"/>
  <path d="M132 59a124 124 0 0 1 4 0h21v1l-4 1h-24v-1c-2-1 1-1 1-1h2Z" fill="#F0E400"/>
  <path d="M409 6h-1c1 1-1 1-1 1l-2 1v2h-2l-1-2h-3l-2-1h-1l-1-1 2-1h2l1 1h2V5h1l1 2 2-1h3Z" fill="#EAB90D"/>
  <path d="m395 6 1 1h-4c-1 0-2-1 0-1l-2-1h-1l7-1v1l-1 1Z" fill="#F0D802"/>
  <path d="M156 20v1h-7v-1h7Z" fill="#EAB90D"/>
  <path d="m175 60 4-1h18l2 1h-24Z" fill="#ECC809"/>
  <path d="m349 60 1-1h12v1h-13Z" fill="#EAB90D"/>
  <path d="M224 8a315 315 0 0 1 1 0h-1Z" fill="#ECC809"/>
  <path d="m423 7 2 1h-1l-2 1h-2v1h-3s-1 0 0 0l-2-1c-1 0 0 0 0 0V6h4v1h-1l-1 1h1l5-1Zm-11 3-2-1h-1 2l1 1Zm-43 43h4l5-1h6l3-1h2l2-1h3l3 1-4 1h-2l-7 1h-15Z" fill="#EAB90D"/>
  <path d="M320 9h-2c-1 0-2 0-1-1h-1l1-1h8l3 1h1l-2 1h-7Z" fill="#ECC809"/>
  <path d="M130 19c-1 0-3-1-3 1h-17v1h-5l-1-2h-2l-1-1 4-1h5l1 1h4l2-1h7l-2 1h6l2 1Z" fill="#F0D802"/>
  <path d="M119 21h3-3Zm12-2-4 1 4-1ZM35 30h1l-1 1-2 1-2-1h-2l2-1h4Zm331 29h3-3ZM93 13h-1l-1 1 1-1h1Zm192-6h2l-2 1V7Z" fill="#EAB90D"/>
  <path d="M108 13h1l-6 1v-1l1-1h1l2-1h8l-1 1h-4l-2 1h-2 2Z" fill="#ECC809"/>
  <path d="m446 16-1 1v-2l1-1 3 1h5a8 8 0 0 1 1 0h11l2-1h4l1-1 1 1v1h1v1h-1l-2 1h-4l-1-1h-2l-2 1-1-1h-16Zm-32 11-1 1h-5l1-1h5Z" fill="#EAB90D"/>
  <path d="M72 36h12l3 1H72v-1Z" fill="#ECC809"/>
  <path d="m80 39 1-1 4 1h1l-9 1c-1-1 1-1 1-1h2Z" fill="#F0D802"/>
  <path d="M79 39h-2 2Zm309-18h-1v-1l1 1ZM61 46h-3l1-1 2 1Zm312-30h2l-1 1-1-1Zm0 0-1 1v-1h1Zm-272 4 4 1h-4v-1Z" fill="#EAB90D"/>
  <path d="M99 14h6l2 1h-7l-1-1Z" fill="#ECC809"/>
  <path d="M395 49h6v1h-9l-2-1h5ZM48 37h3l-2 1c-1 0-2 1-2-1h1Zm-1 0-1-1h2v1h-1Z" fill="#EAB90D"/>
  <path d="M57 44h2l-2 1h-3c1-1-1-1-1-1v-1l4 1Z" fill="#ECC809"/>
  <path d="M404 49h2-2ZM102 16v-1 1Zm368-2 1-1v1h-2 1Zm-48 29-3-1h6-1l-2 1Zm47-17h2v1h-1l-1-1ZM47 37l-1 1-2-1v-1c1-1 2 1 3 1Z" fill="#EAB90D"/>
  <path d="M23 42h-3l1-1h4l3-1h6l1 1h-2 7l1 1-2 1-3-1-4 1h-5l-4-1Zm399 1h-1 1ZM206 10l-1-1 1-1h2V7l4 2h1l3 1h-10Z" fill="#ECC809"/>
  <path d="M449 8h2l-2 1 1 1v1h-1l-2 1h-3l-1-1h-4l-1 1h-3v-1h-1l1-1h9V8h5Zm-32 2 1 1h-6c0 1 3-1 2 1l-3 1-2-1-3-1h-2l1-1h12ZM113 57H99v-1h1-2l-3-1H80h8l12-1h17l5 1h6l-1 1h-6l-4 1h-4Zm277-30 2 1h-11l-1-1h10Zm-13 0v1h-3l3-1Zm2 0h-1 1Zm-9 6h1-2 1Z" fill="#EAB90D"/>
  <path d="m89 32-4 1-2-1 4-1-4 1-3-1-1-1a11 11 0 0 1-3-1h-1c-1-1 0-1 1-2l2 1-1 1c3-1 4 0 6 1l5-1h-6l-2-1 3-1 4-1h-8l1-2h12-2l-1 1 1 1 1-1h2v1h-2l1 1 4 2v1l-3 1-3 2-1-1Zm10-8h1l-3 1 4 1-1 1v1l-2-1c0-1-2-1-1-2h-1c-2 1-2 0-2-1h5Z" fill="#ECC809"/>
  <path d="M39 32h2l3-1v-1h5v-2h7l-1 1h-2 2l-3 1h9-3l-1-1h3l3-1h-1l-3-1v-1h11l4 1v1l-1 1-1 1-1-1-1-1-3-1 3 1c1 2 1 2 3 2v-1h3l1 1 1 1h-5l-5 1h-1l-2 1H43l-1-1-2 1-1-1Z" fill="#FCD60F"/>
  <path d="M390 18h1c2 1 2 0 2-1h13a5 5 0 0 1 1 0h4v1l-3 1h-16l-2-1Z" fill="#F0D802"/>
  <path d="M65 32h8v-1h5-1l2-1h1c1 1 1 2 3 1v1h-6 2l3 1h1l-1 1h-8l2-1h-8l-3-1Z" fill="#ECC809"/>
  <path d="M79 32h-2 2l1-1 1 1h-2Zm-35 0h5l1 1h2l1 1h-3c-2 0-2 0-1 1v1h-1l-1 1h-5v-1h-5l2-1h1l4-1h2-1c-3 0-3 0-2-1h4-3v-1Z" fill="#EAB90D"/>
  <path d="m49 36 1-1v1h-1Z" fill="#F0D802"/>
  <path d="M69 32h4-4Z" fill="#EAB90D"/>
  <path d="m140 10 2-1h7l6 1h-4v2l1 1v-2h3v1c-3 1-4 2-3 4v1l1 1 1-1v-1h3l-1 1 1 1h1-7l-2 1h-2v-2l1-1 2-1-1-1h-6l-3-1-1-1h-1l1-1 1-1Zm15 0 4-1 1-1v1c-2 1-1 1 0 2-4 1-4 1-5-1Z" fill="#ECC809"/>
  <path d="m155 14 3-1h1v1h-5v-1h1v1ZM34 26l1 1h-3l-3-1h4l1-1v1Zm46 29h17l2 1H82l-9-1H56a41 41 0 0 0-4 0h28Zm293-33h4l1 1h4-1s-1 0 0 0l-1 1h-6l-1-2Zm-9 2 4-1h3l-7 1Zm7-1 2 1-2-1Z" fill="#EAB90D"/>
  <path d="m146 17-4-1s2 0 1-1h6c-2 0-2 1-3 2Z" fill="#FCD60F"/>
  <path d="M97 57v-1h2v1h-2Zm345-47V8c1 0 1 2 2 1V8l2 1-4 1Zm-48 18h5-5ZM86 39h-1 7l-1 1-5-1Zm287-17-4 1 2-1h2ZM79 49H68v-1h4l-2-1h29l-2 1H78l1 1Zm21 7h-1l1-1 1 1h-1Zm2 0h1-1Zm37-39h6-6Zm310-4h2-2Zm-39 23 1-1h1l5-1h1l3 1v1h-2l1 1c2 0 2 0 0 1l-1 1h3l1 1h-5l-8-1-3 1-1-1v-1h4l4-1h-4c0-1 2 0 1-1h-1Z" fill="#EAB90D"/>
  <path d="m410 36-3 1-1-1h4Z" fill="#EAB90D"/>
  <path d="m49 36-1-1 3-1v1h4v1h-6Z" fill="#ECC809"/>
  <path d="M93 29h-1l-1 1-1-1 2-1 1 1Zm-10 3v-1h4l-1 1h-3Z" fill="#F0D802"/>
  <path d="M53 31h5l-1 1-4-1Z" fill="#ECC809"/>
  <path d="M48 28h1c1 1 2 1 1 2h-2l-2-1c3 0 2 0 2-1Zm437-15v1h-1v-1h1ZM41 33h2v1h2l-5 1h-3l1 1h-4l-3 1h-1l-1-2h3l1-1h1l1 1 4-1 1-1h1Z" fill="#EAB90D"/>
  <path d="M401 22h-1l-3 1-3-1h-1v-1h-3c2 0 1 1 1 1v1h-22l-5 1-9-1h-1 1l4-1h7-1l-4-1h-4s2 0 1-1h-2l-5-1 10-1 2-1h4l1 1h-2v1h-3l2 1h1l1-1h33l2 1c1 0 1 1-1 1h-4 3l1 1Z" fill="#F0D802"/>
  <path d="M46 34h1l-1 1-1-1h1Z" fill="#ECC809"/>
  <path d="m42 36-1 1c-2 0 0-1-1-1h2Zm-2 0-1 1v-1h1Zm-9 1h3-3l-2 1h-1l-1-1h4Zm4 0v-1h1l1 1 1 1h-2l-1-1Z" fill="#EAB90D"/>
  <path d="m113 57 4 1h32-17l-3 1H97l-5-1c-1 0-2 0-1-1l1-1h18l3 1Z" fill="#F0D802"/>
  <path d="m149 58 6-1h7l-5 1h-8Z" fill="#EAB90D"/>
  <path d="m105 35-3 2h-2l-5 1h1l8 1h5l-5 1H92l1 1h6-2v1h2l5 1v1H92l-5-1H68l-2-1 1-1h1l2-1 3-1 4 1 8-1h6-36l-2-1 3-1a453 453 0 0 0 3 0h23l1-1 3 1-2-1v-1l6-1 2 1h10l2-2h1v2Z" fill="#FFD80B"/>
  <path d="M127 32h2l3 1h6l-2-1h7l1 1-6 2h-9l1-1s-2 0-1-1h-2l-2 1v-1h-1l-2-1c-1 0 0 0 0 0v1h-8a23 23 0 0 0-4 0h-4l-2-1s1-1-1-1h-5v1l-2 1v-1l-1-2v-1l-4-2v-1l1-1-2 1-1-1 2-1h3l2 1h1l2 2 1-1h-2l-1-1h1l2-1h6l2-1h7l6 1-4 1h-2c1 0 2 0 0 1-1 0-2 0 0 1 0 1 0 2 2 1h-6c-2-1-3 0-3 1l-2 1h-1l1 1 3 1h1l2-1h6a166 166 0 0 1 11 0l-1 1h-1ZM98 44h2s-1 1 1 1l1 1h-6v1h4l-1 1-29-1h-2v1l-14-1h-7l2-1h39l-5-1H69l3-1 2-1h16l2 1h6Z" fill="#ECC809"/>
  <path d="M385 27h-1 1Z" fill="#EAB90D"/>
  <path d="M382 19h-3v-2h8l1-1 2 1h3c1 2 0 2-3 1l-3 1h-5Zm0 32-2-1h2v1Zm-11 0 2-1c1 0 2 0 1 1h-3Z" fill="#ECC809"/>
  <path d="M384 11h5l-2 1-1 1a41 41 0 0 0-5 0h-2l-2-1 2-1-4 1h1l-1 1h-18l-1 1 1-1h2v1l-1 1h-3l-1-1-1-1-1 1-2-1h1l5-1h1l1-1v-1h-16l-6-1h-4 4l3-1h7l4 1h2a8 8 0 0 0 5 0h2l10 1 4-1h2l-1 1 5-1 1 1 4 1ZM101 33l2-1-2 1Z" fill="#F0D802"/>
  <path d="M47 37v1h3v-1l2 1h-7l-1 1H28v-1l4-1h15Z" fill="#EAB90D"/>
  <path d="m358 15 1-1v-1h5l1 1-1 1h-3 17a9 9 0 0 1 3 0v1h-2v1l-2 1h-9l-1-1h3l1-1-1 1h-7l-2 1-2-1h-5v-1h5l-1-1Z" fill="#F0D802"/>
  <path d="M483 16h-5l-1-1h2l3-1h1v2Z" fill="#EAB90D"/>
  <path d="m202 10 3-1 1 1h-17l-3 1-1 1-3 1-2 1 1 1c3 1 2 2 0 2l-5 2h2v2h-8v-1h1-7l1 1h-3c-2 0-2 0-1 1v1l-8 1 1-2h-16v-1h5l4-1h15a30 30 0 0 0-6 0h-9l-1-1 1-1h23-4l1-1 1-1h2-4c-2 0-3-1-3-2v-1l1-1 1 1h3l1-2v-1l2 1h4v-1l7-1h17l3 1Z" fill="#FCD60F"/>
  <path d="m138 24 4-1c1 1 1 0 2-1h-1 12v1l-2 1h-15Zm-2-3h2v1l-7 1-3-1 4-1 2-1h2v1Zm2 0h3-3Zm5 0h5-5Zm9 0h3-3ZM53 33h5l-2 1-1 1a41 41 0 0 0-4 0l-3-1h-1l1-1h1l-4 1h1l-1 1H26v1l1-1h2v1h-2l-3 1v-1l-2-1-1 1-2-1 2-1h5l2-1v-1H12l-7-1H2h4l3-1h7l4 1h2a8 8 0 0 0 5-1h1c3 2 7 2 10 2l4-1h2v1l5-1 1 1 3 1Z" fill="#EAB90D"/>
  <path d="M99 47h15l2 1h-13l1 1h11c2 0 5-1 7 1 4-1 7 1 11 1h4l-7 1h-15 2l3-1h3-11l-6-1H91l-1-1h-7l-2 1-2-1h-1c-1-1 0-1 1-1h18l2-1Z" fill="#ECC809"/>
  <path d="m124 32 2 1v1h1c0-2 2-1 3-1l-1 1h3l-3 1h-13l3-1-1-1h2l2-1h2Zm12 0 3 1h-5l-1 1-1-1 4-1Zm252 21h8-8ZM127 32h1-1Z" fill="#EAB90D"/>
  <path d="M213 62h-32l-2-1 1-1h17a777 777 0 0 1-23 0h-41l-2-1h-2l3-1h18l12-1h38c2 2 6 1 9 1h36l27-1h66l12-2 2 1-1 1h-2 4l1 1-1 1h-40l-7-1-2 1-4-1h-4l-2 1-12-1h-19l-7 1h-4 7l2 1-2 1-3 1-1-1h-32l-10 1c0-1 0 0 0 0Z" fill="#F0D802"/>
  <path d="M149 58h-35l-1-1 3-1h5l2-1h3-6l-11-1-8 1H47l-2-1h-1v-1h13l6-1h20a427 427 0 0 1 19 0h31l3-1-10-1-12-1h-10l-1-1h11-13l-4-1h-2l2-1h4l-2-1 1-1 3-1h-5l-2-1 1-1h-4l-2-1h2l6-1h8-12l-1-1 2-1h4l2-1 3-2h6l6 1h12l10-1c2 1 3 0 4-1h-15l-1-1h1l-2-1-12 1h-5l-3-1-1-1h1l2-2 2-1h1c3 0 3 0 4 2v-1l-1-1v-1l1-1 2-1h4l2-1 3 1 2-1h10l4 1h2l8-1 1 1 7-1c2 0 1 0 1-1l-2-1h11l8-1-2-1h-1l1-1 6-1v-1c-2 0-3-1-1-3 0 0-1 0 0 0h1c0-1 0-2 3-2h1l5-1h26l3-1h121l7 1h10l1 1-2 1-2 1h-4 1l3 1h3l1 2h-2l-2 1h8c0 2 0 2-2 2h-9l4 1c1 0 3-1 2 1h7l1 1h-1l-8 1h-2 24l3 1v1l-1 1-5-1h-5l3 1 9-1 2 1h4l1 1-5 1h-9 1l2 1h-2l-7 1h-2l-4-1 2 1-1 1-2 1-1 1 3 1-1 1 4-1h2l3 1 1 1h-1l-2 1h3l-3 1-3 1 6 1h1l-1 1h-4 7l1 1-1 1h-6v1h-1v1h2l2 1-2 1-3 1h-1c-1 1-3 2-4 1l-5 1h1l-2 1h-7l-1 1-2 1h49l2 1h-2l-5 1h-7l-4 1h-34l-10 2h-11l-2-1-11 1-5-1h-28l-23 1h-42l-3 1h-4l-4-1h-7l-12-1h-23l-11 1h-2Z" fill="#EAB90D"/>
  <path d="m357 56 17-1h7l1 1h-14l-6 1-7 1h-2l4-2Z" fill="#F0D802"/>
  <path d="M360 59h-10 2l2-1h10l-2 1h-2Z" fill="#EAB90D"/>
  <path d="m357 56-4 2h-4l3-2h5Z" fill="#F0D802"/>
  <path d="m421 58-3 1h-1c-2 0-2 0-1-1h5Zm-31 2v-1h-7l-3 1h-7l4-1a22 22 0 0 1 7 0v-2h17l2 1-2 1-9 1h-2Z" fill="#EAB90D"/>
  <path d="m392 60 3-1h6l1-1 3-1h4l3 1h4c-1 1 1 1 1 1h-1c-2-1-4 0-5 1h-19Z" fill="#EAB90D"/>
  <path d="M358 53h-12l4-2h1l8-1-2-1h7l3-1 4-1h1l2-1h-3l-2-1 1-1c1 0 0 0 0 0l-1-1h1l7-1h1-7l-1-1h1l3-1h-1l-5-1h-1l1-1h5v-1h-3l2-1h2l-1-1-4-1h-1l-5 1h-1l1-1h1l-1-1h-3 2l1-1h-1l4-1v-1h-2l-1-1h1c2 0 4-1 5 1h1l7-1h1c1-1-1-1-1-1v-1h3l1 1v1h-1l-1 1c1 2 0 3-4 3h4l-1 2c3 0 4-1 5-2-1-1 0-1 1-2l3-1h1-2l-3-1h-1v-1h9l-1-1h-1l-4-1h-14v-1h11v-1h-3l1-1 3 1h1l1 1v-1h-2l2-1h11a236 236 0 0 1 4-1h1v-1h5c1 1 0 1-1 1l-1 1h2l3-1v1h14s1 0 0 0h-7 1l-1-1c1-1 0-1-1-2l2-1 2-1 2 1h4l2 1 3-1-4-1v-1h3a18 18 0 0 0 5 0l3-1v-1h2a35 35 0 0 0 4 0l1-1 1 1v1h1l-1 2s0-1 0 0c0 0 0-1 0 0h1c1 0 1 0 0 0l-2 1h-4l2 1a12 12 0 0 1 2 0h1l-1 1h-12 4l-2 1-2 1h-5 3a7 7 0 0 1 2 0h2l1 1c-1 2-3 1-4 1a10 10 0 0 0 6 1v-1h-1l1-1h3l9-1 1 1v1h-6l1 1h16l2 1-2 1h-14l-1-1h-2l-2 1h-18l-1 1h-7v-1h3-9 5l-1 1h-3l-1 1h-1l-3 1h-1a5 5 0 0 1-2 0h-1v-1h-7v-1h-2l-2 1-2 3h-1c-1 1-1 2 1 2l9-1 5 1h1l-1 3h-3l-1-1-3 1-1 1h6l2 1-2 1h-15l-3-1 3 1h16l1 1-1 1h-13c1 1 0 1-1 1l-2 1h2l3 1v-1h2l1 2-2 1-1-1-6 1h-2 1l-1 1-6 1h-9c1 0 2 0 1 1h-4c-2 2-4 2-6 2h-1Z" fill="#ECC809"/>
  <path d="m382 56-1-1h4l12-1h2l-3-1h19l2 1h-2a31 31 0 0 0-6 1l-6 1h-21Zm-18 2h2l3-1h14l1 1-2 1h-22 2l2-1Zm64-5h7l-1 1h-10l-3-1h7Z" fill="#EAB90D"/>
  <path d="m434 54 1-1h5l-6 1Zm-10-1h7l-1 1-10 1h-2l1-1 5-1Zm-32-2h-10l-1-1 1 1h-13v-1h-3l4-1h14v-1h-2v-1h12l-1-1h-2c1 0 0 0 0 0h-1v-1l-3 1-2-1v-1h4l-1-1h2l7-1h1l4 1 1-1h-8l-9-1h-1 1a173 173 0 0 1 16-1h1-7l-2-1c0-1 1-2 3-1 1 0 2 0 1-1l1-1h1v1l1 1h2l1-1c0-2 0-2-2-2h-15c1-1-1-2 1-2h2-1c1-1 2-2 1-3l3-1h4-1l-1 1h7v1h2c0 1 2 1 1 2h-2 3v2h5l-1 1h-3a211 211 0 0 1 4 1h3l-2 1h-5v1h4l1 1-1 1h-8 6l1 1-2 1h-2v1h-3l-1 1h1l1 1-1 1h-3l-2 1h3l-1 1-5 1h-3v1Z" fill="#EAB90D"/>
  <path d="M404 23c0-1-1-2 1-1l1-1-2-1h1l2-1h1l3-1 2-1 1-1h3v-1h4l2-1h1l1-1h1v1l-1 1 3-1 1 1v1l-1 1h-2l1 1h-1l-2 1h-8l-1 2-3 1h-3l-3 1h-2Z" fill="#ECC809"/>
  <path d="m382 29 5 1h2l-2 1c-2-1-3 0-4 1s1 0 1 1l-6 2h-1l1-1h1l-2-1h-4 4l1-1 1-3h3Z" fill="#FCD60F"/>
  <path d="M386 41h-4l-1-1h5v1Z" fill="#ECC809"/>
  <path d="m368 18 9-1h2c0 1 2 1 1 2h-14l-1-1h3Z" fill="#F0D802"/>
  <path d="M383 24h2v1h-1l-1-1Zm-7 16h3-3Z" fill="#EAB90D"/>
  <path d="M374 44h-2 2Z" fill="#ECC809"/>
  <path d="M383 36h-1l1-1v1Zm2-2h-2 2Zm-3-5h-1v-1h1v1ZM97 44h1l-1 1v-1Zm27-12h-3l1-1 3 1h-1Zm10 1h1v1l-1-1Zm231-13h1s1 0 0 0l-1 1-1-1h1Z" fill="#EAB90D"/>
  <path d="M357 13s1 1-1 1h-1l2-1Z" fill="#ECC809"/>
  <path d="M345 8h1-1Z" fill="#F0D802"/>
  <path d="m424 53-5 1-1 1h-9l1-1h7l-2-1h-13 22Zm-55-40h4v1h-6 1l1-1Zm88 5v2l-1-1 1-1Zm3 1-2-1 2 1Z" fill="#EAB90D"/>
  <path d="M35 41h4s1 1-1 1c-1 0-2 1-3-1Z" fill="#ECC809"/>
  <path d="M200 33h4l2-1c-1 0 0 0 0 0l3 1h6l2 1h-20l1-1h2Z" fill="#EAB90D"/>
  <path d="m381 27-3 3c0 1-1 2-3 1h-6l-1 1h1l10 1h7l-6 1h-14l-2 1h8l2 1h-4l1 1h2l7 1v1h-22l-2-1h-22l-3-1 1-1h2l2-1 1-1h8l11-1 5 1 3-1h-47l-2-1 3-2h3l1 1 3-1v1h13l1-1h18l-2-1-1-1 8-1h3l7 1 2-1c1 1 2 2 3 1l3-2h1v1Z" fill="#FCD60F"/>
  <path d="M435 44v-1l1 1h-1Z" fill="#EAB90D"/>
  <path d="M186 9h1l-5 1h-7l1 1h-6l-1-1v2c1 0 1 0 0 0-2 1 0 1 0 2h-3l-1-1h-1l-1 2 3 1 6 1h-5v1h1l1-1 2 1h-15v-1l-1-1-1 1-1 1-2-1c0-2 0-4 3-5 1 0 1 0 0 0l-1-1h-1v2l-2-2c0-1 1-2 3-2l2 1 4 1c0-1-1-2 1-2l1 1 1 1 2-1 6-1h16Z" fill="#ECC809"/>
  <path d="M294 49h-12v-1l4-2h9l-2-1h7c1 0 3 0 3-2l4-1h2l-1-1h-3c0-1 0-2 1-1v-1h-1l1-1h8l-1-1h-8l2-1h3l-1-1h-5l-1-1h1l4-1h1l-1-1h-2l2-1h2-1l-4-1h-7 1l1-1h-1l-3-1h3l-1-1 3-1h1l-1-1h-2 7l6-1h2l-1-1h3l1 1-1 1h-1c0 3 0 3-5 3h3l2 1-1 1 5-1v-1c-2-1 0-1 1-2h3l1-1h-6v-1l3-1h6-1l-1-1-4-1h-1l-10 1-3-1v-1h5l5 1 1-1h-1l-2-1h3l1 1h1-1v-1h13a233 233 0 0 1 4-1v-1h1l3-1h2l-1 1-1 2 2-1h3v1h13c1 0 2 0 1-1h-2l-4 1-1-1h1l-1-1-1-1c-1-1 0-1 1-2h4l2 1h5l3-1h-4v-2h1l1 1a18 18 0 0 0 6 0l3-1-1-1 1-1h1a35 35 0 0 0 5 0h2v2h1l-1 1h1v1h-6v1h2a12 12 0 0 1 2 0l1 1h-12l-1 1 3-1 1 1-2 1h-4l-3 1h3a7 7 0 0 1 2 0h3v1l-4 1a10 10 0 0 0 6 0s1 0 0 0l-1-1 1-1h13c1 1 0 1-1 1h-5l1 1h7l3 1 6-1c1 1 2 1 1 2h-36l-2 1h-1l-1 1h-5l-1-1v-1h3-9 3l1 1h-2l-1 1h-2c-2 0-2 1-3 2h-1a5 5 0 0 1-2 0h-1v-1l-1-1h-1l-4 1-1-1h-3l-2 1-1 2-1 1c-1 1-1 1 1 1h15c1 1 0 2-1 3h-3l-1-1-3 1-1 1c-1 1 0 1 1 1h7l-2 1h-19 3l2 1h16l-1 1h-12l-1 1c1 1 0 1-1 1h-2l2 1h5l1 1-2 1h-9l1 1h-1l-6 1h-9c1 0 2 0 1 1l-4 1h-1l-6 2ZM129 30l3-2h1v1l1 2-1 1h-2 3l2-1 1 1v1l3 1-1 1v1c-1-1-2 0-1-1l-2 1h-8l-2-1h-1l2-1h2l-1-2h1s0-1 0 0h-5 4v2l-6 1-2-1h2v-1h-2s-1 0 0 0v-1h-2v1h-5c0-1-2-1-1-2h3l-2-1 1-1h1v1-1h3l2 1h1l1 1h6l1-1Z" fill="#F0D802"/>
  <path d="M143 57h-11l-14 1-10-1-2-1h3l5-1h5l-4-1H94l-21 1H46l-5-1h-3l-1-1h1v-1h21l4-1h13a427 427 0 0 1 20 0h30l3-1-10-1h-12l-10-1h-1l2-1h9-17l-1-1h1l4-1-1-1 1-1h2l-5-1-2-1 2-1h-6l1-1h14l-2-1h-9l-1-1h1l4-1h2l3-2h34l4-2h-14l-1-1h-15l-2 1h-2l-3-1-1-1 1-1 2-1 2-1h1c3-1 3 0 5 1l-1-1-1-1v-1l1-1h2l4-1h8v-1l6 1h26v-1l-1-1 2-1h16v-1h-2l-1-1h1l6-2s1 0 0 0c-2-1-3-2-1-3v-1l1 1c0-2 0-2 3-2h1c1-2 3-1 5-2h29l2-1h3l3 1h9l8-1h11l12 1h52V8h13l8 1h17l1 1-2 1-2 1h-4l2 1h2l3 1 1 1-2 1h-2 4l2 1h2c1 1 0 1-1 1h-7l-2 1h4l2 1h2l4 1h1l-1 1h-9l8 1h18l1 1-2 1h-5l-4-1 2 1h11l4 1 2 1h-15 1l2 1-2 1h-12l2 1-2 1-1 1h-2l3 1-1 1h9l1 1-1 1h-1l2 1-2 1h-4l6 1h1l-1 1-3 1h8l-2 1h-6v1l-1 1 1 1h2l1 1-1 1h-4l-1 1-4 1h-5l1 1h-2l-7 1h-1l-2 1h50l1 1-1 1h-5l-8 1h-33l-5 1-10 1H224l-5 1h-2l-3-1-6 1h-10c-3 1-4 0-5-1h-50Z" fill="#F0E400"/>
  <path d="m406 32-2 2-2 1h-6l1 1h14l-5 1h-11l-2 1h8l-1 1h-2l2 1c2-1 4 0 6 1h-17l-2-1h-5l-3 1-5-1h-4l-3-1h1l2-1h1l1-1h21-6l-4-1h-5l-4 1h-1l-10-1h-7c-1 1-1 0-1-1l2-1h2l1 1 2-1h1l2 1h7l2-1h14l-2-1c-1 0-1 0 0 0l6-1h11l2-1h1v1Z" fill="#FCD60F"/>
  <path d="m169 14-2 2-3 1h-5l1 1h13l-5 1h-10l-2 1h7c0 1 0 0 0 0l-2 1h2l6 1-1 1h-11l-5-1h-20l-2-1h1l1-1h2l1-1h6l9-1 3 1 3-1h-37l-2-1 3-1h6l1 1 8-1h15l-1-1-1-1h18l2-1h1v1Z" fill="#F0D802"/>
  <path d="m77 30 3-2h1l1 1c-1 1 0 1 1 2l-2 1h-1 2l3-1 1 1v1l3 1-1 1-1 1-1-1-1 1h-8l-2-1h-1l1-1h2l-1-2h2-5 3l1 1v1l-6 1-2-1h1l1-1h-3v-1h-1l-1 1h-4l-2-2h4l-3-1 1-1h2v1-1h2l3 1h1l1 1h5l1-1Z" fill="#FCD60F"/>
  <path d="M421 24h8l-2 1-1 1-1 1-2 1h-4l2-1h-3l-1-1v1h-5l-2-1h2l3-1h3c2 1 3 0 3-1Z" fill="#ECC809"/>
</svg>
