<svg width="25" height="24" viewBox="0 0 25 24" fill="none" xmlns="http://www.w3.org/2000/svg">
<path d="M16.4264 17.458L18.7598 15.1493C19.0245 14.8667 19.4664 14.8487 19.7516 15.1133L24.7926 19.8049C25.1549 20.1441 23.117 22.6352 22.6674 22.8459C20.6299 23.8094 15.1161 25.1943 7.38494 17.679C-1.1324 9.40059 0.527387 5.00959 1.74525 3.36779C1.99448 3.03121 4.46135 0.737332 4.7671 1.02253L9.83126 5.73469C10.1139 5.99933 10.1319 6.44126 9.86724 6.72645L7.4055 9.49565C7.21537 9.69863 7.16398 9.9941 7.27446 10.2485C7.78319 11.4227 9.67679 14.7525 15.612 17.6173C15.8894 17.7484 16.2183 17.6816 16.4264 17.458Z" fill="#2CA99B"/>
</svg>
