<svg xmlns="http://www.w3.org/2000/svg" xmlns:xlink="http://www.w3.org/1999/xlink" x="0px" y="0px"
	 viewBox="0 0 790.1 155.7" style="enable-background:new 0 0 790.1 155.7;" preserveAspectRatio='none'>
<path class="st0" fill="#000" d="M782.7,119.6c-1.1-0.1-3.1-0.2-3.1-0.4c0.1-2.3-2.9-1.6-4.5-1.6c-3.8-0.1-7.5-1.2-11.7,0.3
	c-1.1,0.4-2.4,0.4-3.6,0.6l-0.1-1.1l6.7-1.2c-11.1-0.5-22-1.7-33.3-1.7l0.2-0.6l1.7,0l0.2-0.6l-11-0.8l0.8,1.6
	c-2.8-0.7-4.9-1.4-7.3-1.6c-1.5-0.2-3.7,0-5,0.6c-2.4,1.2-3.3,0.9-3.8-0.6c-0.7-2.1-3.3-2-5.7-1.1c-2.4,1-2.8,0.1-3.6-0.7l17.8-0.2
	c-4-1.8-9.4-0.4-13.9-0.9c-1.2-0.1-2.4-0.3-3.5-0.4c0.2-0.5-0.1-0.9-0.9-1.2c-1.3-0.5-2.5-1-3.8-1.4c-0.4-0.2-1-0.3-1.7-0.4l0.6,1.2
	l-0.5,0.4l-4.5-1.7c0.4-0.8,0.8-1.4,1.3-1.5l1-0.2l1.4,0.5c0.3,0.1,1-0.1,1.5-0.1l-1.6-0.6l1.1-0.2c0.2,0.3,0.3,0.6,0.5,0.9l1.4,0.4
	l0.3-0.2l-0.7-0.4l0.4,0l7.8,2.4l-0.4,0.5l-5.4-1.7l-0.2,0.2l7.4,2.3l0.9-2.8c1,0.2,1.9,0.3,2.8,0.6c0.8,0.2,1.4,0.3,1.6-0.6
	c0-0.2,0.4-0.5,0.8-0.6c0.7-0.3,1.4-0.5,2.3-0.8c-2-0.7-0.3-0.9,0.9-1.2c-1.1-0.6-2-1-2.8-1.5l0.4-0.3c0.4-0.1,0.8-0.2,1.2-0.3
	c1.6,0.8,2.8,0.8,4.5-0.2c1.8,0,3.7,0,5.5-0.1c0.6,0,1.3-0.3,1.9-0.5c1-0.3,2-0.6,2.9-0.7c3.3-0.3,6.5-0.4,10.2-0.7l-4.3-1l0.3-0.7
	l19.8-1l0.2-0.7l-7.4-2.1l0.3-0.6l9.1,0.7l0.3-0.7c-8.2-3.5-18-4.4-27.9-5.3c0.4-0.3,0.8-0.6,1.1-0.9c0.2-0.2,0-0.7-0.3-1
	c-0.5-0.4-1.2-0.7-1.6-1.1c-0.2-0.2-0.1-0.6-0.1-0.9l0.5,0l-1.6-1c0.5-0.2,1-0.4,1.5-0.7l0.4-0.3l6.2-0.7l0.3-0.4
	c-1.8-1.3-3.8-2.5-5.3-3.9c-1.8-1.7-5.5-0.8-8.1-2.1c2.6-0.3,4.7-0.9,6.7-1.7c0.4-0.2,1-0.4,1.1-0.6c0.1-0.2-0.2-0.6-0.4-0.7
	c-1.6-0.6-3.3-1.3-5.1-1.7c-1-0.3-1.5-0.6-1-1.5c2-0.2,4-0.5,6-0.7c0.5,0,1,0,1.4-0.1c2.3,0,4.5-0.6,6.5-1.7
	c2.3-1.3,5.8-1.5,9.4-2.4c0.1,0,0.2-0.1,0.3-0.2c1.1-1.3,1-2.7-1.3-3.5c-2.7-1-5.5-1.8-8.3-2.4c-2.7-0.6-5.4-1.2-8.1-1.8l0.5,0
	c1.1,0.1,2.2,0.3,3.3,0.4l0.3-0.4c-0.5-0.3-1-0.6-1.5-0.9c-0.9-0.4-1.7-0.8-2.6-1.2c-1-0.4-1.9-1.1-3-1.2c-3.5-0.3-7-0.5-10.6-0.7
	l0.1-0.4l-9-0.3l0.1-0.4l24-0.3c-11.2-0.8-22.5-1.2-33.8-1.7c0.9,0,2-0.4,3.2-0.8c0.7-0.2,1.4-0.2,2.1-0.1c1.8,0.4,3.4,1.1,5.3,1.2
	c4.7,0.2,9.7-0.2,14.2,0.4c2.6,0.4,5.3-0.1,7.6-1.2c0.6-0.3,1.2-0.6,1.7-0.9l15.6,0.3c-2.3-0.6-4.9-0.6-7.4-0.8
	c-1.1-0.1-3.1-0.2-3.1-0.4c0-0.8-0.3-1.2-0.8-1.4l2.4-1.4c0.2-0.1,0.3-0.3,0.1-0.4c-0.7-0.5-1.2-1-2-1.2c-5.7-1.2-11.4-2.6-17.3-3.3
	c-5.1-0.7-10.4-1-15.6-1.3l-0.2-0.1c-0.1-0.1,0-0.3,0-0.5l0.3,0l-1.4-0.8l4.7-0.5l0.2-0.2c-0.8-0.6-1.8-1.2-2.5-1.8l2.4,0.1
	c3.6,0.2,7.1,0.4,10.7,0.4c1.4,0,2.7-0.4,3.8-1.1c2.4-1.5,4.5-3.2,7.1-5.2c0.2-0.2,0.2-0.4-0.1-0.5l-18-2.3c-0.3,0-0.4-0.3-0.1-0.5
	l1.3-0.9c0.3-0.2,0.2-0.5-0.2-0.5l-0.2,0l0.2-0.6l-7.4-2.1l0.3-0.6l9.1,0.7l0.3-0.7c-3.1-1.3-6.3-2.3-9.6-2.9c0.6-1.1-1.5-1.8-0.9-3
	c0.1-0.1,0.2-0.2,0.4-0.2l6.7-0.9c0.4,0,0.6-0.3,0.3-0.5c-0.6-0.4-1.3-0.6-2-0.6c-8.5-0.5-17-0.9-25.5-1.5l-1-0.1
	c1.1-0.3,2.3-0.7,3.1-1.2c3-2,2.4-4-1.1-4.7c-2.6-0.5-5.3-1-8-1.4c-10.1-1.4-20.9-1-31.5-1c-5.6,0-11.2,0-16.8,0.1l-1.2,0L618.2,2
	c-6.8,0-13.6-0.1-20.8,0.9c-9.9,1.4-20,0.9-29.9,1c-6.5,0-12.8-0.5-19.2-0.6c-3-0.1-6,0.1-9,0.2c12.1,1.8,25.2,0.9,37.2,2.6
	c-3.7,0-7.5,0.1-11.2,0.1c-19.2-1.6-38.2-3.4-57.5-4.5c-16-0.9-32.3-0.8-48.5-1.2c-0.4,0-0.9,0.2-1.7,0.4l5.7,1.9L463,2.9l-5-0.3
	c-0.4,0-1,0.3-1.3,0.5c-0.1,0.1,0.2,0.5,0.3,0.7c-1.2-0.2-2.5-0.4-3.8-0.5c-0.7-0.1-1.7-0.2-2.3,0.1c-2.5,1.1-5.2,1.3-7.4,1.2
	c-4.5-0.3-8.8-1.1-13.2-1.7c-1.1-0.1-2.2-0.4-3.3-0.4l-6.9-0.3l-0.3,0c-1.4-0.2-2.8-0.3-4.3-0.5l0,0l1.9,0c-3-0.5-6-1-9-1.4
	c-1-0.1-2-0.2-3-0.3H405c-0.9,0-1.7,0.3-1.2,1.2c-1.2,0-2.4,0-3.6,0c-0.3,0-0.5-0.1-0.8-0.2c-1.1-0.4-2.4-0.4-3.5,0.2l-7.6,0
	c-9.2,0-18.4,0.2-27.6,0.3l-0.4,0.8c-1.6,0.1-3.1,0.3-4.7,0.5c-9.9,1.4-20,0.9-29.9,1c-6.5,0-12.8-0.5-19.2-0.6c-3-0.1-6,0.1-9,0.2
	c11.5,1.7,23.9,1,35.4,2.4L332.9,6c-0.3,0.3-0.6,0.5-0.8,0.7c-1.3,0-2.5,0-3.7-0.1C307.5,5,286.9,3,265.9,1.7
	c-16-0.9-32.3-0.9-48.5-1.2c-0.4,0-0.9,0.2-1.7,0.4l5.7,1.9l-2.6,1.4c7.2,1.2,14.7,1.8,22.1,2.1l-0.5,0.3c-1.5,1.1-5.3,1.3-6.8,0.5
	c-1.2-0.7-3-0.9-4.5-1.4l-0.5,0.6l0.4,1.2c-1.5-0.3-2.8-0.8-4.1-0.8c-5.6-0.1-11.2-0.3-16.9-0.2c-9.2,0.2-18.5,0.6-27.8,0.7l-1.7,0
	l-2.1-0.3l0.1-0.2l6.1-0.4c-0.2-0.1-0.3-0.2-0.4-0.2c-3-0.3-6.1-0.8-9.2-1c-2.6-0.2-5.3-0.1-8-0.1h-4.5l-0.1,0.4l3.1,0.3
	c-8.3,0.2-15.9-1.3-23.7-2.4l0.4,0.7l-1.2-0.4l0.4,0.9l-3,1c-3.9,0.1-7.2-1.4-11.6-0.8l1.8,0.7l-0.1,0.1l-2.3-0.2l0.7,0.4l-1.1,0.3
	l-0.1,0.4c1,0.2,2,0.4,3,0.5c3.5,0.3,7.5,0,10.4,1.9l-3.6-0.2l0.1-0.2l1-0.2l0.1-0.3l-12.9-0.8l-0.1,0.2l7.4,1.8l-0.1,0.3
	c-1.8-0.5-2.8,0.6-4.4,1.1l2.4,0.6h0c1.8,0.2,3.6,0.4,5.3,0.7c2.6,0.5,5.3,0.1,8.1-0.3l-3-0.8l0.1-0.2l1.8-0.1c0,0,0-0.1,0.1-0.1
	l-4-0.5l0.1-0.2l5.7,0.5c-0.6,0.3-0.8,0.4-1.1,0.5l3.1,0.6l-0.1,0.2l-1.9,0.1l0,0.2l3.2,0.1l-1.4,0.5c1.5,0.3,3.1,0.7,4.7,0.9
	c0.5,0.1,1-0.1,1.6-0.1c0.3,0,0.7-0.1,1-0.2c0.2,0.6,0.5,1.1,1,1.5l-0.6,0c-2.4-0.2-4.8-0.5-7.1-0.7l-0.1,0.2
	c0.8,0.1,1.5,0.2,2.2,0.3l-0.1,0.1L129.5,13l-0.2,0.3l6,0.7l-0.1,0.2l-4.3-0.4l-0.1,0.2l3.8,0.5l-0.1,0.2l-10.8-0.2l-0.2,0.4
	c1.1,0.1,2.2,0.2,3.4,0.3c0.4,0,0.9,0,1.3,0c0.5-0.1,1-0.4,1.4-0.3c1.9,0.1,3.8,0.3,5.7,0.5c0.4,0,0.8,0.2,1.5,0.4c-1,0-1.5,0-2.1,0
	c-1.3,0-2.8,0.5-3.7-0.3c-0.1-0.1-0.6,0.1-1.2,0.2l3.6,1.6l-0.5,0.6l2.6,0.3c-2.4,0.4-4.7,0.6-7,0.8c-1.2,0.1-2.5,0-3.4,0.4
	c-1.2,0.6-2.6,0.9-4,0.8l0.8,0.7l-2.9,0.7c0.9,0.2,1.8,0.3,2.5,0.5c-1.8,0.1-3.6,0.2-5.4,0.3c-7.3,0.4-14.7,1.4-22,2.2
	c-1.2,0.1-2.4,0.6-3.6,1l0.2,0.5l3.2,0.5c-8,1.1-15.4-0.8-24.7,1.9l11.3,5.2C54.4,33.3,28,33.5,1.3,35.1L0,37c3.3,1,6.5,2,9.6,2.9
	c0.4,0.1,0.9,0.4,0.8,0.6c-1,2.2,1.8,2.1,3.4,2.3c7.8,1.1,15.6,2,23.5,3c-1.7,1.5-3.5,2.9-5.4,4.6c0.6,0.8,1,2,2.1,2.4
	c3.4,1.1,7.5,1.3,9.5,3.8c0.2,0.3,1.2,0.2,2,0.3l0.5-2.1c0.9,0.2,1.9,0.3,2,0.5c0.7,2.1,3.5,2,5.9,2.1l-0.1,0.1
	c0.3,0.2,0.5,0.2,0.7,0.3l2,0.7c-0.2,0.3-0.5,0.6-0.7,1c-0.3,0.5-0.5,1-0.8,1.4l0.5,0.5c2.5,0,5.1-0.1,7.6,0c0.9,0,2,0.5,3,0.7
	c1.5,0.3,3,0.6,4.3,0.6c0.9,0,1.6-0.4,2.3-0.7l0.7,0.6c-0.5,0.3-0.8,0.9-1.4,1c-2.5,0.3-5.1,0.6-7.7,0.5c-2.6,0-4,0.6-4.6,2.1
	l4.4,0.1l-2,0.4l1.7,0.3l-0.4,0.6l3.3,0.2l0.2,1.2l-25.2,0.6L41.7,72h7.3l0.1-0.2l-3.7-0.5l8.4-0.6c0,0,0,0.1,0,0.1
	c0.2,0.3,0.5,0.5,0.9,0.8c0.6-0.8,1.2-0.7,5.2,0.4c-1.8,0-3.1,0-4.4,0l-0.1,0.3l4.2,0.5l-0.2,0.7l-13.2,0.4l0,0.2l14.6,1.7l-0.3,0.6
	l-3.8,0.4l0,0.3l5.4,0.1L61.4,78l-0.1,0.1c-0.2,0.1-0.4,0.3-0.5,0.5L60.4,79l0.3,0.2c0,0.1,0,0.2,0,0.3c0,0.2,1.1,0.6,1.8,0.7
	c1.1,0.7,2.2,1.3,3.5,1.6l0.1,0c-2.5,0.2-5.1,0.5-6.9,1.5l1.4,0.9l-4-0.2c0.4,0.4,1,0.8,1.5,0.8c1.5,0.1,3-0.3,4.3,0.1
	c2.9,0.9,5,0.3,7.4,0.3c0.5,0,1.1,0.3,1.7,0.5c-4.3-0.1-4.9,0-4.7,1.7l5.6,0.7c-0.7,0.9-1.5,1.6-3.3,1.5c-0.3,0-0.7,0.2-0.7,0.4
	c-0.2,1.7-2.4,1.7-4.4,1.9c-0.6,0.1-1.1,0.3-1.7,0.5l0.2,0.5l12,2.8l0.1,0.3l-4.4,0.9l1,1.1c-1.6,0.2-3,0.3-4.4,0.6
	c-0.4,0.1-0.6,0.4-0.9,0.7c0.6,0.3,1.2,0.6,1.8,0.7c2.1,0.3,4.2,0.5,6.3,0.9c0.9,0.2,1.7,0.7,2.6,1c2,0.6,4,1.1,6.1,1.6
	c0.2,0,0.3,0.2,0.4,0.3c1,0.5,1.9,1,3,1.3c0.9,0.3,1.8,0.4,2.7,0.6l-0.1,0.4l-13.8-3.6l-0.1,0.4l3.2,0.9l-2,0.1l0.1,0.4l6.3,0.7
	l0.1,0.4l-3-0.3l-0.1,1.1l3.3,1.4l-0.1,0.3l-10.4-3.2l0,0.1l13.6,5l-0.2,0.4l-13.6-2.5l-0.1,0.1l10.6,3.9l-31,2.8l9.4,2.5
	c-5.5,0.7-7.5,2.3-5.9,4.2l-5.4,1.6c4,1.5,9.3,0.1,12.8,1.9l-7,0.7l-0.5,0.7c4.6,0.1,7.1,1.3,6.1,4.6c-4.9,0.4-5.7,1.2-4.4,4.4
	c1-0.1,2.1-0.1,3-0.5c1.8-0.8,1.8-0.9,2.5,0.4c1.1-0.8,2-1.8,3.2-2.3c1.5-0.5,3-0.9,4.5-1.1c0.8-0.1,2.3,0.3,2.4,0.1
	c0.6-0.7,0.8-1.5,1.2-2.3l-5.7,0.7l-0.1-0.6l7-1.5l-0.8,0.9c0.8,0.9,1.4,2.6,2.4,2.6c2,0,4.3-1,6.4-1.5l-0.2-0.9l-7.2,0.1
	c4-1.8,7-1.1,8.1,0c1,1.1,1.8,1.3,3.5,1.1c2-0.2,4-0.3,5.9-0.4c0.1,0,0.3-0.2,0.4-0.3l-1.5-0.5l6.3-0.1l-2,1.9
	c2,0.3,3.9,1.5,4.7-1.3c0.1-0.4,2.3-1.1,3.4-1c2.4,0.1,4.7,0.6,8,1l-7.5,1.2l17.4,0.4c-1.8,0.7-4.1,0.5-4.9,1.1
	c-2.3,1.8-3.2,1.1-4-0.4c-2.4,2-4,2-4.6,0.2c-6.4,2.4-12.4-0.3-19.2,2.1c3.2,0.4,5.7,0.7,8.2,1c2,0.2,4.1,0.4,6.1,0.5
	c3.9,0.2,7.8,0.4,11.7,0.6c1.4,0.1,2.8-0.1,4.1,0.1c0.6,0.1,1,0.6,2.1,1.2l-35.9,1.4l-0.2,0.9l26.5-0.3l-3.5,2.6
	c3.6,0,5.5,1.5,9.5,0.1c2.5-0.9,6.1,0.3,9.2,0.6c-2.3,0.2-4.6,0.2-7,0.3c-2.5,0.1-5.1,0.5-7.7,0.6c-2.4,0.1-4.8,0.1-7.2,0
	c-4.8-0.1-5.8-0.2-6-0.8c6.6,0.8,6.7,0.7,8.3-2.2c-2.8,0.5-5.5,0.9-8.2,1.3c-0.5,0.1-1,0-1.4-0.2c-2.8-1.2-4.7-0.7-7,2.1l5.8-0.7
	c-0.1,0.6,0,1.5-0.4,2.3c-0.1,0.2-1.8,0.6-2.2,0.4c-2.1-1.1-3.9,0.8-5.8,0.7c6.2,0.2,12.2,1.4,19.4-0.2c2.1,1.5,3,1.5,4.7-0.3l8.5,1
	l0,0.5l-28.3,1.3l-0.2,1.1c3.4-0.1,6.8-0.4,10.2-0.3c1.4,0,2.5,0.9,3.9,0.9c6.8-0.3,13.6-0.9,20.3-1.1c1.9-0.1,3.7,0.6,5.9,1
	c-2.8,1.3-5.8-0.8-7.6,2l7.9-0.1l1.4-2.4c0.6,2.1,1.1,3,4,1.8c1.4-0.6,4.4-0.9,5-0.4c1.6,1.5,3.1,1.3,5.4,0.1c0.6-0.3,1.9,0,2.7,0.2
	c0.3,0.1,0,0.9-0.1,1.5l6.3,0.2c-0.7-0.7-1.1-1.2-1.6-1.5c-0.2-0.1-0.9,0.1-1.3,0.1c0.5-0.3,1-0.8,1.5-0.9c1.3-0.2,2.5-0.3,3.8-0.2
	c1.3,0.2,2.4,0.7,3.8,1.2l-2.2,1.5c2.9,0.5,5.5,0.6,7.7-1.5c0.3-0.3,1.2-0.6,1.6-0.5c2.5,0.7,5,1.5,7.7,2.3
	c4.2-2.1,9.3-2.2,10.6,0.3l1.6-1.4c1.4,0.3,2.7,1,3.5,0.8c4.1-1.3,8,0.9,12.1-1.3c0,0,0.1,0,0.2,0l-1.4,0.5l0,0.4l7.7-0.1l-0.5-0.7
	l8.2,1.3c0.1-1.2-0.3-1.8-1-2.1c8-0.6,16-1,24-2.1c3-0.4,5.9-0.9,8.9-1.3l-0.4,0.8c-1.9,0-3.7-0.4-4.9,1.5l7.9-0.1l0.6-1.1l1.2-0.1
	c0.5,1.2,1.4,1.5,3.6,0.5c0.3-0.1,0.7-0.2,1.1-0.3c0.4,0.1,0.7,0.1,1.1,0.2c-4.5,0.8-8.9,1.7-13.4,2.8c5.8,0,11.5-0.4,17.2-1.2
	c2.4-0.4,4.8-0.8,7.2-1.1c0,0.3-0.2,0.8-0.2,1.1l6.3,0.2c-0.7-0.7-1.1-1.2-1.6-1.5c-0.2-0.1-0.9,0.1-1.3,0.1
	c0.2-0.1,0.4-0.3,0.6-0.5c0.4-0.1,0.8-0.1,1.2-0.2l4.6-0.2c0.8,0.3,1.6,0.6,2.6,0.9l-2.2,1.5c1.4,0.2,2.7,0.4,3.9,0.2l-0.2,0.3
	l10.8-1l2.5,0.8c1.1-0.6,2.3-1,3.5-1.2l0,0l0,0c3.2-0.7,6.2-0.3,7.1,1.5l1.6-1.4c1.1,0.3,2.1,0.7,2.9,0.8l-0.1,0.4
	c3.4-0.1,6.8-0.4,10.2-0.3c1.4,0,2.6,0.9,3.9,0.9c6.8-0.3,13.6-0.9,20.3-1.1c1.9-0.1,3.7,0.6,5.9,1c-2.8,1.3-5.8-0.8-7.6,2l7.9-0.1
	l1.3-2.4c0.6,2.1,1.1,3,4.1,1.8c1.4-0.6,4.4-0.9,4.9-0.4c1.6,1.5,3.1,1.3,5.4,0.2c0.6-0.3,1.9-0.1,2.7,0.2c0.3,0.1,0,0.9-0.1,1.5
	l6.3,0.2c-0.7-0.7-1.1-1.2-1.6-1.5c-0.2-0.1-0.9,0.1-1.3,0.1c0.5-0.3,1-0.9,1.5-0.9c1.3-0.2,2.7-0.4,3.8-0.2
	c1.3,0.2,2.4,0.7,3.7,1.2l-2.2,1.5c2.9,0.5,5.5,0.6,7.7-1.5c0.3-0.3,1.2-0.6,1.6-0.5c2.5,0.7,4.9,1.5,7.7,2.3v0
	c4.2-2.1,9.3-2.2,10.6,0.2l1.6-1.4c1.4,0.3,2.7,1,3.5,0.7c4.1-1.3,8,0.9,12.1-1.3c0,0,0,0,0.2,0l-1.4,0.5l0,0.4l7.7-0.1l-0.5-0.7
	l8.2,1.3c0.4-3.4-3.7-2.1-6.1-2.9c1.4-0.8,2.2-1.9,3.8-0.6c0.4,0.4,1.6,0.2,2.6,0.4c0.5-1,1.2-1.8,1.6-2.7l2.1-0.2v1.6l10.4-0.1
	l-0.3,0.1c1,0.5,2.1,0.8,3.3,0.7c4.7-0.4,9.4-0.6,14.1-1l-0.5,0.8c3.3-0.2,6.8-0.9,9.4-0.4c3,0.6,6.1,0.4,9-0.5l3.7-0.1
	c0.3,0.2,0.6,0.4,0.9,0.5c-2.2,0.5-4.5,1-6.7,1.5c5.8,0,11.5-0.4,17.2-1.2l4.1-0.6l-1.8,3.2l16.6-1.5l-0.7-0.5
	c2.4,0.3,4.6,0.2,6.5-1.5c0.7-0.1,1.5-0.2,2.3-0.4c0.1,0,0.3,0,0.4,0c2.2,0.6,4.4,1.3,6.8,2.1c4.2-2.1,9.3-2.2,10.6,0.3l1.6-1.4
	c1.4,0.3,2.7,1,3.5,0.8c4.1-1.3,8,0.9,12-1.3c0,0,0.1,0,0.2,0l-1.4,0.5l0,0.4l7.7-0.1l-0.5-0.7l8.2,1.3c0.4-3.4-3.7-2.1-6.1-2.9
	c1.4-0.8,2.2-1.9,3.8-0.6c0.4,0.4,1.6,0.2,2.6,0.4c0.7-1.3,1.8-2.5,2-3.7l0.1-0.6l1.6-0.2v3.2l16.6-0.2l-1-2.9l0.9-0.4
	c0.3,0.4,0.3,1.3,0.8,1.3c2.6,0.3,5.3,0.4,8,0.6c0.9,0.1,1.8,0.2,2.7,0.2c-0.3,0.5-0.6,1-1,1.8c3.3-0.2,6.8-1,9.4-0.4
	c4.4,0.9,8.2-0.1,11.4-1.4c1.1,0.6,1.9,1.5,2.9,1.5c4.5,0,9.1-0.3,14-0.5l-1.9,3.3l16.6-1.6c0,0,0.1,0.1,0.1,0.1l-4.1-3.1
	c1.3,0,2.6-0.3,3.2,0c2.5,1.5,5.5,1.3,8.8,0.6c1.2-0.2,2.4,0.1,3.6,0.1c1.7,0,3.8,0.5,4.9-0.1c4.7-2.3,10.4-3,14.6-6.5
	c3.3-2.8,5.3-5.1,2.5-7.5c2.5-0.3,5.4-1.1,6.9-0.6c3.1,1.2,5.3-0.2,7.4-1.3c5.1,1.6,9.8,0.2,14.5-1.8c0.1,0,0.1-0.3,0.1-0.4
	l-2.5-0.1l0.2-0.6l30.7-0.4c0-0.1,0.1-0.2,0.1-0.4l-4.5-1.1l0.3-0.5l4.3-0.2l0.2-0.6l-9-0.3c0-0.1,0.1-0.2,0.1-0.3l23.9-0.3
	c-17.3-1.2-35-1.5-52.4-2.7h0l0.4-1.2l67.8,1.1v0C787.8,119.7,785.2,119.7,782.7,119.6z M710.5,52.1L710.5,52.1
	c0.1,0.1,0.1,0.2,0.2,0.3l-0.3-0.1L710.5,52.1z M733.7,45.4h0.1l-0.2,0.7c-0.4,0-0.7,0-1.1,0L733.7,45.4z M690.9,47.9l0.6-0.1
	c0.3,0.1,0.6,0.1,0.9,0.2c0.4,0.1,0.7,0.2,0.8-0.3c0-0.1,0.1-0.1,0.1-0.2l1.2-0.2c0.2,0,0.4,0.1,0.4,0.2h0c0.1,0.5,0.5,0.7,1,0.8
	l-5.1-0.2L690.9,47.9z M68,83c-1.4,0-2.7,0-3.9,0c0.8-0.3,1.6-0.6,2.5-0.8c0.2,0,0.4-0.1,0.6-0.1c1.4,0.3,2.8,0.6,4.2,0.9
	C70.2,83,69.1,83,68,83z M71.8,83.5L72,83l1.7,0.3L71.8,83.5z M74,84.6l-0.4-0.4l0.6-0.7h0l1.7,0.3C75.2,84,74.6,84.3,74,84.6z
	 M83.9,89.9l0.1,0.2l-1-0.1c-2.8-0.3-5.5-1.2-7.9-2.7l6.3,0.7c0.5,0.1,0.9,0.1,1.4,0.2c0.5,0.1,0.9,0.4,1.3,0.7c0,0,0.1,0,0.1,0.1
	C83.9,89.3,83.8,89.5,83.9,89.9z M80.5,63.5l-0.3-0.6h0L92,62.5l0.2,0.4L80.5,63.5z M109.7,61.3l-10.8-0.2l-0.2,0.4
	c1.1,0.1,2.2,0.2,3.4,0.3c0.4,0,0.9,0,1.3,0c0.5-0.1,1-0.4,1.4-0.3c1.5,0.1,3.1,0.3,4.6,0.4c-0.9,0.2-1.9,0.4-2.9,0.4
	c-0.1-0.1-0.3-0.2-0.4-0.3c-0.1-0.1-0.5,0.1-1.2,0.2l0.1,0c-0.3,0-0.6-0.1-0.9-0.1c-2.8-0.5-5,0-7.6-0.1c-2-0.1-3.9,0.1-5.9,0.2
	C96.3,60.6,102.9,61,109.7,61.3L109.7,61.3z M112.9,139.9l0-0.7l11.9-0.6L123,137l3.9-2.1l5.1,2.3l0,0l-5.8,0.3
	c2.6,0.7,4.4,1.2,6.1,1.7C125.6,140.1,118.9,141.5,112.9,139.9z M157.9,17.5c-1.9,0.2-3.2-0.4-4.8-0.6c-0.7-0.1-1.3-0.3-2-0.2
	c-3.5,0.2-6.9,0.2-10.2-0.4c1.5,0,2.9,0.1,4.4,0.1c2.4,0,4.7-0.1,7.1-0.1c1.3,0,2.6-0.3,3.6,0.5c0.3,0.3,1.7-0.1,2.7-0.2
	c1.2,0.2,2.6,0.3,3.8,0.5C161,17.2,159.5,17.3,157.9,17.5z M163.2,6.9l0.1-0.5c2.3-0.2,4.5-0.2,6.8,0.2l-3-0.1l0,0.1l0.5,0.1
	L167.5,7L163.2,6.9z M164.7,137.5L164.7,137.5l5.4-0.5c0.1,0.7,0.3,1.4,0.6,2C166.9,139.4,164.6,138.8,164.7,137.5z M191.1,139.1
	l-0.5-0.1l1.5-0.1C191.7,139,191.3,139.2,191.1,139.1z M216.6,151c-0.7-0.1-1.4-0.1-2-0.3c1.4-0.8,2.2-1.9,3.8-0.6l0,0l-2.3,0.7
	L216.6,151z M221.8,149.1c0.3-0.4,0.5-0.8,0.7-1.2l0.7-0.1c0,0.3,0,0.6,0,0.9L221.8,149.1z M232.4,138.4l-3,0.4l0.1-0.3l-1.3,0.2
	c-0.6-0.2-1.3-0.4-1.9-0.7h0l6.7-0.1L232.4,138.4z M239.9,9.7l1.4-1.4l4.5,0.9L239.9,9.7z M328.4,150L328.4,150L328.4,150
	c0.1,0,0.1,0,0.2,0H328.4z M341.8,149.4c-1.3-0.8-3.7-0.3-5.4-0.9l0.8-0.5h0l7,0.8l0,0.5L341.8,149.4z M346.5,144.6l-1.7,0v0
	l0.1-0.6l1.4-0.1l0.3,0V144.6z M348.4,144.5L348.4,144.5l0-0.3c0.6,0.1,1.2,0.2,1.8,0.2L348.4,144.5z M454.4,149.3L454.4,149.3
	l-4.3-0.3c1.4-0.1,2.9-0.2,4.3-0.3L454.4,149.3z M455.6,140.9c-0.3,0-0.5,0-0.8,0c0,0,0,0,0,0v0c0,0,0,0,0,0
	c0.6-0.4,1.3-0.8,1.9-1.3h0.5C456.6,140,456,140.4,455.6,140.9z M460.5,141.4l-0.1-0.3l0.1,0L460.5,141.4z M463,140.9
	c0,0-0.1-0.1-0.1-0.1l0.5,0.1L463,140.9z M463.9,149l-0.4-1.1l1-0.1c0.1,0.3,0.2,0.6,0.4,0.7l0,0.2L463.9,149z M463.1,139.9
	c-0.5,0.1-1,0-1.4-0.2h0c-0.1,0-0.3-0.1-0.4-0.2l4,0L463.1,139.9z M474.8,140.8c-1.7,0-3.4,0-5.1,0c0.4-0.3,0.7-0.7,1.1-1.3l1.9,0
	l0,0h0l0,0l-0.7,0.5c2,0,3.4,0.4,5,0.6C476.3,140.7,475.5,140.8,474.8,140.8z M474,7.1l0-0.1c0.5,0,1.1-0.2,1.6-0.1
	c1,0.1,2.1,0.2,3.1,0.4L474,7.1z M480.2,7.2c-0.4,0-0.9,0-1.3,0l0.3-0.4c-0.4-0.2-0.7-0.4-1.1-0.6c2.1,0.1,4.1,0.2,6.2,0.3l0,0v0
	c0,0,0,0,0,0L484,6.9l0.4,1.2C482.8,7.7,481.6,7.3,480.2,7.2z M494.5,148L494.5,148l0.4-0.1l0.3,0.1L494.5,148z M495.8,7.2
	c-1.5,1.1-5.3,1.3-6.8,0.5l0,0c-1-0.5-2.2-0.8-3.4-1.1c3.6,0.1,7.2,0.2,10.7,0.3C496.1,6.9,496,7,495.8,7.2z M526,151l-2.7-2
	c0.6,0,1.2-0.1,1.8-0.1c0.9,0.3,1.7,0.6,2.7,1L526,151z M594.9,145.5l-4.8-0.3h0l0.2-1.4l4.8-0.7L594.9,145.5z M608.9,141.8l0.9-0.1
	C609.2,142,609.1,142,608.9,141.8z M629.5,143.4c3.6,0,7.2-0.1,10.7-0.1C639.5,144.3,634.3,144.7,629.5,143.4z M655.2,32l1.2,0h0
	l-0.2,0.2c-0.4,0-0.7,0-1.1,0L655.2,32z M654.8,34.3L654.8,34.3l0.2,0L654.8,34.3z M662.6,33.7c-1.9-0.3-3.9,0-5.9,0.4l0-0.2
	l0.8-0.3l-1.3-0.1l0.5-0.3l-1.7-0.2l0.1-0.5l0.1,0h0l7,1c0.1,0,0.2,0,0.3,0.1L662.6,33.7z M662.8,126.3L662.8,126.3l0.3-0.4l0.4,0.4
	L662.8,126.3z M668.7,125.6l-1.1,0.2c-1.2-0.5-2.4-0.8-3.8-1.1l0.7-1.1c1.5,0.2,3.1,0.4,4.6,0.8
	C669.3,124.4,668.9,125.6,668.7,125.6z M683.9,33.1c1.3,0.2,2.6,0.5,4,0.7h0l-0.2,0.3l-4-0.7L683.9,33.1z M681.6,32.7L681.6,32.7
	l2.6,1l-3.2-1L681.6,32.7z M681.4,34.3c-2.3,0.1-3.6-0.9-5.3-1.4C678.3,32.5,680.3,33.1,681.4,34.3z M675.2,35.5l0.8-0.1l-0.3-0.7
	l3.2,1L675.2,35.5z M679.2,35.7l0.1-0.1l-1-0.3c1.2,0.1,2.3,0.2,3.4,0.6L679.2,35.7z M686.9,48C686.8,48,686.8,47.9,686.9,48
	L686.9,48c-2-0.1-4-0.2-5.9-0.3l-0.1,0c0,0,0,0,0,0l0,0l0,0c2.3,0.1,4.5,0.2,6.8,0.3L688,48L686.9,48z M745,117.2l-12.7-1h0l0.3-0.7
	l12.8,0.8L745,117.2z M777.5,119.1l-9.5-0.3l0.2-0.8l9.4,0.3L777.5,119.1z"/>
</svg>
