<svg width="30" height="19" viewBox="0 0 30 19" fill="none" xmlns="http://www.w3.org/2000/svg">
<path d="M18.1172 9.03825C17.8297 9.13772 17.5313 9.22235 17.2216 9.28993L17.2214 9.28997C17.1101 9.31424 16.8783 9.36208 16.6078 9.36269C16.3294 9.36332 15.8018 9.31551 15.2927 8.939C14.7662 8.54976 14.5604 8.03415 14.4793 7.71253C14.4044 7.41561 14.4004 7.14959 14.4015 7.00822C14.409 5.98539 14.4091 4.96159 14.4092 3.92929L14.4092 3.83315C14.4092 3.30949 14.4093 2.78369 14.4105 2.25662C14.1839 2.2572 13.9573 2.25721 13.7307 2.25663C13.7342 3.95734 13.7349 5.6614 13.7357 7.36359C13.7364 9.06172 13.7371 10.758 13.7406 12.4472L18.1172 9.03825ZM18.1172 9.03825L17.5871 9.36035L20.6923 11.0099C23.1296 12.3047 24.9141 14.0529 26.1012 16.323C25.8203 16.323 25.54 16.3228 25.2599 16.3227C23.8981 13.4227 21.6936 11.1759 18.3204 10.2004L18.3197 10.2002C18.0501 10.1223 17.7934 10.0722 17.6118 10.0376C17.5809 10.0317 17.5521 10.0263 17.5251 10.0211C17.3709 9.99187 17.2759 9.97386 17.1807 9.95062L17.1801 9.95046C17.1776 9.94985 17.1749 9.94918 17.1719 9.94845C16.9932 9.90453 15.9185 9.64032 15.0575 10.4899C14.6569 10.8851 14.5161 11.3329 14.4615 11.5862C14.4077 11.8359 14.4043 12.0542 14.4049 12.1688C14.4086 12.9746 14.4086 13.799 14.4087 14.6287C14.4088 15.1748 14.4088 15.7232 14.4099 16.2702C12.5945 16.1261 10.9012 15.7136 9.3206 14.9217L9.32052 14.9217C6.86592 13.6921 5.12273 11.7654 3.91843 9.20098L18.1172 9.03825ZM3.12775 2.25156C3.22731 3.38425 3.40107 4.52913 3.68734 5.67372C4.23559 7.86599 5.14095 10.0584 6.8275 11.932L3.12775 2.25156ZM3.12775 2.25156C2.81002 2.25219 2.49247 2.25228 2.17515 2.25194C2.3946 4.72852 2.90816 7.04898 3.91834 9.20079L3.12775 2.25156ZM24.6877 2.2502C23.9476 4.03955 22.866 5.64009 21.4022 6.99195L24.6877 2.2502ZM24.6877 2.2502C24.8752 2.25071 25.0626 2.251 25.2499 2.25112C24.8327 3.18215 24.2805 4.05684 23.6006 4.88587L24.6877 2.2502ZM10.8017 14.5867L10.7991 14.5859C9.18749 14.0504 7.88451 13.1064 6.82766 11.9322L10.8017 14.5867ZM10.8017 14.5867C10.9103 14.6226 11.1517 14.6992 11.4458 14.7202M10.8017 14.5867L11.4458 14.7202M11.4458 14.7202C11.7556 14.7423 12.3644 14.7181 12.9301 14.267M11.4458 14.7202L12.9301 14.267M12.9301 14.267C13.4726 13.8344 13.633 13.2782 13.6858 13.0281M12.9301 14.267L13.6858 13.0281M13.6858 13.0281C13.7396 12.7733 13.7409 12.5473 13.7406 12.4481L13.6858 13.0281ZM12.1039 2.24223C12.1048 2.24224 12.1058 2.24226 12.1067 2.24227L12.1006 2.24218L12.1039 2.24223ZM16.033 2.24291C16.0423 2.24277 16.0403 2.24315 16.0289 2.24297L16.0314 2.24294L16.033 2.24291ZM16.0327 16.3305C16.0431 16.3302 16.0456 16.3304 16.0389 16.3304L16.0327 16.3305ZM3.0311 0.620149L3.03118 0.622771C3.03041 0.609533 3.0307 0.607504 3.0311 0.620149L3.0311 0.620149ZM2.0561 0.341438C2.05635 0.343688 2.05743 0.353684 2.05849 0.37048L2.0561 0.341438ZM0.322815 2.24586C0.318723 2.24587 0.315935 2.24584 0.314543 2.24582L0.317034 2.24583C0.318961 2.24584 0.320888 2.24585 0.322815 2.24586ZM9.74064 12.4573C9.74067 12.4683 9.74022 12.4647 9.74063 12.4495L9.74064 12.4564L9.74064 12.4573ZM18.4048 12.1484C18.4048 12.1489 18.4048 12.1497 18.4048 12.1505L18.4048 12.1484ZM16.0029 0.24314L16.0029 0.243734L16.0029 0.24314ZM18.4014 7.03901L18.4014 7.03759C18.4014 7.03837 18.4014 7.03885 18.4014 7.03901ZM23.5687 2.24376L23.5671 2.24374C23.5685 2.24376 23.5699 2.24377 23.5713 2.24378C23.5704 2.24377 23.5695 2.24377 23.5687 2.24376ZM25.0845 1.17463C25.0866 1.16816 25.0887 1.16169 25.0908 1.15522L25.0912 1.15403C25.091 1.15463 25.0889 1.16184 25.0845 1.17463ZM16.3723 5.38112C16.3712 5.38135 16.3702 5.38158 16.3691 5.38181L16.3723 5.38112Z" fill="white" stroke="white" stroke-width="4"/>
</svg>
