<svg width="94" height="63" viewBox="0 0 94 63" fill="none" xmlns="http://www.w3.org/2000/svg">
<path d="M23.7285 27.1393L26.9415 25.4912H28.4731C28.523 25.4912 28.523 25.5245 28.523 25.5578C28.523 25.6077 28.4731 25.641 28.3898 25.6743L24.7606 27.5056L28.4065 29.5033C28.5397 29.5699 28.523 29.6864 28.3898 29.6864H27.0247L23.8617 27.9717C23.7118 27.8885 23.6452 27.8718 23.5454 27.8718C23.4288 27.8718 23.3622 27.9717 23.3622 28.1049V29.7031H22.6797V25.5245H23.3622V27.0228C23.3622 27.1726 23.4122 27.2226 23.4954 27.2226C23.5787 27.2059 23.6453 27.1726 23.7285 27.1393Z" fill="white"/>
<path d="M30.0058 27.5888C30.0058 28.2381 30.4719 28.6709 31.1211 28.6709H34.0511C34.7836 28.6709 35.1998 28.2547 35.1998 27.5888C35.1998 26.9729 34.7836 26.4901 34.0345 26.4901H31.2044C30.5218 26.4901 30.0058 26.9063 30.0058 27.5888ZM30.0058 25.4912V26.4568C30.0058 26.4568 30.4219 25.4912 31.8203 25.4912H33.6016C34.9501 25.4912 35.7991 26.2736 35.7991 27.5722C35.7991 28.8207 35 29.6698 33.6349 29.6698H31.7704C30.8548 29.6698 30.3221 29.3535 30.0224 28.7874V30.6353H29.3398V25.4912H30.0058Z" fill="white"/>
<path d="M37.3964 26.9562C37.3964 27.2393 37.6128 27.4224 37.979 27.4224H42.1243C42.4906 27.4224 42.707 27.2393 42.707 26.9562C42.707 26.6732 42.4739 26.5068 42.1243 26.5068H37.9457C37.6294 26.4901 37.3964 26.6732 37.3964 26.9562ZM39.0112 29.6698C37.6128 29.6698 36.7305 28.9207 36.7305 27.5556C36.7305 26.3902 37.3964 25.4746 38.7448 25.4746H41.475C42.6071 25.4746 43.3229 26.0073 43.3229 26.873C43.3229 27.5223 42.8901 27.9884 41.9745 27.9884H38.2787C37.6627 27.9884 37.413 27.8219 37.2465 27.5389C37.3131 28.3047 37.9125 28.7043 38.6449 28.7043H42.8402V29.6698H39.0112Z" fill="white"/>
<path d="M44.8532 27.6055C44.8532 28.2714 45.3027 28.6709 45.9686 28.6709H48.6822C49.3481 28.6709 49.8975 28.2214 49.8975 27.5888C49.8975 26.8896 49.398 26.5067 48.6655 26.5067H45.9353C45.2361 26.4901 44.8532 26.9729 44.8532 27.6055ZM44.2539 27.5722C44.2539 26.2903 45.1529 25.4912 46.4847 25.4912H48.0163C49.5312 25.4912 49.8975 26.4401 49.8975 26.4401V25.4912H50.58V29.6698H49.8975V28.7375C49.5811 29.3368 48.8986 29.6698 47.983 29.6698H46.5013C45.1362 29.6698 44.2539 28.8374 44.2539 27.5722Z" fill="white"/>
<path d="M51.5137 25.4912H57.6733V26.4901H55.2094C55.0263 26.4901 54.9431 26.5733 54.9431 26.8064V29.6698H54.2605V26.8064C54.2605 26.5567 54.1773 26.4901 53.9942 26.4901H51.5303V25.4912H51.5137Z" fill="white"/>
<path d="M59.6532 29.4378C59.3536 29.6376 59.1871 29.6875 59.004 29.6875C58.721 29.6875 58.6211 29.5044 58.6211 29.1881V25.4757H59.3036V28.1227C59.3036 28.2891 59.3702 28.3391 59.4535 28.3391C59.57 28.3391 59.7032 28.2558 59.903 28.1227L63.4989 25.6921C63.7985 25.4923 63.9816 25.4424 64.1481 25.4424C64.4311 25.4424 64.531 25.6255 64.531 25.9418V29.6542H63.8485V27.0073C63.8485 26.8408 63.7819 26.7742 63.6986 26.7742C63.5821 26.7742 63.4489 26.8574 63.2491 26.9906L59.6532 29.4378Z" fill="white"/>
<path d="M71.4073 28.2547C71.4073 27.955 71.1243 27.8218 70.758 27.8218H66.8958C66.5961 27.8218 66.3298 27.9384 66.3298 28.2713C66.3298 28.5044 66.5961 28.7042 66.8958 28.7042H70.758C71.1576 28.7042 71.4073 28.5377 71.4073 28.2547ZM66.3131 26.8563C66.3131 27.1226 66.5296 27.2558 66.8126 27.2558H70.4417C70.7414 27.2558 70.9412 27.0893 70.9412 26.8563C70.9412 26.6232 70.7248 26.4567 70.4417 26.4567H66.8126C66.5296 26.4567 66.3131 26.6232 66.3131 26.8563ZM71.3574 27.3058C71.657 27.4056 72.0066 27.7053 72.0066 28.2547C72.0066 29.2202 71.3074 29.6864 70.3252 29.6864H65.7305V25.5078H70.242C70.9911 25.5078 71.5738 25.924 71.5738 26.6399C71.5571 26.9395 71.4573 27.1559 71.3574 27.3058Z" fill="white"/>
<path d="M77.8825 27.9884H74.1701C73.9037 27.9884 73.7372 28.1049 73.7372 28.4212V29.6698H73.0547V25.4912H73.7372V26.5733C73.7372 26.8896 73.8871 26.9895 74.1701 26.9895H77.8659C78.1489 26.9895 78.332 26.873 78.332 26.5567V25.4912H79.0145V29.6698H78.332V28.4212C78.332 28.0882 78.1822 27.9884 77.8825 27.9884Z" fill="white"/>
<path d="M80.6306 27.6055C80.6306 28.2714 81.08 28.6709 81.746 28.6709H84.4595C85.1254 28.6709 85.6748 28.2214 85.6748 27.5888C85.6748 26.8896 85.1754 26.5067 84.4262 26.5067H81.7127C81.0135 26.4901 80.6306 26.9729 80.6306 27.6055ZM80.0312 27.5722C80.0312 26.2903 80.9302 25.4912 82.262 25.4912H83.7936C85.3085 25.4912 85.6748 26.4401 85.6748 26.4401V25.4912H86.3574V29.6698H85.6748V28.7375C85.3585 29.3368 84.6759 29.6698 83.7603 29.6698H82.2787C80.9302 29.6698 80.0312 28.8374 80.0312 27.5722Z" fill="white"/>
<path d="M92.0177 26.5067H88.6549C88.272 26.5067 87.989 26.7398 87.989 27.0894C87.989 27.4723 88.2887 27.6887 88.6882 27.6887H92.0011C92.4672 27.6887 92.7336 27.4223 92.7336 27.106C92.7336 26.7231 92.4506 26.5067 92.0177 26.5067ZM89.0711 25.4912H93.3163V29.6698H92.6337V28.0549L89.171 29.6698H87.5062C87.3897 29.6698 87.4063 29.5699 87.4896 29.5366L90.303 28.2547H88.888C88.0223 28.2547 87.373 27.8552 87.373 26.9396C87.3897 26.0905 87.989 25.4912 89.0711 25.4912Z" fill="white"/>
<path d="M26.2579 37.5448H22.6953V36.5793H26.6907C27.34 36.5793 27.7728 36.2463 27.8561 35.6969H23.4278V35.1143H27.8561C27.7229 34.5982 27.3067 34.3152 26.6907 34.3152H22.6953V33.3496H26.2579C27.5398 33.3496 28.472 34.1154 28.472 35.4472C28.472 36.7291 27.5731 37.5448 26.2579 37.5448Z" fill="white"/>
<path d="M30.6035 34.9987L33.8331 33.3506H35.3647C35.398 33.3506 35.4147 33.3839 35.4147 33.4172C35.4147 33.4505 35.3647 33.4838 35.2815 33.5338L31.6523 35.365L35.2981 37.3627C35.4313 37.446 35.4147 37.5292 35.2648 37.5292H33.8997L30.7367 35.8145C30.5868 35.7312 30.5203 35.6979 30.4204 35.6979C30.3038 35.6979 30.2372 35.7978 30.2372 35.931V37.5125H29.5547V33.334H30.2372V34.8323C30.2372 34.9987 30.2872 35.032 30.3704 35.032C30.4703 35.0653 30.5369 35.0487 30.6035 34.9987Z" fill="white"/>
<path d="M36.5485 35.4306C36.5485 36.0798 36.9814 36.5127 37.6639 36.5127H40.7271C41.3431 36.5127 41.8092 36.0465 41.8092 35.4306C41.8092 34.798 41.3763 34.3818 40.6938 34.3818H37.614C36.9148 34.3818 36.5485 34.8312 36.5485 35.4306ZM35.9492 35.4472C35.9492 34.182 36.7816 33.3496 38.0801 33.3496H40.2776C41.5928 33.3496 42.4085 34.1154 42.4085 35.4472C42.4085 36.7124 41.5928 37.5282 40.2776 37.5282H38.0801C36.7816 37.5448 35.9492 36.779 35.9492 35.4472Z" fill="white"/>
<path d="M48.3337 35.8634H44.6213C44.3549 35.8634 44.1884 35.9965 44.1884 36.2962V37.5448H43.5059V33.3662H44.1884V34.4483C44.1884 34.7646 44.3382 34.8645 44.6213 34.8645H48.317C48.6 34.8645 48.7832 34.748 48.7832 34.4317V33.3662H49.4657V37.5448H48.7832V36.2962C48.7832 35.9466 48.6333 35.8634 48.3337 35.8634Z" fill="white"/>
<path d="M51.1638 35.4306C51.1638 36.0798 51.6133 36.5127 52.2792 36.5127H55.3423C55.9583 36.5127 56.4244 36.0465 56.4244 35.4306C56.4244 34.798 55.9749 34.3818 55.309 34.3818H52.2459C51.53 34.3818 51.1638 34.8312 51.1638 35.4306ZM50.5645 35.4472C50.5645 34.182 51.3802 33.3496 52.6954 33.3496H54.8928C56.208 33.3496 57.0237 34.1154 57.0237 35.4472C57.0237 36.7124 56.1914 37.5282 54.8928 37.5282H52.6954C51.3968 37.5448 50.5645 36.779 50.5645 35.4472Z" fill="white"/>
<path d="M61.5192 35.5138C61.6024 35.5138 61.6523 35.4805 61.9021 35.2474L63.983 33.3662H65.165V37.5448H64.4825V34.2152L62.0519 36.4294C61.9021 36.5626 61.8355 36.6291 61.7356 36.6291C61.6357 36.6291 61.5691 36.5626 61.4359 36.446L59.1386 34.2152V37.5448H58.123V33.3662H59.2051L61.1363 35.2307C61.3527 35.4472 61.4359 35.5138 61.5192 35.5138Z" fill="white"/>
<path d="M67.4121 37.3117C67.1124 37.5115 66.9293 37.5781 66.7628 37.5781C66.4798 37.5781 66.3633 37.3949 66.3633 37.0953V33.3829H67.0458V36.0298C67.0458 36.1963 67.1124 36.2629 67.1957 36.2629C67.3122 36.2629 67.4454 36.1797 67.6452 36.0465L71.241 33.6159C71.5407 33.4162 71.7238 33.3662 71.8903 33.3662C72.1733 33.3662 72.2732 33.5493 72.2732 33.8656V37.5781H71.5906V34.9311C71.5906 34.7646 71.524 34.698 71.4408 34.698C71.3243 34.698 71.1911 34.7813 70.9913 34.9144L67.4121 37.3117Z" fill="white"/>
<path d="M74.5048 34.9987L77.7345 33.3506H79.266C79.2993 33.3506 79.316 33.3839 79.316 33.4172C79.316 33.4505 79.266 33.4838 79.1828 33.5338L75.5536 35.365L79.1994 37.3627C79.3326 37.446 79.316 37.5292 79.1828 37.5292H77.8177L74.6546 35.8145C74.5048 35.7312 74.4382 35.6979 74.3383 35.6979C74.2218 35.6979 74.1552 35.7978 74.1552 35.931V37.5125H73.4727V33.334H74.1552V34.8323C74.1552 34.9987 74.2052 35.032 74.2884 35.032C74.355 35.0653 74.4382 35.0487 74.5048 34.9987Z" fill="white"/>
<path d="M80.3649 35.4638C80.3649 36.1297 80.8144 36.5293 81.4803 36.5293H84.1939C84.8598 36.5293 85.4092 36.0798 85.4092 35.4472C85.4092 34.748 84.9097 34.3651 84.1606 34.3651H81.447C80.7478 34.3651 80.3649 34.8479 80.3649 35.4638ZM79.7656 35.4472C79.7656 34.1653 80.6646 33.3662 81.9964 33.3662H83.528C85.0429 33.3662 85.4258 34.3151 85.4258 34.3151V33.3662H86.1084V37.5448H85.4258V36.6125C85.1095 37.2118 84.427 37.5448 83.5113 37.5448H82.0297C80.648 37.5448 79.7656 36.7124 79.7656 35.4472Z" fill="white"/>
<path d="M1.25391 0.652344V62.5316" stroke="white" stroke-width="0.878995" stroke-miterlimit="10"/>
<path d="M72.4727 0.652344V22.2943" stroke="white" stroke-width="0.878995" stroke-miterlimit="10"/>
<path d="M1.25391 62.2653H72.7389H1.25391ZM72.4725 40.873V62.515V40.873Z" fill="white"/>
<path d="M1.25391 62.2653H72.7389H1.25391ZM72.4725 40.873V62.515V40.873Z" fill="white"/>
<path d="M1.25391 62.2653H72.7389M72.4725 40.873V62.515" stroke="white" stroke-width="0.878995" stroke-miterlimit="10"/>
<path d="M1.25391 0.918945H72.7555" stroke="white" stroke-width="0.878995" stroke-miterlimit="10"/>
</svg>
