<svg width="99" height="55" viewBox="0 0 99 55" fill="none" xmlns="http://www.w3.org/2000/svg">
<path d="M75.9004 49.7307C75.9004 49.7307 75.8838 49.3478 75.8671 49.1147C75.8671 48.9482 76.1335 48.6486 76.2334 48.5487C76.4498 48.3323 76.5164 48.299 76.533 47.9327C76.533 47.8661 76.533 47.6331 76.533 47.6331C76.5497 47.4333 76.5497 47.3334 76.6329 47.3334C76.6829 47.3168 76.7494 47.45 76.7661 47.683C76.7661 47.683 76.816 47.9327 76.7994 48.0992C76.7827 48.6153 76.7161 48.7318 76.5663 48.8817L76.4498 48.9815C76.2334 49.198 76.0835 49.3145 76.0669 49.6641L76.0502 49.8306C76.0502 49.8972 76.0169 49.9804 75.967 49.9804C75.9004 49.9804 75.9004 49.8306 75.9004 49.7307ZM40.4243 49.7307C40.4243 49.7307 40.4076 49.3478 40.4076 49.1147C40.4076 48.9482 40.674 48.6486 40.7739 48.5487C40.9903 48.3323 41.0569 48.299 41.0736 47.9327C41.0736 47.8661 41.0736 47.6331 41.0736 47.6331C41.0902 47.4333 41.0902 47.3334 41.1734 47.3334C41.2234 47.3168 41.29 47.45 41.3066 47.683C41.3066 47.683 41.3566 47.9327 41.3399 48.0992C41.3233 48.6153 41.2567 48.7318 41.1069 48.8817L40.9903 48.9815C40.7739 49.198 40.6241 49.3145 40.6074 49.6641L40.5908 49.8306C40.5908 49.8972 40.5575 49.9804 40.5075 49.9804C40.441 49.9804 40.4243 49.8306 40.4243 49.7307ZM23.477 49.7307C23.477 49.7307 23.4604 49.3478 23.4604 49.1147C23.4604 48.9482 23.7267 48.6486 23.8266 48.5487C24.043 48.3323 24.1096 48.299 24.1429 47.9327C24.1429 47.8661 24.1429 47.6331 24.1429 47.6331C24.1596 47.4333 24.1596 47.3334 24.2428 47.3334C24.2927 47.3168 24.3593 47.45 24.376 47.683C24.376 47.683 24.4259 47.9327 24.4093 48.0992C24.3926 48.6153 24.326 48.7318 24.1762 48.8817L24.0597 48.9815C23.8433 49.198 23.6934 49.3145 23.6768 49.6641L23.6601 49.8306C23.6601 49.8972 23.6268 49.9804 23.5769 49.9804C23.4936 49.9804 23.477 49.8306 23.477 49.7307ZM3.59972 50.7295C3.59972 50.3799 3.48319 50.0137 3.26677 49.7806C3.067 49.5642 2.81729 49.5143 2.56758 49.5143C2.15139 49.5143 2.11808 49.6974 2.11808 50.1802V51.3289C2.11808 51.4953 2.0848 51.6452 2.21798 51.745C2.33451 51.8449 2.56758 51.8949 2.70076 51.8949C3.23348 51.8782 3.59972 51.3455 3.59972 50.7295ZM94.2628 51.7783C94.2628 50.7295 93.78 49.4144 92.8311 49.4144C91.8821 49.4144 91.4327 50.6962 91.4327 51.7284C91.4327 52.7772 91.9155 54.0258 92.8644 54.0258C93.8133 54.0091 94.2628 52.8105 94.2628 51.7783ZM87.8701 53.3099C88.1531 52.8438 88.253 52.3277 88.253 51.745C88.253 51.1457 88.1531 50.6297 87.8368 50.1469C87.5538 49.714 87.1376 49.4477 86.6714 49.4477C86.1887 49.4477 85.7392 49.6974 85.4561 50.1802C85.1731 50.6297 85.0566 51.1957 85.0566 51.745C85.0566 52.3277 85.1732 52.9104 85.4728 53.3599C85.7725 53.8094 86.1887 54.0424 86.6714 54.0424C87.1542 54.0424 87.5704 53.7594 87.8701 53.3099ZM7.96141 53.3099C8.24442 52.8438 8.34431 52.3277 8.34431 51.745C8.34431 51.1457 8.24442 50.613 7.92812 50.1469C7.64511 49.714 7.22891 49.4477 6.76277 49.4477C6.27999 49.4477 5.83051 49.6974 5.5475 50.1802C5.26449 50.6297 5.14795 51.1957 5.14795 51.7617C5.14795 52.3444 5.26449 52.927 5.56414 53.3765C5.8638 53.826 6.27999 54.0591 6.76277 54.0591C7.24556 54.0591 7.66175 53.7761 7.96141 53.3099ZM71.0893 53.8094C71.3057 53.5763 71.4055 53.21 71.4055 52.8604C71.4055 52.2445 71.0393 51.7118 70.5232 51.7118C70.39 51.7118 70.157 51.7617 70.0238 51.8616C69.8906 51.9615 69.9239 52.0946 69.9239 52.2611V53.4098C69.9239 53.8926 69.9406 54.0757 70.3734 54.0757C70.6398 54.0757 70.9061 54.0258 71.0893 53.8094ZM71.9549 54.109C71.9549 54.0091 72.0548 54.0091 72.1048 54.0091C72.521 54.0091 72.5043 53.8593 72.5043 53.3765V50.2135C72.5043 49.7307 72.4877 49.6142 72.0548 49.5809C72.0049 49.5642 71.9216 49.5642 71.9216 49.481C71.9216 49.3977 71.9882 49.3811 72.0382 49.3811C72.2712 49.3811 72.5043 49.4144 72.7374 49.4144C72.9704 49.4144 73.2035 49.3811 73.4366 49.3811C73.4865 49.3811 73.5365 49.3977 73.5365 49.481C73.5365 49.5809 73.4366 49.5642 73.37 49.5809C72.9538 49.6142 72.9704 49.7307 72.9704 50.2135V53.3765C72.9704 53.8593 72.9871 54.0091 73.37 54.0091C73.4199 54.0091 73.5365 54.0091 73.5365 54.109C73.5365 54.1923 73.4865 54.2089 73.4366 54.2089C73.2035 54.2089 72.9871 54.1756 72.754 54.1756C72.521 54.1756 72.2879 54.2089 72.0382 54.2089C72.0049 54.2089 71.9549 54.1923 71.9549 54.109ZM64.3636 54.109C64.3636 54.0091 64.4635 54.0091 64.5134 54.0091C64.9463 54.0091 64.913 53.8593 64.913 53.3765V50.2135C64.913 49.7307 64.9463 49.5809 64.5134 49.5809C64.4635 49.5809 64.3636 49.5809 64.3636 49.481C64.3636 49.3977 64.3969 49.3811 64.4635 49.3811C64.6965 49.3811 64.9296 49.4144 65.146 49.4144C65.3791 49.4144 65.6122 49.3811 65.8452 49.3811C65.8952 49.3811 65.9451 49.3977 65.9451 49.481C65.9451 49.5809 65.8452 49.5809 65.7787 49.5809C65.3458 49.5809 65.3791 49.7307 65.3791 50.2135V51.2123C65.3791 51.4953 65.3625 51.4953 65.5955 51.4953H67.3269C67.5266 51.4953 67.5433 51.462 67.5433 51.2123V50.2135C67.5433 49.7307 67.5766 49.5809 67.1437 49.5809C67.0938 49.5809 66.9939 49.5809 66.9939 49.481C66.9939 49.3977 67.0439 49.3811 67.1105 49.3811C67.3435 49.3811 67.5599 49.4144 67.793 49.4144C68.0261 49.4144 68.2591 49.3811 68.4922 49.3811C68.5588 49.3811 68.5921 49.3977 68.5921 49.481C68.5921 49.5809 68.4922 49.5809 68.4256 49.5809C67.9928 49.5809 68.0261 49.7307 68.0261 50.2135V53.3765C68.0261 53.8593 68.0094 54.0091 68.4256 54.0091C68.4756 54.0091 68.5921 54.0091 68.5921 54.109C68.5921 54.1923 68.5421 54.2089 68.4922 54.2089C68.2591 54.2089 68.0427 54.1756 67.8097 54.1756C67.5766 54.1756 67.3435 54.2089 67.1105 54.2089C67.0439 54.2089 66.9939 54.1923 66.9939 54.109C66.9939 54.0091 67.0938 54.0091 67.1437 54.0091C67.5766 54.0091 67.5433 53.8593 67.5433 53.3765V51.9948C67.5433 51.7118 67.5433 51.7118 67.3269 51.7118H65.6122C65.3958 51.7118 65.3791 51.7284 65.3791 51.9948V53.3765C65.3791 53.8593 65.3625 54.0091 65.7787 54.0091C65.8286 54.0091 65.9451 54.0091 65.9451 54.109C65.9451 54.1923 65.8952 54.2089 65.8452 54.2089C65.6122 54.2089 65.3957 54.1756 65.1627 54.1756C64.9296 54.1756 64.6965 54.2089 64.4635 54.2089C64.4135 54.2089 64.3636 54.1923 64.3636 54.109ZM49.3141 54.109C49.3141 54.0091 49.414 54.0091 49.464 54.0091C49.8968 54.0091 49.8635 53.8593 49.8635 53.3765V50.2135C49.8635 49.7307 49.8968 49.5809 49.464 49.5809C49.414 49.5809 49.3141 49.5809 49.3141 49.481C49.3141 49.3977 49.3474 49.3811 49.414 49.3811C49.6471 49.3811 49.8802 49.4144 50.1132 49.4144C50.3463 49.4144 50.5794 49.3811 50.8124 49.3811C50.8624 49.3811 50.9123 49.3977 50.9123 49.481C50.9123 49.5809 50.8124 49.5809 50.7458 49.5809C50.313 49.5809 50.3463 49.7307 50.3463 50.2135V51.2123C50.3463 51.4953 50.3297 51.4953 50.5627 51.4953H52.2774C52.4772 51.4953 52.4938 51.462 52.4938 51.2123V50.2135C52.4938 49.7307 52.5271 49.5809 52.0943 49.5809C52.0444 49.5809 51.9445 49.5809 51.9445 49.481C51.9445 49.3977 51.9944 49.3811 52.061 49.3811C52.2941 49.3811 52.5105 49.4144 52.7436 49.4144C52.9766 49.4144 53.2097 49.3811 53.4427 49.3811C53.5093 49.3811 53.5426 49.3977 53.5426 49.481C53.5426 49.5809 53.4427 49.5809 53.3762 49.5809C52.9433 49.5809 52.9766 49.7307 52.9766 50.2135V53.3765C52.9766 53.8593 52.96 54.0091 53.3762 54.0091C53.4261 54.0091 53.5426 54.0091 53.5426 54.109C53.5426 54.1923 53.4927 54.2089 53.4427 54.2089C53.2097 54.2089 52.9933 54.1756 52.7602 54.1756C52.5271 54.1756 52.2941 54.2089 52.061 54.2089C51.9944 54.2089 51.9445 54.1923 51.9445 54.109C51.9445 54.0091 52.0444 54.0091 52.0943 54.0091C52.5271 54.0091 52.4938 53.8593 52.4938 53.3765V51.9948C52.4938 51.7118 52.4938 51.7118 52.2774 51.7118H50.5627C50.3463 51.7118 50.3296 51.7284 50.3296 51.9948V53.3765C50.3296 53.8593 50.313 54.0091 50.7292 54.0091C50.7791 54.0091 50.8957 54.0091 50.8957 54.109C50.8957 54.1923 50.8457 54.2089 50.7958 54.2089C50.5627 54.2089 50.3463 54.1756 50.1132 54.1756C49.8802 54.1756 49.6471 54.2089 49.3974 54.2089C49.3641 54.2089 49.3141 54.1923 49.3141 54.109ZM45.2355 54.109C45.2355 54.0091 45.3354 54.0091 45.3853 54.0091C45.7848 54.0091 45.7848 53.8593 45.7848 53.3765V50.2135C45.7848 49.7307 45.7848 49.6142 45.3853 49.5809C45.3354 49.5642 45.2355 49.5809 45.2355 49.481C45.2355 49.3977 45.2688 49.3811 45.3353 49.3811C45.5684 49.3811 45.8015 49.4144 46.0346 49.4144C46.2676 49.4144 46.5007 49.3811 46.7338 49.3811C46.7837 49.3811 46.8336 49.3977 46.8336 49.481C46.8336 49.5809 46.7338 49.5642 46.6672 49.5809C46.2676 49.6142 46.2676 49.7307 46.2676 50.2135V51.6452C46.2676 51.6785 46.2676 51.7617 46.3009 51.7617C46.3342 51.7617 46.3509 51.7284 46.3675 51.7118L47.5162 50.2468C47.5828 50.1469 47.8159 49.8805 47.8159 49.7473C47.8159 49.5975 47.716 49.5809 47.6161 49.5809C47.5661 49.5809 47.433 49.5975 47.433 49.481C47.433 49.3977 47.4829 49.3811 47.5328 49.3811C47.7659 49.3811 47.9823 49.4144 48.232 49.4144C48.4485 49.4144 48.6482 49.3811 48.8314 49.3811C48.8813 49.3811 48.9312 49.3977 48.9312 49.481C48.9312 49.5975 48.7981 49.5809 48.7481 49.5809C48.5983 49.5809 48.4818 49.5809 48.3319 49.6641C48.1488 49.764 47.9324 49.997 47.7992 50.1802L47.1333 51.0126C47.1 51.0625 46.9835 51.179 46.9835 51.2456C46.9835 51.3122 47.0834 51.4287 47.1 51.462L48.2154 53.21C48.3319 53.3932 48.5151 53.6762 48.6482 53.826C48.7648 53.9592 48.8314 53.9925 48.9812 54.0091C49.0478 54.0091 49.1477 54.0091 49.1477 54.109C49.1477 54.1923 49.0644 54.2089 49.0145 54.2089C48.7481 54.2089 48.515 54.1756 48.2487 54.1756C48.0323 54.1756 47.8158 54.2089 47.5994 54.2089C47.5495 54.2089 47.4663 54.2255 47.4663 54.1257C47.4663 54.0258 47.5828 54.0258 47.6327 54.0258C47.7493 54.0258 47.9657 54.0258 47.9657 53.826C47.9657 53.6928 47.8159 53.4764 47.7493 53.3932L46.7837 51.8616C46.767 51.8116 46.6838 51.6785 46.6339 51.6785C46.5839 51.6785 46.4674 51.8449 46.4507 51.8782C46.3842 51.9615 46.2676 52.0614 46.2676 52.1945V53.3765C46.2676 53.8593 46.2676 54.0091 46.6672 54.0091C46.7171 54.0091 46.8336 54.0091 46.8336 54.109C46.8336 54.1923 46.7837 54.2089 46.7338 54.2089C46.5007 54.2089 46.2843 54.1756 46.0512 54.1756C45.8181 54.1756 45.5851 54.2089 45.352 54.2089C45.2854 54.2089 45.2355 54.1923 45.2355 54.109ZM29.7532 54.109C29.7532 54.0091 29.8531 54.0091 29.903 54.0091C30.3025 54.0091 30.3025 53.8593 30.3025 53.3765V50.2135C30.3025 49.7307 30.3025 49.6142 29.903 49.5809C29.8531 49.5642 29.7532 49.5809 29.7532 49.481C29.7532 49.3977 29.7865 49.3811 29.8531 49.3811C30.0861 49.3811 30.3192 49.4144 30.5522 49.4144C30.7853 49.4144 31.0184 49.3811 31.2514 49.3811C31.3014 49.3811 31.3513 49.3977 31.3513 49.481C31.3513 49.5809 31.2514 49.5642 31.1849 49.5809C30.7687 49.6142 30.7853 49.7307 30.7853 50.2135V51.6452C30.7853 51.6785 30.7853 51.7617 30.8186 51.7617C30.8353 51.7617 30.8685 51.7284 30.8852 51.7118L32.0339 50.2468C32.1005 50.1469 32.3335 49.8805 32.3335 49.7473C32.3335 49.5975 32.2337 49.5809 32.1338 49.5809C32.0838 49.5809 31.9507 49.5975 31.9507 49.481C31.9507 49.3977 32.0006 49.3811 32.0505 49.3811C32.2836 49.3811 32.5 49.4144 32.7497 49.4144C32.9662 49.4144 33.1659 49.3811 33.3491 49.3811C33.399 49.3811 33.4489 49.3977 33.4489 49.481C33.4489 49.5975 33.3158 49.5809 33.2658 49.5809C33.116 49.5809 32.9994 49.5809 32.8496 49.6641C32.6665 49.764 32.4501 49.997 32.3169 50.1802L31.651 51.0126C31.6177 51.0625 31.5012 51.179 31.5012 51.2456C31.5012 51.3122 31.601 51.4287 31.6177 51.462L32.7331 53.21C32.8496 53.3932 33.0327 53.6762 33.1659 53.826C33.2825 53.9592 33.3491 53.9925 33.4989 54.0091C33.5655 54.0091 33.6654 54.0091 33.6654 54.109C33.6654 54.1923 33.5821 54.2089 33.5322 54.2089C33.2658 54.2089 33.0328 54.1756 32.7664 54.1756C32.55 54.1756 32.3336 54.2089 32.1171 54.2089C32.0672 54.2089 31.9839 54.2255 31.9839 54.1257C31.9839 54.0258 32.1005 54.0258 32.1504 54.0258C32.267 54.0258 32.4834 54.0258 32.4834 53.826C32.4834 53.6928 32.3335 53.4764 32.267 53.3932L31.3014 51.8616C31.2847 51.8116 31.2015 51.6785 31.1516 51.6785C31.1016 51.6785 30.9851 51.8449 30.9684 51.8782C30.9018 51.9615 30.7853 52.0614 30.7853 52.1945V53.3765C30.7853 53.8593 30.7853 54.0091 31.1849 54.0091C31.2348 54.0091 31.3513 54.0091 31.3513 54.109C31.3513 54.1923 31.3014 54.2089 31.2514 54.2089C31.0184 54.2089 30.802 54.1756 30.5689 54.1756C30.3358 54.1756 30.1028 54.2089 29.8697 54.2089C29.8031 54.2089 29.7532 54.1923 29.7532 54.109ZM1.08594 54.109C1.08594 54.0091 1.18582 54.0091 1.23576 54.0091C1.6686 54.0091 1.6353 53.8593 1.6353 53.3765V50.2135C1.6353 49.7307 1.6686 49.5809 1.23576 49.5809C1.18582 49.5809 1.08594 49.5809 1.08594 49.481C1.08594 49.3977 1.13588 49.3811 1.18582 49.3811C1.40224 49.3811 1.61866 49.4144 1.83508 49.4144C2.16803 49.4144 2.48434 49.3811 2.81729 49.3811C3.11695 49.3811 3.39996 49.431 3.64968 49.6474C3.91604 49.8805 4.09916 50.2967 4.09916 50.7129C4.09916 51.5286 3.53313 52.1279 2.90052 52.1279C2.80064 52.1279 2.75069 52.1113 2.65081 52.078L2.35115 51.9615C2.30121 51.9448 2.26792 51.9282 2.21798 51.9282C2.11809 51.9282 2.11808 52.0447 2.11808 52.1446V53.4265C2.11808 53.9092 2.10144 54.0591 2.51764 54.0591C2.58423 54.0591 2.68411 54.0591 2.68411 54.159C2.68411 54.2422 2.63416 54.2588 2.58421 54.2588C2.35115 54.2588 2.11808 54.2255 1.88502 54.2255C1.65195 54.2255 1.41889 54.2588 1.18582 54.2588C1.13588 54.2089 1.08594 54.1923 1.08594 54.109ZM68.9084 54.109C68.9084 54.0091 69.0083 54.0091 69.0582 54.0091C69.4911 54.0091 69.4578 53.8593 69.4578 53.3765V50.2135C69.4578 49.7307 69.4911 49.5642 69.0582 49.5642C69.0083 49.5642 68.9084 49.5809 68.9084 49.481C68.9084 49.3977 68.9584 49.3811 69.0083 49.3811C69.2414 49.3811 69.4744 49.4144 69.7075 49.4144C69.9406 49.4144 70.1736 49.3811 70.4067 49.3811C70.4566 49.3811 70.5066 49.3977 70.5066 49.481C70.5066 49.5809 70.4067 49.5642 70.3401 49.5642C69.9072 49.5809 69.9406 49.714 69.9406 50.2135V51.4787C69.9406 51.5786 69.9406 51.6951 70.0404 51.6951C70.107 51.6951 70.3734 51.4787 70.723 51.4787C71.4389 51.4787 71.905 52.0614 71.905 52.8937C71.905 53.3099 71.7219 53.7261 71.4555 53.9592C71.2058 54.1756 70.9228 54.2255 70.6231 54.2255C70.2902 54.2255 69.9738 54.1923 69.6409 54.1923C69.4245 54.1923 69.2081 54.2255 68.9916 54.2255C68.9583 54.2089 68.9084 54.1923 68.9084 54.109ZM58.2872 54.1257C58.2872 54.0258 58.4038 54.0424 58.4537 54.0424C58.5702 54.0424 58.8033 53.9758 58.9365 53.7927L60.5513 51.5952L59.3693 50.1635C59.0364 49.7473 58.6868 49.5642 58.5702 49.5642C58.5203 49.5642 58.4038 49.5642 58.4038 49.481C58.4038 49.3811 58.487 49.3977 58.5369 49.3977C58.7533 49.3977 58.9698 49.431 59.1862 49.431C59.4525 49.431 59.7023 49.3977 59.952 49.3977C60.0019 49.3977 60.0852 49.4144 60.0852 49.4976C60.0852 49.5975 59.9853 49.5975 59.9187 49.5975C59.7356 49.5975 59.4858 49.6142 59.4525 49.7307C59.4026 49.8472 59.5025 49.9804 59.8854 50.4132L61.0008 51.745V50.2468C61.0008 49.7307 61.0008 49.6474 60.5846 49.6142C60.5346 49.5975 60.4348 49.6142 60.4348 49.5143C60.4348 49.431 60.4847 49.4144 60.5513 49.4144C60.7844 49.4144 61.0008 49.4477 61.2338 49.4477C61.4669 49.4477 61.7 49.4144 61.933 49.4144C61.983 49.4144 62.0329 49.431 62.0329 49.5143C62.0329 49.6142 61.933 49.5975 61.8665 49.6142C61.4669 49.6474 61.4669 49.7307 61.4669 50.2468V51.745L62.5823 50.4132C62.9485 49.9638 63.0318 49.8139 62.9985 49.714C62.9652 49.5975 62.7321 49.5809 62.6156 49.5809C62.5657 49.5809 62.4491 49.5809 62.4491 49.4976C62.4491 49.3977 62.5324 49.4144 62.5823 49.4144C62.7987 49.4144 63.0151 49.4477 63.2316 49.4477C63.4979 49.4477 63.7476 49.4144 63.9973 49.4144C64.0473 49.4144 64.1305 49.431 64.1305 49.5143C64.1305 49.6142 64.0307 49.6142 63.9641 49.6142C63.9641 49.6142 63.4646 49.7307 63.0817 50.1968L61.8831 51.6452L63.5479 53.826C63.7976 54.1756 64.0639 54.0757 64.0639 54.0757C64.1305 54.0757 64.2304 54.0757 64.2304 54.1756C64.2304 54.2588 64.1472 54.2755 64.0972 54.2755C63.8309 54.2755 63.5978 54.2422 63.3315 54.2422C63.115 54.2422 62.8986 54.2755 62.6822 54.2755C62.6323 54.2755 62.549 54.2921 62.549 54.1923C62.549 54.0924 62.6655 54.0924 62.7155 54.0924C62.8986 54.0924 62.9153 54.0091 62.9153 53.9259C62.9153 53.8427 62.6988 53.6096 62.549 53.3932L61.4669 51.8949V53.4598C61.4669 53.826 61.4336 54.0757 61.8665 54.0757C61.9164 54.0757 62.0163 54.0757 62.0163 54.1756C62.0163 54.2588 61.983 54.2755 61.9164 54.2755C61.6833 54.2755 61.4503 54.2422 61.2172 54.2422C60.9841 54.2422 60.7511 54.2755 60.518 54.2755C60.4681 54.2755 60.4181 54.2588 60.4181 54.1756C60.4181 54.0757 60.518 54.0757 60.5846 54.0757C61.0008 54.0757 61.0008 53.8094 61.0008 53.4598V51.8949L59.9187 53.3932C59.6856 53.7428 59.619 53.8759 59.619 53.9425C59.619 54.0591 59.7522 54.0924 59.8354 54.0924C59.902 54.0924 60.0019 54.0757 60.0019 54.1923C60.0019 54.2755 59.9187 54.2921 59.8687 54.2921C59.6024 54.2921 59.3693 54.2588 59.103 54.2588C58.8865 54.2588 58.6701 54.2921 58.4537 54.2921C58.3538 54.2089 58.2872 54.2255 58.2872 54.1257ZM90.9332 51.8449H90.1841V53.3599C90.1841 53.9259 90.1841 53.9758 90.6169 53.9758C90.6669 53.9758 90.7834 53.9758 90.7834 54.0757C90.7834 54.159 90.7335 54.1756 90.6669 54.1756C90.4338 54.1756 90.2007 54.1423 89.9677 54.1423C89.7346 54.1423 89.5182 54.1756 89.2851 54.1756C89.2185 54.1756 89.1852 54.159 89.1852 54.0757C89.1852 53.9758 89.2851 53.9758 89.3351 53.9758C89.7013 53.9758 89.7013 53.8759 89.7013 53.3599V50.1968C89.7013 49.6807 89.7013 49.6142 89.2685 49.5642C89.2185 49.5476 89.1187 49.5642 89.1187 49.4643C89.1187 49.3811 89.1519 49.3644 89.2185 49.3644C89.4516 49.3644 89.6847 49.3977 89.9177 49.3977C90.1508 49.3977 90.3839 49.3644 90.6169 49.3644C90.6669 49.3644 90.7168 49.3811 90.7168 49.4643C90.7168 49.5642 90.6169 49.5642 90.5503 49.5642C90.1674 49.5975 90.1674 49.6807 90.1674 50.1968V51.5619H90.9166C90.9998 50.5631 91.4992 49.2812 92.8144 49.2812C94.013 49.2812 94.7289 50.3799 94.7289 51.7783C94.7289 53.1601 94.0297 54.2422 92.8311 54.2422C91.8988 54.2422 90.9998 53.6429 90.9332 51.8449ZM84.5239 51.745C84.5239 50.3466 85.5727 49.2479 86.6714 49.2479C87.8368 49.2479 88.8023 50.2634 88.8023 51.745C88.8023 53.2267 87.8368 54.2588 86.6714 54.2588C85.5561 54.2588 84.5239 53.1434 84.5239 51.745ZM80.7948 51.7284C80.7948 50.2967 81.7937 49.2313 82.9257 49.2313C83.2087 49.2313 83.6416 49.3311 83.8913 49.431C84.0744 49.5143 84.0411 49.6142 84.0744 49.8306L84.1077 50.33C84.1077 50.3966 84.0911 50.4299 84.0411 50.4299C83.8913 50.4299 83.8413 49.4477 82.8758 49.4477C81.8436 49.4477 81.3275 50.5631 81.3275 51.7118C81.3275 52.2611 81.4441 52.7772 81.7104 53.2267C81.9934 53.7095 82.3764 54.0424 82.8758 54.0424C83.8413 54.0424 83.9079 52.8271 84.0744 52.8271C84.1243 52.8271 84.1576 52.8771 84.141 52.927L84.1077 53.5596C84.1077 53.7927 84.1077 53.8094 83.9246 53.9259C83.5583 54.1423 83.2087 54.2422 82.8092 54.2422C81.6771 54.2588 80.7948 53.0935 80.7948 51.7284ZM26.0907 51.745C26.0907 50.3134 27.1062 49.2646 28.2216 49.2646C28.5046 49.2646 28.9374 49.3478 29.1871 49.4643C29.3703 49.5476 29.337 49.6474 29.3703 49.8639L29.4036 50.3633C29.4036 50.4299 29.3869 50.4632 29.337 50.4632C29.1872 50.4632 29.1372 49.481 28.1716 49.481C27.1395 49.481 26.6234 50.5964 26.6234 51.745C26.6234 52.2944 26.7399 52.8105 27.0063 53.26C27.2893 53.7428 27.6722 54.0757 28.1716 54.0757C29.1372 54.0757 29.2038 52.8604 29.3703 52.8604C29.4202 52.8604 29.4535 52.9104 29.4369 52.9603L29.4036 53.5929C29.4036 53.826 29.4036 53.8427 29.2204 53.9592C28.8542 54.1756 28.5046 54.2755 28.105 54.2755C26.9897 54.2755 26.0907 53.1102 26.0907 51.745ZM13.2221 51.745C13.2221 50.3134 14.2209 49.2646 15.353 49.2646C15.636 49.2646 16.0688 49.3478 16.3185 49.4643C16.5016 49.5476 16.4683 49.6474 16.5016 49.8639L16.5349 50.3633C16.5349 50.4299 16.5183 50.4632 16.4684 50.4632C16.3185 50.4632 16.2686 49.481 15.303 49.481C14.2709 49.481 13.7548 50.5964 13.7548 51.745C13.7548 52.2944 13.8713 52.8105 14.1377 53.26C14.4207 53.7428 14.8036 54.0757 15.303 54.0757C16.2686 54.0757 16.3352 52.8604 16.5016 52.8604C16.5516 52.8604 16.5849 52.9104 16.5682 52.9603L16.5349 53.5929C16.5349 53.826 16.5349 53.8427 16.3518 53.9592C15.9856 54.1756 15.636 54.2755 15.2364 54.2755C14.121 54.2755 13.2221 53.1102 13.2221 51.745ZM9.49299 51.745C9.49299 50.3134 10.4918 49.2646 11.6239 49.2646C11.9069 49.2646 12.3397 49.3478 12.5894 49.4643C12.7726 49.5476 12.7393 49.6474 12.7726 49.8639L12.8059 50.3633C12.8059 50.4299 12.7892 50.4632 12.7393 50.4632C12.5895 50.4632 12.5395 49.481 11.5739 49.481C10.5418 49.481 10.0257 50.5964 10.0257 51.745C10.0257 52.2944 10.1422 52.8105 10.4086 53.26C10.6916 53.7428 11.0745 54.0757 11.5739 54.0757C12.5395 54.0757 12.6061 52.8604 12.7726 52.8604C12.8225 52.8604 12.8558 52.9104 12.8392 52.9603L12.8059 53.5929C12.8059 53.826 12.8059 53.8427 12.6228 53.9592C12.2565 54.1756 11.9069 54.2755 11.5073 54.2755C10.3753 54.2755 9.49299 53.1102 9.49299 51.745ZM4.61523 51.7617C4.61523 50.3633 5.66403 49.2646 6.76277 49.2646C7.92811 49.2646 8.89367 50.2801 8.89367 51.7617C8.89367 53.2433 7.92811 54.2755 6.76277 54.2755C5.64738 54.2755 4.61523 53.1601 4.61523 51.7617ZM95.0785 53.5596C95.0119 53.3932 95.0618 53.2267 95.245 53.2267C95.3948 53.2267 95.528 53.4764 95.5779 53.6262C95.6612 53.8427 95.9442 54.0757 96.427 54.0757C97.0596 54.0757 97.4425 53.4764 97.4425 52.8604C97.4425 51.8283 96.7266 51.6785 96.2938 51.6951C96.2938 51.6951 96.1273 51.7284 96.094 51.5786C96.0773 51.4454 96.2938 51.4454 96.2938 51.4454C96.9763 51.3622 97.3259 51.229 97.3259 50.4299C97.3259 49.9638 97.1262 49.4477 96.5268 49.4477C95.7111 49.4477 95.4614 50.7295 95.2949 50.7295C95.245 50.7295 95.2283 50.6962 95.2283 50.6297L95.2616 50.1136C95.2783 49.8972 95.2783 49.8139 95.4447 49.714C95.6944 49.5809 96.0774 49.2146 96.66 49.2146C97.5923 49.2146 97.842 49.7973 97.842 50.3799C97.842 50.8794 97.5257 51.3788 96.8931 51.512C97.5257 51.5619 98.0085 52.1779 98.0085 52.8105C98.0085 53.5263 97.5756 54.2422 96.5435 54.2422C95.6945 54.2921 95.1617 53.7428 95.0785 53.5596ZM74.4188 54.1423V50.2634C74.4188 49.7806 74.4354 49.6142 74.0026 49.5809C73.9527 49.5642 73.8527 49.5809 73.8527 49.481C73.8527 49.3977 73.8861 49.3644 73.9527 49.3644C74.1857 49.3644 74.4188 49.3977 74.6352 49.3977C74.8683 49.3977 75.1013 49.3644 75.3344 49.3644C75.3843 49.3644 75.4343 49.3811 75.4343 49.481C75.4343 49.5809 75.3344 49.5809 75.2678 49.5809C74.835 49.6142 74.8682 49.764 74.8682 50.2634V53.2267L76.8826 49.7307C76.9492 49.5975 77.0658 49.431 77.1989 49.3811H77.8648C77.9314 49.3811 78.0147 49.3811 78.0147 49.4976C78.0147 49.5809 77.9148 49.5809 77.8648 49.5809C77.5485 49.5809 77.5485 49.7307 77.5485 50.2135V53.3599C77.5485 53.8593 77.5319 53.9925 77.9481 53.9925C77.998 53.9925 78.1146 53.9925 78.1146 54.0924C78.1146 54.1756 78.0646 54.1923 78.0147 54.1923C77.7816 54.1923 77.5652 54.159 77.3321 54.159C77.0991 54.159 76.866 54.1923 76.6329 54.1923C76.5663 54.1923 76.533 54.1756 76.533 54.0924C76.533 53.9925 76.6329 53.9925 76.6829 53.9925C77.1157 53.9925 77.0824 53.8427 77.0824 53.3599V49.7806L74.7018 54.0258C74.6685 54.0924 74.552 54.2755 74.4854 54.2755C74.4521 54.2921 74.4188 54.1756 74.4188 54.1423ZM38.9593 54.1423V50.2634C38.9593 49.7806 38.976 49.6142 38.5431 49.5809C38.4932 49.5642 38.3933 49.5809 38.3933 49.481C38.3933 49.3977 38.4266 49.3644 38.4932 49.3644C38.7262 49.3644 38.9593 49.3977 39.1924 49.3977C39.4254 49.3977 39.6585 49.3644 39.8916 49.3644C39.9415 49.3644 39.9915 49.3811 39.9915 49.481C39.9915 49.5809 39.8916 49.5809 39.825 49.5809C39.3755 49.6142 39.4254 49.764 39.4254 50.2634V53.2267L41.4398 49.7307C41.5064 49.5975 41.6229 49.431 41.7561 49.3811H42.422C42.4886 49.3811 42.5718 49.3811 42.5718 49.4976C42.5718 49.5809 42.472 49.5809 42.422 49.5809C42.1057 49.5809 42.1057 49.7307 42.1057 50.2135V53.3599C42.1057 53.8593 42.0891 53.9925 42.5053 53.9925C42.5552 53.9925 42.6717 53.9925 42.6717 54.0924C42.6717 54.1756 42.6218 54.1923 42.5718 54.1923C42.3388 54.1923 42.1224 54.159 41.8893 54.159C41.6562 54.159 41.4232 54.1923 41.1901 54.1923C41.1235 54.1923 41.0902 54.1756 41.0902 54.0924C41.0902 53.9925 41.1901 53.9925 41.24 53.9925C41.6729 53.9925 41.6396 53.8427 41.6396 53.3599V49.7806L39.259 54.0258C39.2257 54.0924 39.1258 54.2755 39.0425 54.2755C38.976 54.2921 38.9593 54.1756 38.9593 54.1423ZM21.9954 54.1423V50.2634C21.9954 49.7806 22.012 49.6142 21.5792 49.5809C21.5292 49.5642 21.4294 49.5809 21.4294 49.481C21.4294 49.3977 21.4626 49.3644 21.5292 49.3644C21.7623 49.3644 21.9954 49.3977 22.2284 49.3977C22.4615 49.3977 22.6946 49.3644 22.9276 49.3644C22.9776 49.3644 23.0275 49.3811 23.0275 49.481C23.0275 49.5809 22.9276 49.5809 22.861 49.5809C22.4116 49.6142 22.4615 49.764 22.4615 50.2634V53.2267L24.4759 49.7307C24.5424 49.5975 24.659 49.431 24.7922 49.3811H25.4747C25.5413 49.3811 25.6245 49.3811 25.6245 49.4976C25.6245 49.5809 25.5247 49.5809 25.4747 49.5809C25.1584 49.5809 25.1584 49.7307 25.1584 50.2135V53.3599C25.1584 53.8593 25.1418 53.9925 25.558 53.9925C25.6079 53.9925 25.7244 53.9925 25.7244 54.0924C25.7244 54.1756 25.6745 54.1923 25.6245 54.1923C25.3915 54.1923 25.1751 54.159 24.942 54.159C24.7089 54.159 24.4759 54.1923 24.2428 54.1923C24.1762 54.1923 24.1429 54.1756 24.1429 54.0924C24.1429 53.9925 24.2428 53.9925 24.2927 53.9925C24.7256 53.9925 24.6923 53.8427 24.6923 53.3599V49.7806L22.3117 54.0258C22.2784 54.0924 22.1785 54.2755 22.0952 54.2755C22.0287 54.2921 21.9954 54.1756 21.9954 54.1423ZM54.425 54.1423V50.2634C54.425 49.7806 54.4416 49.6308 54.0088 49.5809C53.9588 49.5642 53.8589 49.5809 53.8589 49.481C53.8589 49.3977 53.8922 49.3811 53.9588 49.3811C54.1919 49.3811 54.425 49.4144 54.658 49.4144C54.8911 49.4144 55.1242 49.3811 55.3572 49.3811C55.4072 49.3811 55.4571 49.3977 55.4571 49.481C55.4571 49.5809 55.3572 49.5809 55.2906 49.5809C54.8412 49.6142 54.8911 49.7806 54.8911 50.2634V53.2267L56.9055 49.7307C56.9721 49.5975 57.0886 49.431 57.2218 49.3811H57.8877C57.9543 49.3811 58.0375 49.3811 58.0375 49.4976C58.0375 49.5809 57.9376 49.5809 57.8877 49.5809C57.5714 49.5809 57.5714 49.7307 57.5714 50.2135V53.3765C57.5714 53.8593 57.5547 54.0091 57.9709 54.0091C58.0209 54.0091 58.1374 54.0091 58.1374 54.109C58.1374 54.1923 58.0874 54.2089 58.0375 54.2089C57.8044 54.2089 57.588 54.1756 57.3549 54.1756C57.1219 54.1756 56.8888 54.2089 56.6557 54.2089C56.5892 54.2089 56.5559 54.1923 56.5559 54.109C56.5559 54.0091 56.6557 54.0091 56.7057 54.0091C57.1385 54.0091 57.1052 53.8593 57.1052 53.3765V49.7973L54.7246 54.0424C54.6913 54.109 54.5914 54.2921 54.5082 54.2921C54.4416 54.2921 54.425 54.1923 54.425 54.1423ZM34.3812 54.1423V50.2634C34.3812 49.7806 34.3979 49.6308 33.965 49.5809C33.9151 49.5642 33.8152 49.5809 33.8152 49.481C33.8152 49.3977 33.8485 49.3811 33.9151 49.3811C34.1481 49.3811 34.3812 49.4144 34.6143 49.4144C34.8473 49.4144 35.0804 49.3811 35.3135 49.3811C35.3634 49.3811 35.4134 49.3977 35.4134 49.481C35.4134 49.5809 35.3135 49.5809 35.2469 49.5809C34.7974 49.6142 34.8473 49.7806 34.8473 50.2634V53.2267L36.8617 49.7307C36.9283 49.5975 37.0448 49.431 37.178 49.3811H37.8439C37.9105 49.3811 37.9937 49.3811 37.9937 49.4976C37.9937 49.5809 37.8939 49.5809 37.8439 49.5809C37.5276 49.5809 37.5276 49.7307 37.5276 50.2135V53.3765C37.5276 53.8593 37.511 54.0091 37.9272 54.0091C37.9771 54.0091 38.0936 54.0091 38.0936 54.109C38.0936 54.1923 38.0437 54.2089 37.9937 54.2089C37.7607 54.2089 37.5443 54.1756 37.3112 54.1756C37.0781 54.1756 36.8451 54.2089 36.612 54.2089C36.5454 54.2089 36.5121 54.1923 36.5121 54.109C36.5121 54.0091 36.612 54.0091 36.6619 54.0091C37.0948 54.0091 37.0615 53.8593 37.0615 53.3765V49.7973L34.6809 54.0424C34.6476 54.109 34.5477 54.2921 34.4644 54.2921C34.4145 54.2921 34.3812 54.1923 34.3812 54.1423ZM17.4339 54.1423V50.2634C17.4339 49.7806 17.4506 49.6308 17.0177 49.5809C16.9678 49.5642 16.8679 49.5809 16.8679 49.481C16.8679 49.3977 16.9012 49.3811 16.9678 49.3811C17.2009 49.3811 17.4339 49.4144 17.667 49.4144C17.9 49.4144 18.1331 49.3811 18.3662 49.3811C18.4161 49.3811 18.4661 49.3977 18.4661 49.481C18.4661 49.5809 18.3662 49.5809 18.2996 49.5809C17.8501 49.6142 17.9 49.7806 17.9 50.2634V53.2267L19.9144 49.7307C19.981 49.5975 20.0975 49.431 20.2307 49.3811H20.8966C20.9632 49.3811 21.0464 49.3811 21.0464 49.4976C21.0464 49.5809 20.9466 49.5809 20.8966 49.5809C20.5803 49.5809 20.5803 49.7307 20.5803 50.2135V53.3765C20.5803 53.8593 20.5637 54.0091 20.9799 54.0091C21.0298 54.0091 21.1463 54.0091 21.1463 54.109C21.1463 54.1923 21.0964 54.2089 21.0464 54.2089C20.8134 54.2089 20.597 54.1756 20.3639 54.1756C20.1308 54.1756 19.8978 54.2089 19.6647 54.2089C19.5981 54.2089 19.5648 54.1923 19.5648 54.109C19.5648 54.0091 19.6647 54.0091 19.7146 54.0091C20.1475 54.0091 20.1142 53.8593 20.1142 53.3765V49.7973L17.7336 54.0424C17.7003 54.109 17.5837 54.2921 17.5171 54.2921C17.4506 54.2921 17.4339 54.1923 17.4339 54.1423Z" fill="white" stroke="white" stroke-width="0.249715" stroke-miterlimit="10"/>
<path fill-rule="evenodd" clip-rule="evenodd" d="M45.6666 5.8802C45.6 5.8469 45.4669 5.86355 45.4336 5.89685C45.5002 5.96344 45.6 5.93014 45.6666 5.8802ZM55.7218 9.0599C55.8383 8.82683 55.522 8.7103 55.3888 8.82683C55.3389 8.94336 55.3722 9.0599 55.4554 9.14313C55.5387 9.17643 55.6552 9.15978 55.7218 9.0599ZM56.1879 10.7913C57.1868 10.3418 58.5519 10.1253 59.634 10.5915C59.6673 10.2419 59.5674 9.77575 59.3343 9.47609C58.8682 8.81018 58.1191 8.61041 57.32 8.61041C56.5875 7.47837 54.956 7.47837 53.7574 7.77803C53.7074 7.9778 53.4411 8.19422 53.6408 8.3607C53.7074 8.22752 53.8406 8.04439 53.9904 7.96115C54.1902 8.14428 53.8406 8.31075 53.774 8.51052C53.9405 8.61041 54.0237 8.26081 54.1403 8.22752C54.39 8.41064 54.0071 8.54382 54.057 8.74359L54.1236 8.77689C54.2568 8.62706 54.4066 8.3274 54.6564 8.31075C55.1558 8.39399 55.6219 8.54382 56.088 8.74359V8.81018C56.088 8.91007 55.9882 8.92672 55.9049 8.91007C55.9549 9.27632 55.5886 9.47609 55.6219 9.84234C55.9382 9.74245 56.138 9.4095 56.4543 9.29296C56.4709 9.32626 56.5542 9.34291 56.5375 9.4095C56.2878 9.65921 56.1213 9.95887 56.0215 10.2752C56.0215 10.4749 56.0548 10.6914 56.1879 10.7913ZM54.2069 10.425C53.9571 10.4583 53.7074 10.5415 53.491 10.6747C53.1081 10.9744 52.9583 11.4905 52.9583 11.8234C53.3079 11.3073 53.7574 10.7413 54.2069 10.425ZM43.7854 12.789C43.8187 12.8223 43.8354 12.8556 43.8687 12.8889C43.852 12.8556 43.8187 12.8223 43.7854 12.789ZM54.623 11.041C54.4066 11.1242 54.2069 11.2407 54.0237 11.4072C53.5576 11.9066 53.491 12.6558 53.6075 13.3217C53.8739 12.5226 54.0903 11.7235 54.623 11.041ZM43.1861 13.5048C43.1029 13.4049 42.9697 13.2884 42.9531 13.1552C42.9364 12.9554 43.0862 12.7557 43.2694 12.6558C43.4525 12.5725 43.6356 12.6225 43.7854 12.7723C43.5191 12.4394 43.3692 11.8733 42.7866 12.0898C42.5702 12.2063 42.3371 12.3894 42.3371 12.6558C42.2539 12.9554 42.4037 13.2052 42.6368 13.3883C42.7866 13.5381 43.003 13.6213 43.1861 13.5048ZM55.3222 11.5903C54.5232 12.0398 54.4066 13.022 54.5232 13.9543C54.7063 13.1219 54.8894 12.2895 55.3222 11.5903ZM60.1834 13.6047C61.5818 11.8401 62.7471 9.99216 62.7471 7.6282C62.6805 7.11212 62.6306 6.61269 62.2477 6.21315C62.1644 6.16321 62.0146 6.07997 61.9647 6.21315C62.6805 7.07883 62.4141 8.39399 62.0978 9.35955C61.099 11.5237 59.2677 13.638 57.2201 15.053L57.4532 16.002C58.3688 15.2362 59.3843 14.5703 60.1834 13.6047ZM60.7327 15.9853C62.7471 13.3883 64.2287 10.2918 63.5462 6.91235C63.3797 6.39628 63.0468 5.79696 62.4641 5.58054C62.8803 5.93014 63.13 6.36298 63.2965 6.82911C64.1455 11.2574 60.7327 14.4537 58.2023 17.7333L57.9526 17.8332L58.0858 18.7322C58.9181 17.7666 59.9336 16.9675 60.7327 15.9853ZM58.2689 20.4635L59.9503 18.599C61.2988 16.9009 62.281 15.0697 63.3963 13.2551C64.0789 11.0743 64.878 8.3274 63.7959 6.09662C63.4796 5.54725 62.9136 4.93128 62.1977 5.04782C61.8814 5.11441 61.6151 5.39742 61.4486 5.68043C61.3653 5.81361 61.2821 6.09662 61.4319 6.21315C61.5318 6.2298 61.6484 6.1965 61.7649 6.16321C61.7316 6.09662 61.7482 6.01338 61.7482 5.93014C61.7815 5.79696 61.9314 5.59719 62.0978 5.63048C62.8969 6.26309 62.9968 7.2786 62.9136 8.27746C62.564 11.6569 59.9669 14.1707 57.6696 16.6679C57.7029 16.801 57.7029 16.9675 57.7695 17.1007C59.2011 15.8022 60.9159 14.3871 61.7815 12.6724C62.8636 10.8412 63.8791 8.41064 62.8137 6.24645C62.6972 5.81361 61.8981 5.66378 62.2144 5.1477C62.3642 5.06446 62.5806 5.1477 62.7305 5.24759C64.2787 6.56275 64.029 8.87677 63.6794 10.6581C62.9302 13.9377 60.533 16.568 58.4354 19.2649L58.169 19.3648C58.1524 19.781 58.2189 20.1139 58.2689 20.4635ZM40.5225 20.2471C41.2716 19.7144 41.5713 18.6323 42.4869 18.4825V18.4492C41.9209 18.3826 41.3549 18.8154 41.0053 19.3148C40.6057 20.2138 39.6901 20.4136 38.8244 20.4968C38.2751 20.5301 37.7091 20.3137 37.476 19.781C37.3428 19.3648 37.4926 18.9486 37.7091 18.6156C38.7745 17.3504 40.5725 16.518 40.3227 14.6702C39.5902 12.6391 36.5104 11.4905 37.0931 8.99331C36.7768 9.00995 36.627 9.32626 36.4105 9.52603C36.0942 10.2252 36.5271 10.9244 36.8767 11.4905C36.9266 11.5404 36.8933 11.6902 36.7934 11.7069C36.3606 11.1908 36.1109 10.5915 36.0942 9.87563C35.9943 9.87563 35.9278 9.99216 35.8612 10.0588C35.728 10.2918 35.678 10.6414 35.7779 10.9244C35.7946 11.2074 36.2274 11.4572 35.9611 11.6736C35.2452 11.4572 34.4461 11.9399 33.7303 11.5404C33.7469 11.6569 33.7469 11.7735 33.8135 11.8733C34.4794 12.739 35.6447 11.9233 36.5437 12.1064C36.6103 12.1897 36.7934 12.2063 36.7102 12.3395C36.627 12.4061 36.4771 12.3395 36.3939 12.3062C35.7113 12.4394 34.9955 12.5226 34.2963 12.5725C34.2796 12.7723 34.4794 12.8889 34.5959 13.0054C35.162 13.1885 35.8112 13.0553 36.344 12.9055C36.7102 12.8889 37.2263 12.5393 37.4926 12.9221C37.4427 13.072 37.2929 12.9388 37.2263 12.9388L34.9289 13.4049L34.9123 13.4882C35.5615 14.0542 36.4272 13.5215 37.1264 13.4216C37.4427 13.3716 37.8589 13.2551 38.1752 13.4216C38.1918 13.4882 38.2085 13.5881 38.1419 13.6213C37.2596 13.5215 36.3939 13.8711 35.5282 14.0542C35.5615 14.2373 35.7613 14.3039 35.8778 14.4038C36.6436 14.4537 37.3262 14.2207 38.0254 14.0542C38.2751 13.9876 38.6413 13.921 38.8411 14.1041C38.8577 14.1874 38.8244 14.2373 38.7745 14.2706C38.042 14.1374 37.3428 14.4704 36.6936 14.6702L36.7102 14.7867C36.9433 14.9698 37.1763 15.1363 37.5093 15.103C38.2584 15.0863 38.941 14.204 39.6735 14.8699C40.3394 16.4348 38.2751 17.2339 37.426 18.3493C37.0598 18.8321 36.8101 19.5646 37.1264 20.1805C37.3095 20.5967 37.7423 20.6966 38.0919 20.7965C38.9743 20.9297 39.8732 20.8131 40.5225 20.2471ZM49.9118 20.9297C51.0105 19.8476 52.4256 19.0984 53.9738 19.4813C53.1081 14.7534 47.9473 12.0565 45.1672 8.21087C44.751 7.57826 44.3681 6.66264 44.8842 5.94679C45.1006 5.66378 45.4003 5.54725 45.7166 5.5306L45.6833 5.41406C45.5501 5.03117 44.9674 5.09776 44.7344 5.36412C44.0851 5.91349 43.9852 6.77917 44.1184 7.6282C44.9008 9.84234 46.9984 11.5404 48.6133 13.3883C50.0782 15.0031 51.743 16.5846 52.7752 18.3992C52.875 18.6156 52.9916 18.882 52.7918 19.0818C52.6919 19.1484 52.5754 19.0818 52.4922 19.0485C51.6265 17.6001 50.6276 16.2017 49.6454 14.8033L46.216 11.1409C44.8509 9.60927 43.0696 7.86127 44.1683 5.69707C43.7688 5.86355 43.6523 6.27974 43.4525 6.5794C42.67 8.14428 43.8687 9.47609 44.6511 10.708C46.8153 13.1719 49.2292 15.4859 51.2935 17.9997C51.5932 18.4325 52.0926 18.9153 51.7597 19.4314C51.6598 19.448 51.5599 19.4314 51.51 19.3814C50.4445 17.6667 49.3125 16.0186 47.8808 14.4704C46.0495 12.0731 42.4703 10.2086 43.1528 6.82911C42.3204 8.49388 43.0529 10.3584 44.1683 11.6736C46.0828 13.8711 48.2304 15.9354 50.1115 18.1994C50.4278 18.6822 50.894 19.165 50.9273 19.7477C50.894 19.8476 50.7608 19.9308 50.6609 19.8642C49.8285 18.5657 48.8963 17.3338 47.9973 16.1018C46.2659 13.6213 42.7533 11.9399 42.6201 8.7103L42.5868 8.79353C42.6534 10.1253 43.003 11.3573 43.7355 12.3894L49.1959 18.5158L50.0949 19.7976C50.1948 19.9475 50.278 20.2305 50.1448 20.3803C50.0616 20.4802 49.9118 20.4136 49.8452 20.347C49.1293 19.1151 48.2304 17.9664 47.398 16.8177C46.4824 16.002 45.7332 14.1541 44.2183 14.7034C43.9686 14.7867 43.852 15.0364 43.7688 15.2695C43.6856 15.5691 43.6689 15.952 43.9852 16.1518C44.2016 16.2517 44.5346 16.4514 44.7344 16.2184C44.5512 16.1185 44.3681 15.9853 44.2682 15.7855C44.1683 15.5691 44.2349 15.3028 44.4513 15.1529C44.9674 14.8533 45.367 15.4193 45.7665 15.7356C47.2981 17.3837 48.7464 19.0984 49.9118 20.9297ZM49.7287 21.0295C48.6632 19.3148 47.3147 17.7333 45.933 16.1684C45.5001 15.8022 45.1172 15.2861 44.5679 15.2362C44.418 15.2528 44.3015 15.5025 44.3848 15.5858L44.5346 15.3694C44.6678 15.2695 44.8509 15.3361 44.9841 15.386C46.5489 17.1506 48.0805 18.9652 49.2459 20.913L49.5622 21.2127C49.6621 21.1794 49.7287 21.1294 49.7287 21.0295ZM50.1781 21.3625C51.2602 20.3803 52.592 19.5979 54.0903 19.9974C54.0737 19.8975 54.0404 19.8143 54.0071 19.731L53.824 19.6311C52.3423 19.3981 51.0105 20.064 50.0117 21.1294L50.1781 21.3625ZM50.4445 21.7953C51.4766 20.8797 52.7585 20.1139 54.1403 20.5634C54.1569 20.4469 54.1236 20.3636 54.107 20.2471C52.642 19.781 51.3435 20.5967 50.2947 21.5456L50.4445 21.7953ZM53.9738 21.8619L53.7574 20.6799C53.6075 20.6467 53.4411 20.6633 53.3245 20.6633L53.6242 21.8453L53.9738 21.8619ZM53.4244 21.8286L53.1747 20.7299C53.1747 20.5801 53.0082 20.6966 52.9583 20.6966L53.3079 21.8619C53.3412 21.8286 53.4078 21.8786 53.4244 21.8286ZM54.2069 20.7965L53.9904 20.7132L54.1569 21.8786L54.3733 21.9618C54.3234 21.5623 54.2402 21.196 54.2069 20.7965ZM52.4922 22.0284L53.1248 21.8619L52.7086 20.6966L52.026 20.9463L52.4922 22.0284ZM60.5996 18.7155C60.8826 18.3326 61.0657 17.7999 61.5485 17.6001C61.7482 17.6001 61.9647 17.6834 62.0812 17.8498C62.1811 18.033 62.0812 18.2161 61.9813 18.3659C62.2643 18.3826 62.4974 18.2827 62.6306 18.0663C62.7305 17.8498 62.8636 17.6334 62.797 17.3671C62.7471 17.1174 62.4974 16.9342 62.2477 16.9176C62.0479 16.8676 61.7815 17.1174 61.6816 16.9009L63.1799 14.1374C63.3631 13.8877 63.6128 13.6047 63.9457 13.638C64.1954 13.7212 64.2121 13.9876 64.262 14.1874L64.4951 13.9876C64.595 13.8378 64.6782 13.638 64.6116 13.4216C64.4785 13.0387 63.9457 12.9721 63.6627 13.2551C62.4807 15.2362 61.1989 17.2339 59.9003 19.1817C59.4176 19.8476 59.0014 20.6134 58.3521 21.1627L58.4687 22.0617C59.2511 20.963 59.9836 19.8809 60.5996 18.7155ZM52.2091 22.1949L52.3257 22.1449L51.8429 21.0628L51.6431 21.1794L52.2091 22.1949ZM51.5932 22.5611L52.0094 22.2448L51.4933 21.2626L51.0438 21.5623L51.5932 22.5611ZM50.894 21.7121C50.9439 22.0451 51.2269 22.3947 51.4101 22.6943C51.2602 22.3447 51.0605 22.0284 50.894 21.7121ZM50.6609 21.8952L50.561 21.9951L51.177 22.9107C51.0771 22.5611 50.894 22.1949 50.6609 21.8952ZM56.0714 16.7678H56.1047C56.8871 18.4492 57.0037 20.4802 56.9371 22.4612C57.2867 20.5967 57.037 18.549 56.6041 16.8177C56.6208 16.8177 56.6374 16.8343 56.6541 16.8343C57.2867 18.3992 57.4199 20.2305 57.3866 22.0118C57.603 20.3636 57.3033 18.6323 57.1701 17.0008C57.603 18.4159 57.7861 19.9641 57.7528 21.5789C57.9526 19.5313 57.5031 17.5835 56.9537 15.7689L56.7373 16.4514C56.5875 16.2683 56.4876 16.002 56.3378 15.8854L56.1047 16.5513L55.5054 15.8355L55.0725 16.6346L54.5565 15.9187C54.4566 16.002 54.39 16.1018 54.3234 16.1851C55.1225 18.0496 55.1724 20.2138 55.3389 22.2948C55.3555 20.1139 55.522 17.9164 54.4732 16.1518C54.4732 16.1185 54.5065 16.0686 54.5565 16.0686C55.7884 17.9664 55.7551 20.5135 55.7384 22.8608L55.8383 22.5611C56.0381 20.4802 56.0381 18.3826 55.289 16.5347L55.3555 16.5014C56.4044 18.2993 56.3877 20.6966 56.2712 22.9274C56.7706 20.9963 56.4876 18.6489 56.0714 16.7678ZM51.4267 23.3269C52.309 22.7775 53.3079 22.0451 54.4566 22.5278L54.4233 22.1782C53.2413 21.762 52.1093 22.2948 51.2769 23.0772L51.4267 23.3269ZM40.5225 23.1271L41.255 23.3769C41.0219 23.2104 40.7556 23.0772 40.5225 23.1271ZM51.177 23.5267L51.2769 23.4435L49.8618 21.2626L49.7619 21.3958L51.177 23.5267ZM41.5879 24.0761L41.5547 23.9762L40.1396 23.4268L40.0897 23.51L41.5879 24.0761ZM49.2792 24.126L49.379 23.9096C49.6621 23.1604 49.2625 22.4779 48.6965 21.9951C48.9629 22.6943 49.2126 23.3935 49.2792 24.126ZM48.297 24.126L48.4468 23.5433C48.4301 23.0273 48.1638 22.5944 47.7642 22.2448C47.9807 22.8608 48.2637 23.4435 48.297 24.126ZM50.2614 24.1926L50.3779 23.6266C50.3113 23.277 50.1615 22.9607 49.8618 22.7276C50.0117 23.2104 50.2614 23.6765 50.2614 24.1926ZM41.6712 24.7253V24.6254L39.8233 23.8763L39.7734 23.9595L41.6712 24.7253ZM53.5243 25.0916L53.4244 22.9107C53.2746 22.944 53.0915 23.0106 52.925 23.0439L53.2912 25.1249C53.3745 25.1082 53.4577 25.1582 53.5243 25.0916ZM41.6379 25.3246V25.2081L39.5902 24.3757L39.5736 24.4756L41.6379 25.3246ZM41.5214 25.8074V25.7741C40.8388 25.5078 40.1396 25.1748 39.4571 24.9251L39.4737 25.025L41.5214 25.8074ZM39.3738 25.4412V25.5244C40.0064 25.7575 40.6557 26.0738 41.2717 26.2569C40.7056 25.9572 40.0231 25.7075 39.3738 25.4412ZM40.9387 26.5899L39.3405 25.9739C39.8233 26.2236 40.406 26.49 40.9387 26.5899ZM40.5225 26.8562L39.3405 26.3901L39.3572 26.4733L40.5225 26.8562ZM58.9181 27.7219L57.3866 24.3424C57.32 24.459 57.1368 24.5422 57.1701 24.6754L58.9181 27.7219ZM54.623 28.6708L54.2235 22.8941H53.7907L54.3567 28.6042L54.623 28.6708ZM60.0002 28.6875L58.0858 23.3769L57.6529 23.9429L60.0002 28.6875ZM61.5485 30.5853V30.2357C61.4486 29.7696 60.9658 29.3034 60.483 29.2535C60.8326 29.5864 60.8493 30.1192 60.8493 30.6186C61.099 30.5853 61.3487 30.5853 61.5485 30.5853ZM56.2712 30.6186L56.6208 30.5686L56.5042 29.986C56.3211 29.3367 55.6386 29.0038 55.0226 28.9205C54.9394 29.0038 55.0559 29.0204 55.1225 29.0371C55.7384 29.2868 56.3378 29.9027 56.2712 30.6186ZM56.0215 30.1525C55.8716 29.7196 55.4221 29.3034 54.956 29.2535C55.2557 29.653 55.4887 30.1358 55.3888 30.6352C55.572 30.6352 55.7551 30.6352 55.9715 30.6685C56.1213 30.5686 56.0381 30.3522 56.0215 30.1525ZM62.1145 30.6019C62.0978 30.2856 62.0646 29.986 61.9147 29.7363C61.7815 29.42 61.4486 29.1702 61.1656 29.0204C60.9658 28.9372 60.6162 28.8539 60.4997 29.0204C60.9325 29.1536 61.3986 29.4533 61.6151 29.9027C61.8814 30.1025 61.4652 30.9515 62.1145 30.6019ZM39.8566 30.6685C39.8566 30.3023 39.8067 29.9693 39.6235 29.6697C39.4903 29.4033 39.2073 29.2535 38.9243 29.2202C38.7246 29.1536 38.4249 29.2701 38.3084 29.1369C38.1086 28.5709 38.6413 27.5554 37.8589 27.4056C37.7257 28.0382 37.7091 28.7707 37.7757 29.4366C38.1086 29.4699 38.4249 29.4532 38.6913 29.6031C39.174 29.8029 39.174 30.3356 39.2406 30.7018C39.3572 30.6852 39.4571 30.7018 39.5569 30.7018C39.6568 30.7185 39.7567 30.7185 39.8566 30.6685ZM50.4611 30.7185C50.611 30.552 50.5777 30.1691 50.4778 29.9693C50.2281 29.3034 49.5788 29.1702 48.9296 29.1702L46.782 27.4056C47.0817 25.9406 47.7975 24.5588 47.2481 22.9773C47.0983 22.6277 46.8486 22.3114 46.5157 22.095C45.65 21.6122 44.3182 21.4624 43.5024 22.1116L44.9175 22.095C45.0174 22.1283 44.9674 22.2115 44.9841 22.2615L43.2361 22.4612L43.1528 22.7276C44.1184 22.7443 45.1172 22.711 46.0495 22.7775C46.0329 22.8275 46.0662 22.9107 45.9996 22.9274C45.084 23.0106 44.1517 23.0606 43.2361 23.1438C43.0862 23.1604 43.2194 23.3436 43.2194 23.4102L46.3991 23.4601C46.3825 23.5267 46.4158 23.5766 46.3658 23.6266L43.3859 23.843C43.4192 23.9262 43.4026 24.0261 43.4858 24.0761L46.5822 24.1094C46.5822 24.1593 46.5989 24.2425 46.5656 24.2925L43.7022 24.5089L43.8187 24.692L46.4158 24.7586C46.3991 24.8252 46.4324 24.8752 46.3825 24.9084L44.135 25.1582L44.2849 25.3413H46.0662C46.1661 25.3246 46.3159 25.3246 46.2826 25.4745C45.7499 25.6076 45.1505 25.591 44.6345 25.7242C44.9841 26.0405 45.5667 25.8241 46.0495 25.924C46.0329 26.2569 45.5834 26.1237 45.3503 26.2236L45.9496 27.339C46.8153 28.1714 47.7809 28.9039 48.7631 29.6031C49.1127 29.7363 49.5955 29.6697 49.8618 30.0193C50.1448 30.2357 49.8618 30.9349 50.4611 30.7185ZM49.5622 34.4642L54.4233 31.6507L65.7936 31.6174L65.777 2.18442H54.5565L49.5455 5.13105L44.5845 2.18442H33.364V11.1741L33.4972 11.0743C34.0466 11.6569 34.8124 11.4905 35.5282 11.3739L35.4117 10.6747C35.4616 10.2419 35.6947 9.80904 36.0776 9.62592C36.294 9.19308 36.7102 8.76024 37.2263 8.76024C37.3095 8.76024 37.3428 8.82683 37.3595 8.89342C36.6103 11.4572 39.8899 12.5226 40.5225 14.6702C40.7389 15.6024 40.2228 16.3849 39.5902 17.0508C38.9576 17.9164 37.7423 18.3659 37.6092 19.4314C37.6092 19.731 37.759 19.9974 38.042 20.1306C38.7911 20.4635 39.7068 20.1972 40.3727 19.7976C40.8222 19.0651 41.5047 18.2993 42.3704 18.1495C43.7521 17.9164 45.3337 18.0163 46.782 18.0829L44.8342 15.7522L44.6345 15.719C44.3348 16.0353 45.034 15.9021 44.9508 16.235C44.7344 16.4847 44.418 16.6346 44.0851 16.568C43.852 16.5014 43.5857 16.3349 43.5024 16.1018C43.4025 15.5691 43.4691 15.0031 43.852 14.6036C44.1517 14.4038 44.5346 14.3871 44.8509 14.3705C44.3348 13.921 43.8687 13.355 43.3193 12.9721C43.2194 13.022 43.1695 13.1053 43.1195 13.1885C43.1362 13.4049 43.4192 13.305 43.4358 13.5048C43.3027 13.7212 43.0363 13.8544 42.7699 13.8378C42.4703 13.8378 42.3038 13.5881 42.1373 13.3716C42.0208 13.0553 42.0541 12.6724 42.1706 12.3728C42.3537 12.1231 42.6368 11.9233 42.9364 11.9066C42.5868 11.3739 42.4703 10.7247 42.2872 10.1087C42.3038 9.55932 42.0041 8.79353 42.5369 8.47723C42.5036 7.9445 42.6534 7.51167 42.7533 7.04553C42.8698 6.87906 42.8865 6.59605 43.1695 6.61269C43.4358 6.24645 43.619 5.41406 44.2516 5.5306C44.468 5.28088 44.7177 4.99787 45.0507 4.94793C45.3836 4.91464 45.6333 5.08111 45.8164 5.36412C45.883 5.58054 45.933 5.93014 45.6833 6.09662C45.4835 6.1965 45.2504 6.11327 45.1339 5.91349C45.0174 6.03003 44.9175 6.16321 44.8342 6.31304C44.6012 7.11212 45.084 7.86127 45.5334 8.49388C47.3813 10.6248 49.5122 12.6058 51.46 14.487L51.5432 14.254C50.9606 14.0209 51.6431 13.5048 51.6431 13.1053C51.5266 13.072 51.3601 13.1053 51.2935 12.9887C51.3934 12.5725 51.5932 12.1897 51.7097 11.7735C51.2935 11.7735 51.5266 11.3739 51.5765 11.1575C51.7097 9.95887 52.7752 8.86012 52.1259 7.64485L52.1758 7.56161C52.875 7.89456 53.5909 7.57826 54.2901 7.46172C55.4388 7.36184 56.6874 7.44508 57.3699 8.46058C58.1357 8.44393 58.9015 8.66035 59.4009 9.30961C59.6839 9.7591 59.917 10.3085 59.7172 10.8578C59.3177 10.7746 58.9348 10.5582 58.5186 10.708C57.6196 10.9244 56.7539 11.8068 56.5708 12.7057C56.4709 13.5048 56.8039 14.2706 57.1202 14.9199C58.9348 13.6713 60.5829 11.8234 61.5984 9.97552C62.0313 8.96001 62.5973 7.52831 61.8315 6.47951C61.6317 6.39628 61.4319 6.56275 61.2655 6.44622C61.0823 6.29639 61.1156 6.03003 61.1489 5.81361C61.2821 5.48065 61.5984 5.11441 61.948 4.94793C62.2643 4.86469 62.6805 4.86469 62.9635 5.04782C65.3774 6.87906 64.3453 10.6081 63.6627 12.9887C63.9124 12.8889 64.2287 12.8722 64.4452 13.072C64.6782 13.2717 64.7781 13.5215 64.7448 13.8211C64.6782 14.2373 64.2287 14.5037 63.8625 14.5869C63.6294 14.537 63.9457 14.2706 63.7793 14.1208C63.5795 13.9543 63.4296 14.1541 63.2632 14.2706L61.9147 16.7844C62.1811 16.7844 62.4807 16.7844 62.6805 16.9842C62.8803 17.2172 62.9802 17.5169 62.8969 17.8332C62.8303 18.1662 62.5973 18.4325 62.2976 18.599C62.0479 18.6989 61.7482 18.6156 61.5485 18.4492C61.4985 18.3326 61.6151 18.3493 61.665 18.266C61.6817 18.1828 61.7149 18.033 61.5984 17.9664C61.4153 17.8831 61.3154 18.0829 61.1989 18.1662C60.2666 19.5979 59.4342 21.0795 58.3854 22.4446C58.9681 24.5588 59.7172 26.6065 60.4664 28.6542C61.0324 28.6875 61.5485 28.9372 61.9147 29.4366C62.1644 29.8694 62.3809 30.3855 62.1311 30.8849C61.2155 30.8517 60.1667 30.9848 59.2511 30.8683L59.1179 30.7684L56.2712 25.1082H54.8395L54.9893 28.7208C55.6885 28.8373 56.5375 29.2868 56.704 30.0859C56.7207 30.3689 56.8705 30.7185 56.6541 30.9182C55.5886 30.8683 54.4566 31.0847 53.4577 30.8517C52.8917 29.1536 52.5088 27.3723 52.0593 25.6243L51.9095 25.3246C50.4279 25.1915 48.9462 25.2248 47.5312 24.9084C47.4646 25.7908 47.0983 26.5233 46.9485 27.339L48.8963 28.9705C49.4789 28.9705 50.0117 29.087 50.4112 29.5365C50.6942 29.9194 50.8274 30.4854 50.6276 30.9515L48.3136 30.9682L47.6144 30.7684C46.3492 29.8861 45.2005 28.8206 43.9186 28.0049L43.8354 27.7052C43.9353 27.4722 44.1517 27.3556 44.3182 27.2225C43.6689 26.9062 42.9697 26.6897 42.2705 26.4234C42.1207 26.7896 41.9708 27.1392 41.7045 27.4222C40.8222 28.1048 39.4904 28.188 38.4083 27.8884C38.4083 28.2879 38.4249 28.6708 38.4582 29.0537C38.7079 29.0537 38.9077 29.0038 39.1241 29.087C39.7567 29.3367 39.9731 30.0193 40.0064 30.6352C39.9898 30.7851 39.8732 30.9182 39.7068 30.9349L37.3595 30.8849C36.9932 30.9016 36.8434 30.4688 36.7102 30.219C36.2607 28.8872 35.9111 27.4555 36.0276 25.9406C36.1275 25.7242 36.3606 25.4578 36.6436 25.4578C37.2429 25.7575 38.0254 25.5244 38.658 25.3912C38.6913 24.0594 38.8577 22.7276 39.6402 21.6788C38.9243 21.812 38.1253 21.7953 37.476 21.4957C36.86 21.2293 36.2774 20.63 36.2441 19.9308C36.1275 19.0152 36.5937 18.2327 37.2429 17.5668C37.9255 16.8343 38.941 16.4847 39.4238 15.6191C39.4404 15.4026 39.507 15.1696 39.3239 15.0031C38.5747 14.82 38.092 15.5358 37.3428 15.5358C36.8767 15.5525 36.4438 15.2029 36.2774 14.7867C35.8612 14.8033 35.445 14.7534 35.2119 14.4204C35.0787 14.3206 35.2286 14.0042 34.9622 14.0708C34.6958 13.9543 34.5127 13.6546 34.4794 13.3883C34.2963 13.305 34.1132 13.2551 33.9966 13.072C33.9134 12.8889 33.8135 12.7057 33.8967 12.4893C33.5638 12.2229 33.364 11.8401 33.3307 11.4239V31.6507H44.6345L49.5622 34.4642ZM49.5955 34.7971L44.5845 31.9171H33.0977V1.88477H44.6678L49.5622 4.78145L54.4566 1.88477H66.0433L66.0766 31.8838L54.4732 31.9171L49.5955 34.7971Z" fill="white"/>
<path d="M49.5953 35.7799L54.4231 33.033H66.9588V0.819834H54.6062L49.5454 3.66658L44.5677 0.819834H32.1985V33.0164H44.6843L49.5953 35.7799ZM49.5454 38.5767L54.4398 35.7965H69.7389L69.7223 3.59999L67.5248 3.61664L67.5082 33.5657H54.6229L49.562 36.4125L44.6177 33.5824L31.6492 33.5491L31.6325 3.59999H29.4017V35.7965H44.6843L49.5454 38.5767ZM49.5454 41.3735L54.3898 38.6266L72.5191 38.5933V6.41344H70.2883L70.2717 36.3625H54.6062L49.5454 39.2093L44.5677 36.3792L28.8357 36.3459V6.41344H26.5716L26.6049 38.5933H44.6676L49.5454 41.3735ZM49.5454 44.1536L54.4398 41.3901H75.3159V9.17695L73.0685 9.19359V38.8264L72.9686 39.1427H54.573L49.5287 41.9894L44.5344 39.1427H26.3386L26.0223 39.0595V9.17695H23.8081L23.7915 41.3901H44.5844L49.5454 44.1536ZM49.562 44.7696L44.5011 41.9062H23.2754V8.67752L26.0556 8.64422V5.86407H28.8024L28.8524 4.59885C28.8524 4.13271 28.8524 3.64993 28.8524 3.1838V3.06726H31.6159L31.6492 0.303757H44.6843L49.5121 3.05062L54.4564 0.287109H67.5082V3.03397L70.2717 3.10056V5.83077L72.9353 5.86407H73.0518V8.64422L75.832 8.67752V41.9228L54.5064 41.9395L49.562 44.7696Z" fill="white"/>
</svg>
