<svg width="109" height="14" viewBox="0 0 109 14" fill="none" xmlns="http://www.w3.org/2000/svg">
<path d="M32.3149 7.17706H30.793V4.63375H32.3149C33.2035 4.63375 34.0717 4.87889 34.0717 5.91051C34.0717 6.8502 33.2035 7.17706 32.3149 7.17706ZM32.3455 3.5H30.1393C29.6796 3.5 29.4141 3.7247 29.4141 4.12305V10.4251C29.4141 10.8133 29.6694 11.0482 30.0984 11.0482C30.5274 11.0482 30.7827 10.8133 30.7827 10.4251V8.34146H32.417C34.1023 8.34146 35.2769 7.35069 35.2769 5.93094C35.2871 4.50097 34.0819 3.5 32.3455 3.5Z" fill="white"/>
<path d="M49.015 3.36621C46.676 3.36621 44.9805 5.00046 44.9805 7.24755C44.9805 9.49464 46.676 11.1187 49.015 11.1187C50.0466 11.1187 51.5685 10.8327 51.5685 10.0462C51.5685 9.93385 51.4255 9.5355 50.9965 9.5355C50.8331 9.5355 50.6697 9.607 50.4552 9.68871C50.1079 9.83171 49.6789 10.0053 49.015 10.0053C47.2276 10.0053 46.1857 8.60602 46.1857 7.24755C46.1857 5.85844 47.2276 4.48976 49.015 4.48976C49.6789 4.48976 50.0773 4.63275 50.3939 4.75532C50.588 4.82682 50.7514 4.8881 50.9148 4.8881C51.2621 4.8881 51.4357 4.63275 51.4357 4.38762C51.446 3.67263 50.0262 3.36621 49.015 3.36621Z" fill="white"/>
<path d="M40.0267 10.0666C38.2393 10.0666 37.2587 8.64688 37.2587 7.24755C37.2587 5.83801 38.2393 4.41826 40.0267 4.41826C41.8142 4.41826 42.856 5.83801 42.856 7.24755C42.856 8.64688 41.8142 10.0666 40.0267 10.0666ZM40.0267 3.36621C37.6877 3.36621 35.9922 5.00046 35.9922 7.24755C35.9922 9.49464 37.6877 11.1187 40.0267 11.1187C42.3658 11.1187 44.0613 9.48443 44.0613 7.24755C44.0613 5.0311 42.3351 3.36621 40.0267 3.36621Z" fill="white"/>
<path d="M77.3999 7.76846C78.5541 7.76846 79.218 7.96253 79.218 8.69795C79.218 9.61721 78.3805 9.607 77.5531 9.607H76.021V7.76846H77.3999ZM75.3367 3.36621C74.9077 3.36621 74.6523 3.60113 74.6523 3.98927V10.3118C74.6523 10.7612 75.0507 10.9144 75.398 10.9144H77.7778C79.4121 10.9144 80.4131 10.0564 80.4131 8.67752C80.4131 6.76749 78.6256 6.4815 77.5531 6.4815H76.021V3.98927C76.021 3.60113 75.7657 3.36621 75.3367 3.36621Z" fill="white"/>
<path d="M83.2519 10.9862C83.6809 10.9862 83.9362 10.7513 83.9362 10.3632V4.49007H85.5399C86.0914 4.49007 86.1425 4.09173 86.1425 3.96916C86.1425 3.71381 85.9382 3.44824 85.5399 3.44824H80.964C80.5656 3.44824 80.3613 3.71381 80.3613 3.96916C80.3613 4.09173 80.4022 4.49007 80.964 4.49007H82.5676V10.3632C82.5676 10.7513 82.8229 10.9862 83.2519 10.9862Z" fill="white"/>
<path d="M59.0031 9.79032L55.9287 6.89975L58.4822 4.63223C58.8806 4.27473 59.0031 4.1011 59.0031 3.91724C59.0031 3.56997 58.6559 3.35547 58.329 3.35547C58.1247 3.35547 57.9409 3.43719 57.7775 3.60061L54.2945 6.9406V3.94789C54.2945 3.5189 53.937 3.36568 53.6101 3.36568C53.2016 3.36568 52.9258 3.60061 52.9258 3.94789V10.4236C52.9258 10.8322 53.2935 10.9854 53.6101 10.9854C54.0085 10.9854 54.2945 10.7504 54.2945 10.4236V6.98146L57.9409 10.5257C58.2882 10.8628 58.4618 10.9854 58.7171 10.9854C58.8397 10.9854 59.4423 10.9649 59.4423 10.4645C59.4526 10.25 59.2993 10.0661 59.0031 9.79032Z" fill="white"/>
<path d="M66.1542 3.92799C66.1542 3.60114 65.7763 3.36621 65.429 3.36621C65.2758 3.36621 64.9796 3.41728 64.8264 3.7237L63.0798 7.16584L61.2106 3.73392C61.0472 3.43771 60.8021 3.36621 60.6284 3.36621C60.2812 3.36621 59.8828 3.61135 59.8828 3.92799C59.8828 4.03013 59.9032 4.12205 59.9543 4.20376L62.3342 8.62645L61.5477 10.1688C61.4966 10.2709 61.4762 10.3628 61.4762 10.4343C61.4762 10.7612 61.8745 10.9961 62.2218 10.9961C62.467 10.9961 62.6815 10.8633 62.804 10.6386L66.0725 4.20376C66.1236 4.09141 66.1542 3.99949 66.1542 3.92799Z" fill="white"/>
<path d="M73.0267 4.06056C73.0267 3.60093 72.6692 3.4375 72.3424 3.4375H68.0116C67.6847 3.4375 67.3273 3.60093 67.3273 4.06056V7.5129C67.3273 8.8918 66.6531 9.64764 66.0199 9.903C65.5602 10.0971 65.4785 10.2298 65.4785 10.4546C65.4785 10.5771 65.5194 10.9755 66.0811 10.9755C66.5408 10.9755 66.9391 10.8223 67.409 10.4546C68.2159 9.82128 68.7062 8.5956 68.7062 7.16563V4.40784H71.6682V10.3524C71.6682 10.7508 71.9236 10.9755 72.3526 10.9755C72.7816 10.9755 73.0369 10.7406 73.0369 10.3524V4.06056H73.0267Z" fill="white"/>
<path d="M91.524 8.39179C91.759 8.01387 92.0552 7.68702 92.4229 7.39081C92.6067 7.2376 92.7395 7.1661 92.811 7.1661C92.8825 7.1661 92.9029 7.19674 92.8927 7.26824C92.8825 7.32953 92.811 7.47253 92.6578 7.67681C92.5046 7.88109 92.3412 8.06494 92.1777 8.22837C91.8815 8.53479 91.5955 8.7595 91.3095 8.85142C91.3095 8.831 91.2993 8.82078 91.2891 8.80035C91.4117 8.55521 91.4934 8.42243 91.524 8.39179ZM108.571 8.79013C108.541 8.79013 108.357 8.89228 107.999 9.11699C107.775 9.24977 107.611 9.33148 107.499 9.39277L107.07 9.60726C106.784 9.72983 106.6 9.79111 106.488 9.79111C106.334 9.79111 106.263 9.74004 106.263 9.64812C106.263 9.57662 106.334 9.42341 106.488 9.18849C106.855 8.64714 107.335 7.97301 107.335 7.63595C107.335 7.39081 107.182 7.19674 106.998 7.19674C106.927 7.19674 106.814 7.20696 106.661 7.2376L106.477 7.26824L107.019 6.69626L107.366 6.37962C107.509 6.24684 107.581 6.1447 107.581 6.09362C107.581 5.87913 107.478 5.65442 107.335 5.69528C107.264 5.70549 107.152 5.80764 106.968 6.01192L106.457 6.55326L105.589 7.40103L105.109 7.86066C104.823 8.11601 104.68 8.29987 104.67 8.38158C104.639 8.51436 104.618 8.60628 104.608 8.68799H104.598C104.567 8.68799 104.435 8.7595 104.2 8.89228C103.985 9.02506 103.74 9.13742 103.505 9.24977C103.27 9.3417 103.076 9.42341 102.933 9.47448C102.719 9.54598 102.535 9.58684 102.412 9.58684C102.279 9.58684 102.218 9.52555 102.218 9.40298C102.218 9.25999 102.32 9.03528 102.525 8.70843C102.678 8.4735 102.851 8.24879 103.005 8.07515C103.097 7.95258 103.28 7.76873 103.515 7.51338C103.648 7.36017 103.709 7.26824 103.709 7.22739C103.709 6.97203 103.617 6.81882 103.423 6.78818C103.362 6.77797 103.24 6.83925 103.066 6.97203C102.913 7.08439 102.759 7.20696 102.627 7.33974C102.525 7.43167 102.422 7.51338 102.3 7.60531L101.902 7.87088C101.902 7.87088 101.922 7.77895 101.973 7.61552C102.024 7.46231 102.055 7.32953 102.055 7.2376C102.055 6.96182 101.932 6.75754 101.769 6.75754C101.728 6.75754 101.616 6.80861 101.442 6.92097L100.941 7.2376L100.134 7.75852C100.288 7.50317 100.451 7.07418 100.451 6.95161C100.461 6.74733 100.339 6.68604 100.186 6.68604C100.114 6.67583 100.022 6.78818 99.9098 7.02311C99.7361 7.39081 99.5931 7.66659 99.4808 7.8198C99.3174 8.06494 99.1131 8.33051 98.8782 8.59607C98.8475 8.62671 98.8169 8.66757 98.776 8.71864C98.7352 8.67778 98.7045 8.63693 98.633 8.63693C98.5819 8.62672 98.4185 8.68799 98.1427 8.83099C97.5197 9.16805 96.7434 9.5664 96.5698 9.5664C96.4779 9.5664 96.4268 9.48469 96.4268 9.32127C96.4268 9.03528 96.6106 8.70843 96.9068 8.41222C97.1724 8.29986 97.5095 8.0343 97.7546 7.72788C97.9691 7.47253 98.153 7.19674 98.153 7.04353C98.153 6.86989 97.9793 6.68604 97.8261 6.68604C97.6933 6.68604 97.5401 6.74733 97.3767 6.86989C97.2848 6.96182 97.1418 7.10482 96.9681 7.32953L96.3451 8.16708L95.7731 8.41222C95.5279 8.49393 95.2828 8.53478 95.0275 8.53478L94.7823 8.51436C94.8232 8.45307 94.9355 8.24879 95.1092 7.93216L95.3645 7.49295C95.5382 7.19675 95.7731 6.85968 95.8139 6.68604C95.865 6.52262 95.722 6.36941 95.5484 6.36941C95.436 6.36941 95.293 6.53283 95.1194 6.86989C94.9764 7.15589 94.8845 7.3091 94.8538 7.34996L94.5168 7.91173L94.2716 8.3305C94.2001 8.28965 94.0469 8.16708 93.955 8.14665C93.8018 8.1058 93.6077 8.36115 93.6077 8.49393C93.6077 8.58586 93.6383 8.68799 93.7098 8.75949L93.7711 8.81057C93.6383 8.89228 93.4443 9.00463 93.1787 9.17827C92.5965 9.53576 92.2492 9.66854 92.045 9.75026C91.81 9.83197 91.6058 9.87283 91.4219 9.87283C91.2891 9.87283 91.1563 9.68898 91.1563 9.51534L91.6262 9.22934C92.0143 8.97399 92.3003 8.7595 92.4944 8.56543C92.7293 8.31008 92.9132 8.09559 93.0459 7.91173C93.24 7.60531 93.3524 7.31931 93.3524 7.04353C93.3524 6.83925 93.1787 6.68604 93.0255 6.68604C92.7395 6.68604 92.4331 6.82904 92.096 7.08439C91.8202 7.29888 91.5649 7.55424 91.3606 7.83002C91.095 8.18751 90.9112 8.52457 90.7988 8.82078C90.615 8.87185 90.3903 8.95356 90.1758 9.03528C90.1043 9.0557 89.9306 9.13741 89.6242 9.28041L89.2667 9.42341C89.2361 9.3417 89.185 9.1272 89.185 8.96378V8.85142C89.185 8.72885 89.2157 8.64714 89.2565 8.55521C89.4914 8.42243 89.9204 8.14665 90.1656 7.95258C90.3392 7.83001 90.4413 7.73809 90.5128 7.64617C90.615 7.53381 90.6456 7.40102 90.6456 7.25803C90.6456 7.06396 90.5537 6.96183 90.3801 6.96183C90.2575 6.96183 90.0839 7.00268 89.8694 7.07418C89.6447 7.14568 89.4608 7.24781 89.3178 7.3806C89.1748 7.52359 89.0522 7.67681 88.9399 7.86066C88.8684 7.99344 88.8071 8.12622 88.7765 8.24879C88.5926 8.46329 88.276 8.67778 87.99 8.85142C87.8061 8.98421 87.6631 9.07613 87.5508 9.14763C87.2341 9.3417 87.0196 9.44384 86.8869 9.44384C86.8971 9.33149 86.989 9.13742 87.1422 8.88206C87.2137 8.74928 87.3669 8.52457 87.6018 8.17729C87.6938 8.0343 87.847 7.84023 88.0513 7.60531C88.3985 7.22739 88.562 7.00268 88.5722 6.97203C88.6028 6.83925 88.5211 6.74732 88.327 6.74732C88.2658 6.74732 88.0921 6.89032 87.8163 7.18653C87.5303 7.46231 87.3159 7.73809 87.1626 7.97301C86.846 8.48372 86.6111 8.85142 86.4783 9.07613C86.274 9.43363 86.1719 9.68898 86.1719 9.80133C86.1719 9.96476 86.2638 10.118 86.6111 10.118C86.6826 10.118 86.8766 10.026 87.1729 9.8524C87.4793 9.67876 87.7653 9.50512 88.0513 9.33149C88.1636 9.25999 88.2658 9.1987 88.3781 9.14763C88.5313 9.06592 88.6028 9.02506 88.6028 9.02506L88.705 9.52555C88.705 9.59704 88.705 9.76048 88.705 9.84219C88.5007 10.0465 88.133 10.2405 87.7653 10.4652C87.5201 10.6287 87.3465 10.7206 87.2546 10.8023C86.846 11.0883 86.6417 11.313 86.6213 11.4867C86.5907 11.6603 86.7847 11.8237 86.989 11.8237C87.1524 11.8237 87.3874 11.7624 87.6836 11.6296C87.99 11.4969 88.2862 11.3334 88.5415 11.1598C88.7765 11.0066 88.9603 10.8636 89.0931 10.741C89.2667 10.5878 89.3484 10.4448 89.3484 10.3222C89.3587 10.2303 89.3791 10.118 89.3689 9.98518C89.6753 9.79112 89.9919 9.60726 90.3494 9.47448L90.6865 9.35191C90.6763 9.42341 90.6661 9.50512 90.6661 9.57662C90.6661 9.77069 90.7171 9.93411 90.8091 10.0771C90.9521 10.2712 91.1461 10.3733 91.4117 10.3733C91.6466 10.3733 91.8407 10.3529 92.0041 10.3018C92.1777 10.2507 92.3922 10.169 92.668 10.0362C92.9234 9.91368 93.2196 9.72983 93.5362 9.51534C93.4851 9.59705 93.4239 9.69918 93.3626 9.81154C93.1276 10.2201 92.9949 10.4652 92.9949 10.5367C92.9949 10.7308 93.1481 10.8432 93.3524 10.8432C93.4239 10.8432 93.526 10.7512 93.6486 10.5674L93.955 10.0567C94.1695 9.75026 94.3533 9.44384 94.5065 9.14763C94.578 9.14763 94.6393 9.14763 94.6597 9.15784C94.7006 9.15784 94.7415 9.15785 94.8027 9.14763C95.2828 9.07613 95.6914 8.99442 96.0284 8.89228C95.9774 9.1272 95.9263 9.3417 95.9263 9.53576C95.9263 9.82176 96.0489 10.0771 96.3859 10.0771C96.58 10.0771 96.8047 10.026 97.0498 9.92389C97.1316 9.89325 97.3563 9.7809 97.7138 9.59704C97.9895 9.46426 98.1836 9.36212 98.296 9.30084C98.3062 9.30084 98.3062 9.29063 98.3062 9.29063C98.2755 9.33148 98.2449 9.37234 98.204 9.41319C98.0917 9.54597 97.9589 9.67876 97.8465 9.80133C97.6014 10.0567 97.4993 10.2099 97.4993 10.261C97.4993 10.404 97.6218 10.547 97.7546 10.547C97.8465 10.5572 98.1632 10.2712 98.7045 9.7094C99.0109 9.39276 99.2357 9.16806 99.3889 9.02506C99.7361 8.69821 100.104 8.38157 100.502 8.10579C100.788 7.90151 101.044 7.72788 101.278 7.61552C101.197 7.87088 100.911 8.25901 100.563 8.63693C100.39 8.81057 100.277 8.93313 100.206 9.01484C99.9813 9.28041 99.8587 9.44383 99.8587 9.52555C99.8587 9.7094 100.012 9.87283 100.165 9.87283C100.237 9.87283 100.39 9.76047 100.625 9.55619L101.299 8.93314C101.656 8.59607 101.922 8.402 102.239 8.22837C102.126 8.42243 102.024 8.63692 101.922 8.83099C101.759 9.11698 101.687 9.33148 101.687 9.46426C101.687 9.87283 101.891 10.0771 102.31 10.0771C102.586 10.0771 103.199 9.89325 103.689 9.67876C103.883 9.58683 104.067 9.48469 104.251 9.38255L103.393 10.6082L102.647 11.7011C102.422 12.0484 102.228 12.3242 102.085 12.5591C101.85 12.937 101.636 13.3252 101.636 13.4069C101.636 13.5295 101.779 13.5907 101.922 13.5907C102.004 13.5907 102.198 13.366 102.504 12.9064L103.628 11.2619C103.944 10.7921 104.251 10.312 104.578 9.84219L105.354 8.62671C105.487 8.4735 105.671 8.27943 105.854 8.14665C106.181 7.91173 106.518 7.70745 106.733 7.70745C106.794 7.70745 106.835 7.73809 106.835 7.80959C106.835 7.88108 106.763 8.02408 106.6 8.24879L106.396 8.55521C106.161 8.91271 106.028 9.1272 105.977 9.21913C105.834 9.47448 105.762 9.65833 105.762 9.79111C105.762 10.1282 105.926 10.3018 106.273 10.3018C106.426 10.3018 106.641 10.2405 106.917 10.1486C107.192 10.0465 107.468 9.93411 107.703 9.80133C107.948 9.66855 108.193 9.50512 108.418 9.35191C108.633 9.1987 108.745 9.07613 108.755 9.02506C108.735 8.84121 108.684 8.75949 108.571 8.79013Z" fill="white"/>
<path d="M2.8472 0.649414C1.74408 0.649414 0.794178 1.44611 0.794178 2.70244V11.8747C0.753321 13.0595 1.7543 13.9277 2.8472 13.9277C3.04127 13.9277 3.25576 13.9073 3.46005 13.846L18.9956 9.15772C20.8852 8.5653 20.9465 6.03222 18.9956 5.40916L3.44983 0.720912C3.24555 0.669842 3.04127 0.649414 2.8472 0.649414ZM2.83699 2.00788C2.89827 2.00788 2.97998 2.00789 3.05148 2.02831L18.5973 6.71656C18.9752 6.82891 19.0773 7.11491 19.0773 7.28855C19.0773 7.46219 18.9752 7.73797 18.6177 7.86054L3.04127 12.5488C2.96977 12.5692 2.92891 12.5692 2.86763 12.5692C2.54078 12.5692 2.122 12.3445 2.15265 11.8747V2.69222C2.11179 2.30409 2.46928 2.00788 2.78592 2.00788H2.83699Z" fill="white"/>
<path d="M24.0709 0.649414C23.8769 0.649414 23.6726 0.659628 23.4683 0.720912L7.9736 5.3683C5.96143 5.95051 5.90015 8.58574 7.9736 9.18836L11.0787 10.1281L13.4483 9.41307L8.37195 7.88096C7.9021 7.75839 7.79996 7.45197 7.79996 7.27834C7.79996 7.1047 7.9021 6.78806 8.36173 6.68592L23.836 2.0181C23.8973 1.99767 23.9892 1.99767 24.0607 1.99767H24.0914C24.4795 2.05895 24.7349 2.27345 24.7349 2.69222V11.8644C24.7757 12.2934 24.408 12.5386 24.0607 12.559C23.9994 12.559 23.8769 12.5488 23.8054 12.5284L15.7976 10.1178L13.4279 10.8328L23.4581 13.8562C23.6522 13.9175 23.8667 13.9277 24.0607 13.9277C25.1536 13.897 26.1342 13.0288 26.0933 11.8747V2.70244C26.124 1.47675 25.1026 0.649414 24.0709 0.649414Z" fill="white"/>
</svg>
